<svg xmlns="http://www.w3.org/2000/svg" xmlns:xlink="http://www.w3.org/1999/xlink" width="1200" zoomAndPan="magnify" viewBox="0 0 900 591.000005" height="788" preserveAspectRatio="xMidYMid meet" version="1.0"><defs><g/><clipPath id="ba22933dd3"><path d="M 769.050781 232 L 855.902344 232 L 855.902344 363.777344 L 769.050781 363.777344 Z M 769.050781 232 " clip-rule="nonzero"/></clipPath><clipPath id="122da7dcb8"><path d="M 827.242188 232.929688 C 826.453125 232.34375 825.472656 232 824.417969 232 C 821.792969 232 819.644531 234.148438 819.644531 236.777344 L 819.644531 276.898438 L 812.480469 276.898438 C 788.570312 276.898438 769.101562 296.390625 769.101562 320.332031 C 769.101562 344.277344 788.570312 363.777344 812.480469 363.777344 C 836.390625 363.777344 855.863281 344.28125 855.863281 320.332031 L 855.863281 303.597656 L 846.308594 303.597656 L 846.308594 320.332031 C 846.308594 339 831.121094 354.210938 812.480469 354.210938 C 793.84375 354.210938 778.65625 339 778.65625 320.332031 C 778.65625 301.671875 793.84375 286.464844 812.480469 286.464844 L 819.644531 286.464844 L 819.644531 303.601562 L 812.480469 303.601562 C 803.285156 303.601562 795.765625 311.136719 795.765625 320.339844 C 795.765625 329.542969 803.285156 337.082031 812.480469 337.082031 C 821.671875 337.082031 829.191406 329.550781 829.191406 320.339844 L 829.191406 319.675781 C 829.191406 300.058594 829.191406 280.441406 829.191406 260.824219 C 843.316406 259.128906 848.929688 272.542969 846.039062 301.074219 C 855.464844 287.308594 858.617188 268.289062 843.332031 253.039062 C 840.910156 250.617188 838.363281 248.261719 836.039062 245.859375 C 832.558594 242.269531 828.203125 233.640625 827.242188 232.929688 Z M 827.242188 232.929688 " clip-rule="evenodd"/></clipPath><linearGradient x1="209.446653" gradientTransform="matrix(0.58216, 0, 0, 0.582955, 769.096796, 231.998619)" y1="110.563052" x2="-0.491981" gradientUnits="userSpaceOnUse" y2="225.130072" id="5a3e563334"><stop stop-opacity="1" stop-color="rgb(14.169312%, 24.316406%, 99.992371%)" offset="0"/><stop stop-opacity="1" stop-color="rgb(14.482117%, 24.59259%, 99.987793%)" offset="0.00390625"/><stop stop-opacity="1" stop-color="rgb(14.794922%, 24.868774%, 99.983215%)" offset="0.0078125"/><stop stop-opacity="1" stop-color="rgb(15.107727%, 25.144958%, 99.978638%)" offset="0.0117188"/><stop stop-opacity="1" stop-color="rgb(15.420532%, 25.422668%, 99.97406%)" offset="0.015625"/><stop stop-opacity="1" stop-color="rgb(15.733337%, 25.698853%, 99.969482%)" offset="0.0195312"/><stop stop-opacity="1" stop-color="rgb(16.046143%, 25.976562%, 99.964905%)" offset="0.0234375"/><stop stop-opacity="1" stop-color="rgb(16.358948%, 26.252747%, 99.960327%)" offset="0.0273438"/><stop stop-opacity="1" stop-color="rgb(16.671753%, 26.530457%, 99.95575%)" offset="0.03125"/><stop stop-opacity="1" stop-color="rgb(16.984558%, 26.806641%, 99.951172%)" offset="0.0351562"/><stop stop-opacity="1" stop-color="rgb(17.297363%, 27.084351%, 99.946594%)" offset="0.0390625"/><stop stop-opacity="1" stop-color="rgb(17.610168%, 27.360535%, 99.942017%)" offset="0.0429687"/><stop stop-opacity="1" stop-color="rgb(17.922974%, 27.638245%, 99.937439%)" offset="0.046875"/><stop stop-opacity="1" stop-color="rgb(18.235779%, 27.914429%, 99.932861%)" offset="0.0507812"/><stop stop-opacity="1" stop-color="rgb(18.548584%, 28.192139%, 99.928284%)" offset="0.0546875"/><stop stop-opacity="1" stop-color="rgb(18.861389%, 28.468323%, 99.923706%)" offset="0.0585938"/><stop stop-opacity="1" stop-color="rgb(19.174194%, 28.746033%, 99.919128%)" offset="0.0625"/><stop stop-opacity="1" stop-color="rgb(19.485474%, 29.022217%, 99.914551%)" offset="0.0664062"/><stop stop-opacity="1" stop-color="rgb(19.798279%, 29.299927%, 99.909973%)" offset="0.0703125"/><stop stop-opacity="1" stop-color="rgb(20.111084%, 29.576111%, 99.905396%)" offset="0.0742188"/><stop stop-opacity="1" stop-color="rgb(20.423889%, 29.853821%, 99.900818%)" offset="0.078125"/><stop stop-opacity="1" stop-color="rgb(20.736694%, 30.130005%, 99.89624%)" offset="0.0820312"/><stop stop-opacity="1" stop-color="rgb(21.0495%, 30.407715%, 99.891663%)" offset="0.0859375"/><stop stop-opacity="1" stop-color="rgb(21.362305%, 30.683899%, 99.887085%)" offset="0.0898438"/><stop stop-opacity="1" stop-color="rgb(21.67511%, 30.961609%, 99.882507%)" offset="0.09375"/><stop stop-opacity="1" stop-color="rgb(21.987915%, 31.237793%, 99.87793%)" offset="0.0976562"/><stop stop-opacity="1" stop-color="rgb(22.30072%, 31.515503%, 99.873352%)" offset="0.101563"/><stop stop-opacity="1" stop-color="rgb(22.613525%, 31.791687%, 99.868774%)" offset="0.105469"/><stop stop-opacity="1" stop-color="rgb(22.926331%, 32.069397%, 99.864197%)" offset="0.109375"/><stop stop-opacity="1" stop-color="rgb(23.239136%, 32.345581%, 99.859619%)" offset="0.113281"/><stop stop-opacity="1" stop-color="rgb(23.551941%, 32.621765%, 99.855042%)" offset="0.117188"/><stop stop-opacity="1" stop-color="rgb(23.864746%, 32.897949%, 99.850464%)" offset="0.121094"/><stop stop-opacity="1" stop-color="rgb(24.177551%, 33.175659%, 99.845886%)" offset="0.125"/><stop stop-opacity="1" stop-color="rgb(24.490356%, 33.451843%, 99.841309%)" offset="0.128906"/><stop stop-opacity="1" stop-color="rgb(24.803162%, 33.729553%, 99.836731%)" offset="0.132813"/><stop stop-opacity="1" stop-color="rgb(25.115967%, 34.005737%, 99.832153%)" offset="0.136719"/><stop stop-opacity="1" stop-color="rgb(25.428772%, 34.283447%, 99.827576%)" offset="0.140625"/><stop stop-opacity="1" stop-color="rgb(25.741577%, 34.559631%, 99.822998%)" offset="0.144531"/><stop stop-opacity="1" stop-color="rgb(26.054382%, 34.837341%, 99.81842%)" offset="0.148438"/><stop stop-opacity="1" stop-color="rgb(26.367188%, 35.113525%, 99.813843%)" offset="0.152344"/><stop stop-opacity="1" stop-color="rgb(26.679993%, 35.391235%, 99.809265%)" offset="0.15625"/><stop stop-opacity="1" stop-color="rgb(26.991272%, 35.667419%, 99.804688%)" offset="0.160156"/><stop stop-opacity="1" stop-color="rgb(27.304077%, 35.945129%, 99.80011%)" offset="0.164062"/><stop stop-opacity="1" stop-color="rgb(27.616882%, 36.221313%, 99.795532%)" offset="0.167969"/><stop stop-opacity="1" stop-color="rgb(27.929688%, 36.499023%, 99.790955%)" offset="0.171875"/><stop stop-opacity="1" stop-color="rgb(28.242493%, 36.775208%, 99.786377%)" offset="0.175781"/><stop stop-opacity="1" stop-color="rgb(28.555298%, 37.052917%, 99.781799%)" offset="0.179688"/><stop stop-opacity="1" stop-color="rgb(28.868103%, 37.329102%, 99.777222%)" offset="0.183594"/><stop stop-opacity="1" stop-color="rgb(29.180908%, 37.606812%, 99.772644%)" offset="0.1875"/><stop stop-opacity="1" stop-color="rgb(29.493713%, 37.882996%, 99.768066%)" offset="0.191406"/><stop stop-opacity="1" stop-color="rgb(29.806519%, 38.160706%, 99.763489%)" offset="0.195312"/><stop stop-opacity="1" stop-color="rgb(30.119324%, 38.43689%, 99.758911%)" offset="0.199219"/><stop stop-opacity="1" stop-color="rgb(30.432129%, 38.7146%, 99.754333%)" offset="0.203125"/><stop stop-opacity="1" stop-color="rgb(30.744934%, 38.990784%, 99.749756%)" offset="0.207031"/><stop stop-opacity="1" stop-color="rgb(31.057739%, 39.268494%, 99.745178%)" offset="0.210938"/><stop stop-opacity="1" stop-color="rgb(31.370544%, 39.544678%, 99.740601%)" offset="0.214844"/><stop stop-opacity="1" stop-color="rgb(31.68335%, 39.820862%, 99.736023%)" offset="0.21875"/><stop stop-opacity="1" stop-color="rgb(31.996155%, 40.097046%, 99.731445%)" offset="0.222656"/><stop stop-opacity="1" stop-color="rgb(32.30896%, 40.374756%, 99.726868%)" offset="0.226562"/><stop stop-opacity="1" stop-color="rgb(32.621765%, 40.65094%, 99.72229%)" offset="0.230469"/><stop stop-opacity="1" stop-color="rgb(32.93457%, 40.92865%, 99.717712%)" offset="0.234375"/><stop stop-opacity="1" stop-color="rgb(33.247375%, 41.204834%, 99.713135%)" offset="0.238281"/><stop stop-opacity="1" stop-color="rgb(33.560181%, 41.482544%, 99.708557%)" offset="0.242188"/><stop stop-opacity="1" stop-color="rgb(33.872986%, 41.758728%, 99.703979%)" offset="0.246094"/><stop stop-opacity="1" stop-color="rgb(34.185791%, 42.036438%, 99.699402%)" offset="0.25"/><stop stop-opacity="1" stop-color="rgb(34.49707%, 42.312622%, 99.694824%)" offset="0.253906"/><stop stop-opacity="1" stop-color="rgb(34.809875%, 42.590332%, 99.690247%)" offset="0.257813"/><stop stop-opacity="1" stop-color="rgb(35.122681%, 42.866516%, 99.685669%)" offset="0.261719"/><stop stop-opacity="1" stop-color="rgb(35.435486%, 43.144226%, 99.681091%)" offset="0.265625"/><stop stop-opacity="1" stop-color="rgb(35.748291%, 43.42041%, 99.676514%)" offset="0.269531"/><stop stop-opacity="1" stop-color="rgb(36.061096%, 43.69812%, 99.671936%)" offset="0.273438"/><stop stop-opacity="1" stop-color="rgb(36.373901%, 43.974304%, 99.667358%)" offset="0.277344"/><stop stop-opacity="1" stop-color="rgb(36.686707%, 44.252014%, 99.662781%)" offset="0.28125"/><stop stop-opacity="1" stop-color="rgb(36.999512%, 44.528198%, 99.658203%)" offset="0.285156"/><stop stop-opacity="1" stop-color="rgb(37.312317%, 44.805908%, 99.653625%)" offset="0.289062"/><stop stop-opacity="1" stop-color="rgb(37.625122%, 45.082092%, 99.649048%)" offset="0.292969"/><stop stop-opacity="1" stop-color="rgb(37.937927%, 45.359802%, 99.64447%)" offset="0.296875"/><stop stop-opacity="1" stop-color="rgb(38.250732%, 45.635986%, 99.639893%)" offset="0.300781"/><stop stop-opacity="1" stop-color="rgb(38.563538%, 45.913696%, 99.635315%)" offset="0.304687"/><stop stop-opacity="1" stop-color="rgb(38.876343%, 46.18988%, 99.630737%)" offset="0.308594"/><stop stop-opacity="1" stop-color="rgb(39.189148%, 46.46759%, 99.62616%)" offset="0.3125"/><stop stop-opacity="1" stop-color="rgb(39.501953%, 46.743774%, 99.621582%)" offset="0.316406"/><stop stop-opacity="1" stop-color="rgb(39.814758%, 47.021484%, 99.617004%)" offset="0.320312"/><stop stop-opacity="1" stop-color="rgb(40.127563%, 47.297668%, 99.612427%)" offset="0.324219"/><stop stop-opacity="1" stop-color="rgb(40.440369%, 47.573853%, 99.607849%)" offset="0.328125"/><stop stop-opacity="1" stop-color="rgb(40.753174%, 47.850037%, 99.603271%)" offset="0.332031"/><stop stop-opacity="1" stop-color="rgb(41.065979%, 48.127747%, 99.598694%)" offset="0.335937"/><stop stop-opacity="1" stop-color="rgb(41.378784%, 48.403931%, 99.594116%)" offset="0.339844"/><stop stop-opacity="1" stop-color="rgb(41.691589%, 48.681641%, 99.589539%)" offset="0.34375"/><stop stop-opacity="1" stop-color="rgb(42.004395%, 48.957825%, 99.584961%)" offset="0.347656"/><stop stop-opacity="1" stop-color="rgb(42.3172%, 49.235535%, 99.580383%)" offset="0.351562"/><stop stop-opacity="1" stop-color="rgb(42.628479%, 49.511719%, 99.575806%)" offset="0.355469"/><stop stop-opacity="1" stop-color="rgb(42.941284%, 49.789429%, 99.571228%)" offset="0.359375"/><stop stop-opacity="1" stop-color="rgb(43.254089%, 50.065613%, 99.56665%)" offset="0.363281"/><stop stop-opacity="1" stop-color="rgb(43.566895%, 50.343323%, 99.562073%)" offset="0.367188"/><stop stop-opacity="1" stop-color="rgb(43.8797%, 50.619507%, 99.557495%)" offset="0.371094"/><stop stop-opacity="1" stop-color="rgb(44.192505%, 50.897217%, 99.552917%)" offset="0.375"/><stop stop-opacity="1" stop-color="rgb(44.50531%, 51.173401%, 99.54834%)" offset="0.378906"/><stop stop-opacity="1" stop-color="rgb(44.818115%, 51.451111%, 99.543762%)" offset="0.382812"/><stop stop-opacity="1" stop-color="rgb(45.13092%, 51.727295%, 99.539185%)" offset="0.386719"/><stop stop-opacity="1" stop-color="rgb(45.443726%, 52.005005%, 99.534607%)" offset="0.390625"/><stop stop-opacity="1" stop-color="rgb(45.756531%, 52.281189%, 99.530029%)" offset="0.394531"/><stop stop-opacity="1" stop-color="rgb(46.069336%, 52.558899%, 99.525452%)" offset="0.398437"/><stop stop-opacity="1" stop-color="rgb(46.382141%, 52.835083%, 99.520874%)" offset="0.402344"/><stop stop-opacity="1" stop-color="rgb(46.694946%, 53.112793%, 99.516296%)" offset="0.40625"/><stop stop-opacity="1" stop-color="rgb(47.007751%, 53.388977%, 99.511719%)" offset="0.410156"/><stop stop-opacity="1" stop-color="rgb(47.320557%, 53.666687%, 99.507141%)" offset="0.414062"/><stop stop-opacity="1" stop-color="rgb(47.633362%, 53.942871%, 99.502563%)" offset="0.417969"/><stop stop-opacity="1" stop-color="rgb(47.946167%, 54.220581%, 99.497986%)" offset="0.421875"/><stop stop-opacity="1" stop-color="rgb(48.258972%, 54.496765%, 99.493408%)" offset="0.425781"/><stop stop-opacity="1" stop-color="rgb(48.571777%, 54.774475%, 99.488831%)" offset="0.429688"/><stop stop-opacity="1" stop-color="rgb(48.884583%, 55.050659%, 99.484253%)" offset="0.433594"/><stop stop-opacity="1" stop-color="rgb(49.197388%, 55.326843%, 99.479675%)" offset="0.4375"/><stop stop-opacity="1" stop-color="rgb(49.510193%, 55.603027%, 99.475098%)" offset="0.441406"/><stop stop-opacity="1" stop-color="rgb(49.822998%, 55.880737%, 99.47052%)" offset="0.445312"/><stop stop-opacity="1" stop-color="rgb(50.134277%, 56.156921%, 99.465942%)" offset="0.449219"/><stop stop-opacity="1" stop-color="rgb(50.447083%, 56.434631%, 99.461365%)" offset="0.453125"/><stop stop-opacity="1" stop-color="rgb(50.759888%, 56.710815%, 99.456787%)" offset="0.457031"/><stop stop-opacity="1" stop-color="rgb(51.072693%, 56.988525%, 99.452209%)" offset="0.460937"/><stop stop-opacity="1" stop-color="rgb(51.385498%, 57.264709%, 99.447632%)" offset="0.464844"/><stop stop-opacity="1" stop-color="rgb(51.698303%, 57.542419%, 99.443054%)" offset="0.46875"/><stop stop-opacity="1" stop-color="rgb(52.011108%, 57.818604%, 99.438477%)" offset="0.472656"/><stop stop-opacity="1" stop-color="rgb(52.323914%, 58.096313%, 99.433899%)" offset="0.476563"/><stop stop-opacity="1" stop-color="rgb(52.636719%, 58.372498%, 99.429321%)" offset="0.480469"/><stop stop-opacity="1" stop-color="rgb(52.949524%, 58.650208%, 99.424744%)" offset="0.484375"/><stop stop-opacity="1" stop-color="rgb(53.262329%, 58.926392%, 99.420166%)" offset="0.488281"/><stop stop-opacity="1" stop-color="rgb(53.575134%, 59.204102%, 99.415588%)" offset="0.492188"/><stop stop-opacity="1" stop-color="rgb(53.887939%, 59.480286%, 99.411011%)" offset="0.496094"/><stop stop-opacity="1" stop-color="rgb(54.200745%, 59.757996%, 99.406433%)" offset="0.5"/><stop stop-opacity="1" stop-color="rgb(54.51355%, 60.03418%, 99.401855%)" offset="0.503906"/><stop stop-opacity="1" stop-color="rgb(54.826355%, 60.31189%, 99.397278%)" offset="0.507812"/><stop stop-opacity="1" stop-color="rgb(55.13916%, 60.588074%, 99.3927%)" offset="0.511719"/><stop stop-opacity="1" stop-color="rgb(55.451965%, 60.865784%, 99.388123%)" offset="0.515625"/><stop stop-opacity="1" stop-color="rgb(55.764771%, 61.141968%, 99.383545%)" offset="0.519531"/><stop stop-opacity="1" stop-color="rgb(56.077576%, 61.419678%, 99.378967%)" offset="0.523438"/><stop stop-opacity="1" stop-color="rgb(56.390381%, 61.695862%, 99.37439%)" offset="0.527344"/><stop stop-opacity="1" stop-color="rgb(56.703186%, 61.973572%, 99.369812%)" offset="0.53125"/><stop stop-opacity="1" stop-color="rgb(57.015991%, 62.249756%, 99.365234%)" offset="0.535156"/><stop stop-opacity="1" stop-color="rgb(57.328796%, 62.527466%, 99.360657%)" offset="0.539062"/><stop stop-opacity="1" stop-color="rgb(57.640076%, 62.80365%, 99.356079%)" offset="0.542969"/><stop stop-opacity="1" stop-color="rgb(57.952881%, 63.079834%, 99.351501%)" offset="0.546875"/><stop stop-opacity="1" stop-color="rgb(58.265686%, 63.356018%, 99.346924%)" offset="0.550781"/><stop stop-opacity="1" stop-color="rgb(58.578491%, 63.633728%, 99.342346%)" offset="0.554687"/><stop stop-opacity="1" stop-color="rgb(58.891296%, 63.909912%, 99.337769%)" offset="0.558594"/><stop stop-opacity="1" stop-color="rgb(59.204102%, 64.187622%, 99.333191%)" offset="0.5625"/><stop stop-opacity="1" stop-color="rgb(59.516907%, 64.463806%, 99.328613%)" offset="0.566406"/><stop stop-opacity="1" stop-color="rgb(59.829712%, 64.741516%, 99.324036%)" offset="0.570313"/><stop stop-opacity="1" stop-color="rgb(60.142517%, 65.0177%, 99.319458%)" offset="0.574219"/><stop stop-opacity="1" stop-color="rgb(60.455322%, 65.29541%, 99.31488%)" offset="0.578125"/><stop stop-opacity="1" stop-color="rgb(60.768127%, 65.571594%, 99.310303%)" offset="0.582031"/><stop stop-opacity="1" stop-color="rgb(61.080933%, 65.849304%, 99.305725%)" offset="0.585938"/><stop stop-opacity="1" stop-color="rgb(61.393738%, 66.125488%, 99.301147%)" offset="0.589844"/><stop stop-opacity="1" stop-color="rgb(61.706543%, 66.403198%, 99.29657%)" offset="0.59375"/><stop stop-opacity="1" stop-color="rgb(62.019348%, 66.679382%, 99.291992%)" offset="0.597656"/><stop stop-opacity="1" stop-color="rgb(62.332153%, 66.957092%, 99.287415%)" offset="0.601563"/><stop stop-opacity="1" stop-color="rgb(62.644958%, 67.233276%, 99.282837%)" offset="0.605469"/><stop stop-opacity="1" stop-color="rgb(62.957764%, 67.510986%, 99.278259%)" offset="0.609375"/><stop stop-opacity="1" stop-color="rgb(63.270569%, 67.78717%, 99.273682%)" offset="0.613281"/><stop stop-opacity="1" stop-color="rgb(63.583374%, 68.06488%, 99.269104%)" offset="0.617188"/><stop stop-opacity="1" stop-color="rgb(63.896179%, 68.341064%, 99.264526%)" offset="0.621094"/><stop stop-opacity="1" stop-color="rgb(64.208984%, 68.618774%, 99.259949%)" offset="0.625"/><stop stop-opacity="1" stop-color="rgb(64.52179%, 68.894958%, 99.255371%)" offset="0.628906"/><stop stop-opacity="1" stop-color="rgb(64.834595%, 69.172668%, 99.250793%)" offset="0.632812"/><stop stop-opacity="1" stop-color="rgb(65.145874%, 69.448853%, 99.246216%)" offset="0.636719"/><stop stop-opacity="1" stop-color="rgb(65.458679%, 69.726562%, 99.241638%)" offset="0.640625"/><stop stop-opacity="1" stop-color="rgb(65.771484%, 70.002747%, 99.237061%)" offset="0.644531"/><stop stop-opacity="1" stop-color="rgb(66.08429%, 70.280457%, 99.232483%)" offset="0.648438"/><stop stop-opacity="1" stop-color="rgb(66.397095%, 70.556641%, 99.227905%)" offset="0.652344"/><stop stop-opacity="1" stop-color="rgb(66.7099%, 70.832825%, 99.223328%)" offset="0.65625"/><stop stop-opacity="1" stop-color="rgb(67.022705%, 71.109009%, 99.21875%)" offset="0.660156"/><stop stop-opacity="1" stop-color="rgb(67.33551%, 71.386719%, 99.214172%)" offset="0.664062"/><stop stop-opacity="1" stop-color="rgb(67.648315%, 71.662903%, 99.209595%)" offset="0.667969"/><stop stop-opacity="1" stop-color="rgb(67.961121%, 71.940613%, 99.205017%)" offset="0.671875"/><stop stop-opacity="1" stop-color="rgb(68.273926%, 72.216797%, 99.200439%)" offset="0.675781"/><stop stop-opacity="1" stop-color="rgb(68.586731%, 72.494507%, 99.195862%)" offset="0.679687"/><stop stop-opacity="1" stop-color="rgb(68.899536%, 72.770691%, 99.191284%)" offset="0.683594"/><stop stop-opacity="1" stop-color="rgb(69.212341%, 73.048401%, 99.186707%)" offset="0.6875"/><stop stop-opacity="1" stop-color="rgb(69.525146%, 73.324585%, 99.182129%)" offset="0.691406"/><stop stop-opacity="1" stop-color="rgb(69.837952%, 73.602295%, 99.177551%)" offset="0.695313"/><stop stop-opacity="1" stop-color="rgb(70.150757%, 73.878479%, 99.172974%)" offset="0.699219"/><stop stop-opacity="1" stop-color="rgb(70.463562%, 74.156189%, 99.168396%)" offset="0.703125"/><stop stop-opacity="1" stop-color="rgb(70.776367%, 74.432373%, 99.163818%)" offset="0.707031"/><stop stop-opacity="1" stop-color="rgb(71.089172%, 74.710083%, 99.159241%)" offset="0.710938"/><stop stop-opacity="1" stop-color="rgb(71.401978%, 74.986267%, 99.154663%)" offset="0.714844"/><stop stop-opacity="1" stop-color="rgb(71.714783%, 75.263977%, 99.150085%)" offset="0.71875"/><stop stop-opacity="1" stop-color="rgb(72.027588%, 75.540161%, 99.145508%)" offset="0.722656"/><stop stop-opacity="1" stop-color="rgb(72.340393%, 75.817871%, 99.14093%)" offset="0.726563"/><stop stop-opacity="1" stop-color="rgb(72.653198%, 76.094055%, 99.136353%)" offset="0.730469"/><stop stop-opacity="1" stop-color="rgb(72.966003%, 76.371765%, 99.131775%)" offset="0.734375"/><stop stop-opacity="1" stop-color="rgb(73.277283%, 76.647949%, 99.127197%)" offset="0.738281"/><stop stop-opacity="1" stop-color="rgb(73.590088%, 76.925659%, 99.12262%)" offset="0.742188"/><stop stop-opacity="1" stop-color="rgb(73.902893%, 77.201843%, 99.118042%)" offset="0.746094"/><stop stop-opacity="1" stop-color="rgb(74.215698%, 77.479553%, 99.113464%)" offset="0.75"/><stop stop-opacity="1" stop-color="rgb(74.528503%, 77.755737%, 99.108887%)" offset="0.753906"/><stop stop-opacity="1" stop-color="rgb(74.841309%, 78.033447%, 99.104309%)" offset="0.757812"/><stop stop-opacity="1" stop-color="rgb(75.154114%, 78.309631%, 99.099731%)" offset="0.761719"/><stop stop-opacity="1" stop-color="rgb(75.466919%, 78.585815%, 99.095154%)" offset="0.765625"/><stop stop-opacity="1" stop-color="rgb(75.779724%, 78.862%, 99.090576%)" offset="0.769531"/><stop stop-opacity="1" stop-color="rgb(76.092529%, 79.139709%, 99.085999%)" offset="0.773438"/><stop stop-opacity="1" stop-color="rgb(76.405334%, 79.415894%, 99.081421%)" offset="0.777344"/><stop stop-opacity="1" stop-color="rgb(76.71814%, 79.693604%, 99.076843%)" offset="0.78125"/><stop stop-opacity="1" stop-color="rgb(77.030945%, 79.969788%, 99.072266%)" offset="0.785156"/><stop stop-opacity="1" stop-color="rgb(77.34375%, 80.247498%, 99.067688%)" offset="0.789062"/><stop stop-opacity="1" stop-color="rgb(77.656555%, 80.523682%, 99.06311%)" offset="0.792969"/><stop stop-opacity="1" stop-color="rgb(77.96936%, 80.801392%, 99.058533%)" offset="0.796875"/><stop stop-opacity="1" stop-color="rgb(78.282166%, 81.077576%, 99.053955%)" offset="0.800781"/><stop stop-opacity="1" stop-color="rgb(78.594971%, 81.355286%, 99.049377%)" offset="0.804688"/><stop stop-opacity="1" stop-color="rgb(78.907776%, 81.63147%, 99.0448%)" offset="0.808594"/><stop stop-opacity="1" stop-color="rgb(79.220581%, 81.90918%, 99.040222%)" offset="0.8125"/><stop stop-opacity="1" stop-color="rgb(79.533386%, 82.185364%, 99.035645%)" offset="0.816406"/><stop stop-opacity="1" stop-color="rgb(79.846191%, 82.463074%, 99.031067%)" offset="0.820313"/><stop stop-opacity="1" stop-color="rgb(80.158997%, 82.739258%, 99.026489%)" offset="0.824219"/><stop stop-opacity="1" stop-color="rgb(80.471802%, 83.016968%, 99.021912%)" offset="0.828125"/><stop stop-opacity="1" stop-color="rgb(80.783081%, 83.293152%, 99.017334%)" offset="0.832031"/><stop stop-opacity="1" stop-color="rgb(81.095886%, 83.570862%, 99.012756%)" offset="0.835938"/><stop stop-opacity="1" stop-color="rgb(81.408691%, 83.847046%, 99.008179%)" offset="0.839844"/><stop stop-opacity="1" stop-color="rgb(81.721497%, 84.124756%, 99.003601%)" offset="0.84375"/><stop stop-opacity="1" stop-color="rgb(82.034302%, 84.40094%, 98.999023%)" offset="0.847656"/><stop stop-opacity="1" stop-color="rgb(82.347107%, 84.67865%, 98.994446%)" offset="0.851563"/><stop stop-opacity="1" stop-color="rgb(82.659912%, 84.954834%, 98.989868%)" offset="0.855469"/><stop stop-opacity="1" stop-color="rgb(82.972717%, 85.232544%, 98.985291%)" offset="0.859375"/><stop stop-opacity="1" stop-color="rgb(83.285522%, 85.508728%, 98.980713%)" offset="0.863281"/><stop stop-opacity="1" stop-color="rgb(83.598328%, 85.784912%, 98.976135%)" offset="0.867188"/><stop stop-opacity="1" stop-color="rgb(83.911133%, 86.061096%, 98.971558%)" offset="0.871094"/><stop stop-opacity="1" stop-color="rgb(84.223938%, 86.338806%, 98.96698%)" offset="0.875"/><stop stop-opacity="1" stop-color="rgb(84.536743%, 86.61499%, 98.962402%)" offset="0.878906"/><stop stop-opacity="1" stop-color="rgb(84.849548%, 86.8927%, 98.957825%)" offset="0.882813"/><stop stop-opacity="1" stop-color="rgb(85.162354%, 87.168884%, 98.953247%)" offset="0.886719"/><stop stop-opacity="1" stop-color="rgb(85.475159%, 87.446594%, 98.948669%)" offset="0.890625"/><stop stop-opacity="1" stop-color="rgb(85.787964%, 87.722778%, 98.944092%)" offset="0.894531"/><stop stop-opacity="1" stop-color="rgb(86.100769%, 88.000488%, 98.939514%)" offset="0.898438"/><stop stop-opacity="1" stop-color="rgb(86.413574%, 88.276672%, 98.934937%)" offset="0.902344"/><stop stop-opacity="1" stop-color="rgb(86.726379%, 88.554382%, 98.930359%)" offset="0.90625"/><stop stop-opacity="1" stop-color="rgb(87.039185%, 88.830566%, 98.925781%)" offset="0.910156"/><stop stop-opacity="1" stop-color="rgb(87.35199%, 89.108276%, 98.921204%)" offset="0.914062"/><stop stop-opacity="1" stop-color="rgb(87.664795%, 89.38446%, 98.916626%)" offset="0.917969"/><stop stop-opacity="1" stop-color="rgb(87.9776%, 89.66217%, 98.912048%)" offset="0.921875"/><stop stop-opacity="1" stop-color="rgb(88.288879%, 89.938354%, 98.907471%)" offset="0.925781"/><stop stop-opacity="1" stop-color="rgb(88.601685%, 90.216064%, 98.902893%)" offset="0.929688"/><stop stop-opacity="1" stop-color="rgb(88.91449%, 90.492249%, 98.898315%)" offset="0.933594"/><stop stop-opacity="1" stop-color="rgb(89.227295%, 90.769958%, 98.893738%)" offset="0.9375"/><stop stop-opacity="1" stop-color="rgb(89.5401%, 91.046143%, 98.88916%)" offset="0.941406"/><stop stop-opacity="1" stop-color="rgb(89.852905%, 91.323853%, 98.884583%)" offset="0.945312"/><stop stop-opacity="1" stop-color="rgb(90.16571%, 91.600037%, 98.880005%)" offset="0.949219"/><stop stop-opacity="1" stop-color="rgb(90.478516%, 91.877747%, 98.875427%)" offset="0.953125"/><stop stop-opacity="1" stop-color="rgb(90.791321%, 92.153931%, 98.87085%)" offset="0.957031"/><stop stop-opacity="1" stop-color="rgb(91.104126%, 92.431641%, 98.866272%)" offset="0.960938"/><stop stop-opacity="1" stop-color="rgb(91.416931%, 92.707825%, 98.861694%)" offset="0.964844"/><stop stop-opacity="1" stop-color="rgb(91.729736%, 92.985535%, 98.857117%)" offset="0.96875"/><stop stop-opacity="1" stop-color="rgb(92.042542%, 93.261719%, 98.852539%)" offset="0.972656"/><stop stop-opacity="1" stop-color="rgb(92.355347%, 93.537903%, 98.847961%)" offset="0.976562"/><stop stop-opacity="1" stop-color="rgb(92.668152%, 93.814087%, 98.843384%)" offset="0.980469"/><stop stop-opacity="1" stop-color="rgb(92.980957%, 94.091797%, 98.838806%)" offset="0.984375"/><stop stop-opacity="1" stop-color="rgb(93.293762%, 94.367981%, 98.834229%)" offset="0.988281"/><stop stop-opacity="1" stop-color="rgb(93.606567%, 94.645691%, 98.829651%)" offset="0.992187"/><stop stop-opacity="1" stop-color="rgb(93.919373%, 94.921875%, 98.825073%)" offset="0.996094"/><stop stop-opacity="1" stop-color="rgb(94.232178%, 95.199585%, 98.820496%)" offset="1"/></linearGradient></defs><g clip-path="url(#ba22933dd3)"><g clip-path="url(#122da7dcb8)"><path fill="url(#5a3e563334)" d="M 769.101562 232 L 769.101562 363.777344 L 855.902344 363.777344 L 855.902344 232 Z M 769.101562 232 " fill-rule="nonzero"/></g></g><g fill="#ffffff" fill-opacity="1"><g transform="translate(30.741592, 345.568591)"><g><path d="M 3.953125 -7.984375 C 2.609375 -9.640625 1.9375 -11.125 1.9375 -12.4375 C 1.9375 -13.757812 3.046875 -15.503906 5.265625 -17.671875 C 6.554688 -18.910156 7.925781 -19.53125 9.375 -19.53125 C 10.820312 -19.53125 12.835938 -18.238281 15.421875 -15.65625 C 16.148438 -14.78125 17.1875 -13.941406 18.53125 -13.140625 C 19.875 -12.335938 21.113281 -11.9375 22.25 -11.9375 C 27.050781 -11.9375 29.453125 -13.898438 29.453125 -17.828125 C 29.453125 -19.015625 28.789062 -20.007812 27.46875 -20.8125 C 26.15625 -21.613281 24.515625 -22.191406 22.546875 -22.546875 C 20.585938 -22.910156 18.472656 -23.492188 16.203125 -24.296875 C 13.929688 -25.097656 11.8125 -26.039062 9.84375 -27.125 C 7.882812 -28.21875 6.242188 -29.9375 4.921875 -32.28125 C 3.609375 -34.632812 2.953125 -37.460938 2.953125 -40.765625 C 2.953125 -45.316406 4.640625 -49.285156 8.015625 -52.671875 C 11.398438 -56.054688 16.015625 -57.75 21.859375 -57.75 C 24.960938 -57.75 27.789062 -57.347656 30.34375 -56.546875 C 32.90625 -55.742188 34.675781 -54.929688 35.65625 -54.109375 L 37.59375 -52.640625 C 39.195312 -51.140625 40 -49.867188 40 -48.828125 C 40 -47.796875 39.378906 -46.378906 38.140625 -44.578125 C 36.378906 -41.992188 34.570312 -40.703125 32.71875 -40.703125 C 31.625 -40.703125 30.28125 -41.21875 28.6875 -42.25 C 28.53125 -42.351562 28.226562 -42.609375 27.78125 -43.015625 C 27.34375 -43.429688 26.945312 -43.769531 26.59375 -44.03125 C 25.5 -44.695312 24.113281 -45.03125 22.4375 -45.03125 C 20.757812 -45.03125 19.363281 -44.628906 18.25 -43.828125 C 17.144531 -43.035156 16.59375 -41.925781 16.59375 -40.5 C 16.59375 -39.082031 17.25 -37.929688 18.5625 -37.046875 C 19.882812 -36.171875 21.523438 -35.578125 23.484375 -35.265625 C 25.453125 -34.953125 27.597656 -34.472656 29.921875 -33.828125 C 32.242188 -33.179688 34.382812 -32.394531 36.34375 -31.46875 C 38.3125 -30.539062 39.953125 -28.925781 41.265625 -26.625 C 42.585938 -24.320312 43.25 -21.488281 43.25 -18.125 C 43.25 -14.769531 42.578125 -11.8125 41.234375 -9.25 C 39.890625 -6.695312 38.132812 -4.722656 35.96875 -3.328125 C 31.78125 -0.585938 27.3125 0.78125 22.5625 0.78125 C 20.125 0.78125 17.820312 0.484375 15.65625 -0.109375 C 13.488281 -0.703125 11.734375 -1.441406 10.390625 -2.328125 C 7.648438 -3.984375 5.738281 -5.582031 4.65625 -7.125 Z M 3.953125 -7.984375 "/></g></g></g><g fill="#ffffff" fill-opacity="1"><g transform="translate(94.609137, 345.568591)"><g><path d="M 29.765625 -57.515625 C 37.410156 -57.515625 44.050781 -54.75 49.6875 -49.21875 C 55.320312 -43.6875 58.140625 -36.828125 58.140625 -28.640625 C 58.140625 -20.453125 55.453125 -13.472656 50.078125 -7.703125 C 44.703125 -1.941406 38.085938 0.9375 30.234375 0.9375 C 22.378906 0.9375 15.695312 -1.90625 10.1875 -7.59375 C 4.6875 -13.28125 1.9375 -20.050781 1.9375 -27.90625 C 1.9375 -32.195312 2.710938 -36.210938 4.265625 -39.953125 C 5.816406 -43.703125 7.882812 -46.84375 10.46875 -49.375 C 13.050781 -51.90625 16.019531 -53.894531 19.375 -55.34375 C 22.738281 -56.789062 26.203125 -57.515625 29.765625 -57.515625 Z M 15.65625 -28.28125 C 15.65625 -23.6875 17.140625 -19.957031 20.109375 -17.09375 C 23.085938 -14.226562 26.410156 -12.796875 30.078125 -12.796875 C 33.742188 -12.796875 37.050781 -14.1875 40 -16.96875 C 42.945312 -19.757812 44.421875 -23.503906 44.421875 -28.203125 C 44.421875 -32.910156 42.929688 -36.6875 39.953125 -39.53125 C 36.984375 -42.375 33.664062 -43.796875 30 -43.796875 C 26.332031 -43.796875 23.023438 -42.359375 20.078125 -39.484375 C 17.128906 -36.617188 15.65625 -32.882812 15.65625 -28.28125 Z M 15.65625 -28.28125 "/></g></g></g><g fill="#ffffff" fill-opacity="1"><g transform="translate(173.357753, 345.568591)"><g><path d="M 40.21875 -54.71875 C 40.738281 -55.550781 41.488281 -56.117188 42.46875 -56.421875 C 43.457031 -56.734375 44.6875 -56.890625 46.15625 -56.890625 C 47.632812 -56.890625 48.8125 -56.757812 49.6875 -56.5 C 50.5625 -56.25 51.234375 -55.941406 51.703125 -55.578125 C 52.171875 -55.210938 52.503906 -54.671875 52.703125 -53.953125 C 53.015625 -53.078125 53.171875 -51.734375 53.171875 -49.921875 L 53.171875 -26.515625 C 53.171875 -19.691406 51.050781 -13.488281 46.8125 -7.90625 C 44.75 -5.269531 42.085938 -3.132812 38.828125 -1.5 C 35.578125 0.125 31.972656 0.9375 28.015625 0.9375 C 24.066406 0.9375 20.476562 0.109375 17.25 -1.546875 C 14.019531 -3.203125 11.394531 -5.375 9.375 -8.0625 C 5.1875 -13.539062 3.09375 -19.742188 3.09375 -26.671875 L 3.09375 -50 C 3.09375 -51.238281 3.128906 -52.15625 3.203125 -52.75 C 3.285156 -53.34375 3.535156 -54.023438 3.953125 -54.796875 C 4.367188 -55.578125 5.066406 -56.117188 6.046875 -56.421875 C 7.023438 -56.734375 8.34375 -56.890625 10 -56.890625 C 11.65625 -56.890625 12.972656 -56.734375 13.953125 -56.421875 C 14.929688 -56.117188 15.601562 -55.578125 15.96875 -54.796875 C 16.582031 -53.609375 16.890625 -51.984375 16.890625 -49.921875 L 16.890625 -26.671875 C 16.890625 -23.515625 17.664062 -20.515625 19.21875 -17.671875 C 20 -16.222656 21.160156 -15.0625 22.703125 -14.1875 C 24.253906 -13.3125 26.09375 -12.875 28.21875 -12.875 C 31.988281 -12.875 34.800781 -14.265625 36.65625 -17.046875 C 38.519531 -19.835938 39.453125 -23.070312 39.453125 -26.75 L 39.453125 -50.46875 C 39.453125 -52.476562 39.707031 -53.894531 40.21875 -54.71875 Z M 40.21875 -54.71875 "/></g></g></g><g fill="#ffffff" fill-opacity="1"><g transform="translate(248.308601, 345.568591)"><g><path d="M 39.796875 -54.453125 C 40.296875 -55.359375 41.035156 -55.960938 42.015625 -56.265625 C 42.992188 -56.578125 44.21875 -56.734375 45.6875 -56.734375 C 47.164062 -56.734375 48.359375 -56.601562 49.265625 -56.34375 C 50.171875 -56.09375 50.84375 -55.785156 51.28125 -55.421875 C 51.71875 -55.054688 52.039062 -54.515625 52.25 -53.796875 C 52.550781 -52.972656 52.703125 -51.65625 52.703125 -49.84375 L 52.703125 -6.828125 C 52.703125 -5.585938 52.664062 -4.679688 52.59375 -4.109375 C 52.519531 -3.535156 52.273438 -2.863281 51.859375 -2.09375 C 51.128906 -0.695312 49.113281 0 45.8125 0 C 43.789062 0 42.394531 -0.15625 41.625 -0.46875 C 40.851562 -0.78125 40.207031 -1.269531 39.6875 -1.9375 C 28.0625 -17.4375 20.414062 -27.566406 16.75 -32.328125 L 16.75 -6.828125 C 16.75 -5.585938 16.707031 -4.679688 16.625 -4.109375 C 16.550781 -3.535156 16.304688 -2.863281 15.890625 -2.09375 C 15.171875 -0.695312 13.15625 0 9.84375 0 C 6.632812 0 4.671875 -0.695312 3.953125 -2.09375 C 3.535156 -2.863281 3.285156 -3.554688 3.203125 -4.171875 C 3.128906 -4.796875 3.09375 -5.707031 3.09375 -6.90625 L 3.09375 -50.15625 C 3.09375 -52.113281 3.335938 -53.546875 3.828125 -54.453125 C 4.328125 -55.359375 5.066406 -55.960938 6.046875 -56.265625 C 7.023438 -56.578125 8.289062 -56.734375 9.84375 -56.734375 C 11.394531 -56.734375 12.625 -56.59375 13.53125 -56.3125 C 14.4375 -56.03125 15.066406 -55.707031 15.421875 -55.34375 C 15.628906 -55.1875 16.222656 -54.515625 17.203125 -53.328125 C 28.109375 -38.492188 35.394531 -28.703125 39.0625 -23.953125 L 39.0625 -50.15625 C 39.0625 -52.113281 39.304688 -53.546875 39.796875 -54.453125 Z M 39.796875 -54.453125 "/></g></g></g><g fill="#ffffff" fill-opacity="1"><g transform="translate(322.794404, 345.568591)"><g><path d="M 10 -56.890625 L 24.34375 -56.8125 C 31.832031 -56.8125 38.421875 -54.113281 44.109375 -48.71875 C 49.796875 -43.320312 52.640625 -36.679688 52.640625 -28.796875 C 52.640625 -20.910156 49.859375 -14.148438 44.296875 -8.515625 C 38.742188 -2.890625 32.015625 -0.078125 24.109375 -0.078125 L 9.921875 -0.078125 C 6.765625 -0.078125 4.800781 -0.722656 4.03125 -2.015625 C 3.40625 -3.097656 3.09375 -4.75 3.09375 -6.96875 L 3.09375 -50.078125 C 3.09375 -51.316406 3.128906 -52.21875 3.203125 -52.78125 C 3.285156 -53.351562 3.535156 -54.023438 3.953125 -54.796875 C 4.671875 -56.191406 6.6875 -56.890625 10 -56.890625 Z M 24.34375 -13.796875 C 28.0625 -13.796875 31.414062 -15.175781 34.40625 -17.9375 C 37.40625 -20.707031 38.90625 -24.1875 38.90625 -28.375 C 38.90625 -32.5625 37.445312 -36.0625 34.53125 -38.875 C 31.613281 -41.6875 28.191406 -43.09375 24.265625 -43.09375 L 16.828125 -43.09375 L 16.828125 -13.796875 Z M 24.34375 -13.796875 "/></g></g></g><g fill="#ffffff" fill-opacity="1"><g transform="translate(396.040117, 345.568591)"><g><path d="M 43.5625 -30.46875 C 46.613281 -26.84375 48.140625 -22.785156 48.140625 -18.296875 C 48.035156 -13.128906 46.265625 -8.800781 42.828125 -5.3125 C 39.390625 -1.820312 35.21875 -0.078125 30.3125 -0.078125 L 9.921875 -0.078125 C 6.304688 -0.078125 4.1875 -1.054688 3.5625 -3.015625 C 3.25 -3.898438 3.09375 -5.242188 3.09375 -7.046875 L 3.09375 -50.078125 C 3.09375 -51.316406 3.128906 -52.21875 3.203125 -52.78125 C 3.285156 -53.351562 3.535156 -54.023438 3.953125 -54.796875 C 4.671875 -56.191406 6.6875 -56.890625 10 -56.890625 L 29.53125 -56.890625 C 34.289062 -56.890625 38.269531 -55.238281 41.46875 -51.9375 C 44.832031 -48.570312 46.515625 -44.539062 46.515625 -39.84375 C 46.515625 -36.4375 45.53125 -33.3125 43.5625 -30.46875 Z M 34.421875 -19.0625 C 34.421875 -20.300781 34.273438 -21.28125 33.984375 -22 C 33.703125 -22.726562 33.226562 -23.25 32.5625 -23.5625 C 31.519531 -23.976562 30.066406 -24.1875 28.203125 -24.1875 C 26.347656 -24.1875 24.957031 -24.546875 24.03125 -25.265625 C 23.101562 -25.992188 22.640625 -27.476562 22.640625 -29.71875 C 22.640625 -31.96875 23.113281 -33.453125 24.0625 -34.171875 C 25.019531 -34.898438 26.609375 -35.265625 28.828125 -35.265625 C 30.898438 -35.265625 32.144531 -35.804688 32.5625 -36.890625 C 32.71875 -37.460938 32.796875 -38.394531 32.796875 -39.6875 C 32.796875 -40.976562 32.367188 -41.878906 31.515625 -42.390625 C 30.660156 -42.910156 29.378906 -43.171875 27.671875 -43.171875 L 16.828125 -43.171875 L 16.828125 -13.796875 L 29.53125 -13.796875 C 32.789062 -13.796875 34.421875 -15.550781 34.421875 -19.0625 Z M 34.421875 -19.0625 "/></g></g></g><g fill="#ffffff" fill-opacity="1"><g transform="translate(464.790531, 345.568591)"><g><path d="M 48.21875 -55.734375 C 50.75 -53.972656 52.015625 -52.269531 52.015625 -50.625 C 52.015625 -49.632812 51.421875 -48.265625 50.234375 -46.515625 L 33.484375 -21.46875 L 33.484375 -6.671875 C 33.484375 -5.484375 33.441406 -4.585938 33.359375 -3.984375 C 33.285156 -3.390625 33.039062 -2.707031 32.625 -1.9375 C 32.21875 -1.164062 31.519531 -0.625 30.53125 -0.3125 C 29.550781 0 28.234375 0.15625 26.578125 0.15625 C 24.929688 0.15625 23.613281 0 22.625 -0.3125 C 21.644531 -0.625 20.945312 -1.175781 20.53125 -1.96875 C 20.125 -2.769531 19.878906 -3.46875 19.796875 -4.0625 C 19.722656 -4.664062 19.6875 -5.585938 19.6875 -6.828125 L 19.6875 -21.46875 L 2.953125 -46.515625 C 1.753906 -48.265625 1.15625 -49.632812 1.15625 -50.625 C 1.15625 -52.269531 2.289062 -53.851562 4.5625 -55.375 C 6.84375 -56.90625 8.472656 -57.671875 9.453125 -57.671875 C 10.441406 -57.671875 11.21875 -57.460938 11.78125 -57.046875 C 12.65625 -56.484375 13.585938 -55.425781 14.578125 -53.875 L 26.59375 -34.65625 L 38.609375 -53.875 C 39.585938 -55.425781 40.4375 -56.445312 41.15625 -56.9375 C 41.882812 -57.425781 42.722656 -57.671875 43.671875 -57.671875 C 44.628906 -57.671875 46.144531 -57.023438 48.21875 -55.734375 Z M 48.21875 -55.734375 "/></g></g></g><g fill="#ffffff" fill-opacity="1"><g transform="translate(536.641168, 345.568591)"><g><path d="M 6.828125 -56.890625 L 49.921875 -56.890625 C 51.578125 -56.890625 52.789062 -56.695312 53.5625 -56.3125 C 54.332031 -55.925781 54.847656 -55.316406 55.109375 -54.484375 C 55.367188 -53.660156 55.5 -52.578125 55.5 -51.234375 C 55.5 -49.890625 55.367188 -48.816406 55.109375 -48.015625 C 54.847656 -47.210938 54.410156 -46.660156 53.796875 -46.359375 C 52.867188 -45.890625 51.550781 -45.65625 49.84375 -45.65625 L 35.03125 -45.65625 L 35.03125 -6.671875 C 35.03125 -5.484375 34.988281 -4.601562 34.90625 -4.03125 C 34.832031 -3.457031 34.601562 -2.796875 34.21875 -2.046875 C 33.832031 -1.304688 33.148438 -0.78125 32.171875 -0.46875 C 31.191406 -0.15625 29.898438 0 28.296875 0 C 26.691406 0 25.410156 -0.15625 24.453125 -0.46875 C 23.492188 -0.78125 22.820312 -1.304688 22.4375 -2.046875 C 22.050781 -2.796875 21.816406 -3.46875 21.734375 -4.0625 C 21.660156 -4.664062 21.625 -5.5625 21.625 -6.75 L 21.625 -45.65625 L 6.75 -45.65625 C 5.09375 -45.65625 3.875 -45.847656 3.09375 -46.234375 C 2.320312 -46.617188 1.804688 -47.222656 1.546875 -48.046875 C 1.285156 -48.878906 1.15625 -49.96875 1.15625 -51.3125 C 1.15625 -52.65625 1.285156 -53.726562 1.546875 -54.53125 C 1.804688 -55.332031 2.25 -55.890625 2.875 -56.203125 C 3.800781 -56.660156 5.117188 -56.890625 6.828125 -56.890625 Z M 6.828125 -56.890625 "/></g></g></g><g fill="#ffffff" fill-opacity="1"><g transform="translate(611.979556, 345.568591)"><g><path d="M 16.828125 -13.71875 L 40.703125 -13.71875 C 41.890625 -13.71875 42.78125 -13.675781 43.375 -13.59375 C 43.96875 -13.519531 44.648438 -13.28125 45.421875 -12.875 C 46.816406 -12.144531 47.515625 -10.128906 47.515625 -6.828125 C 47.515625 -3.203125 46.5625 -1.082031 44.65625 -0.46875 C 43.769531 -0.15625 42.425781 0 40.625 0 L 9.921875 0 C 6.304688 0 4.1875 -0.984375 3.5625 -2.953125 C 3.25 -3.773438 3.09375 -5.09375 3.09375 -6.90625 L 3.09375 -50 C 3.09375 -52.632812 3.582031 -54.425781 4.5625 -55.375 C 5.550781 -56.332031 7.414062 -56.8125 10.15625 -56.8125 L 40.703125 -56.8125 C 41.890625 -56.8125 42.78125 -56.773438 43.375 -56.703125 C 43.96875 -56.628906 44.648438 -56.382812 45.421875 -55.96875 C 46.816406 -55.238281 47.515625 -53.222656 47.515625 -49.921875 C 47.515625 -46.304688 46.5625 -44.1875 44.65625 -43.5625 C 43.769531 -43.25 42.425781 -43.09375 40.625 -43.09375 L 16.828125 -43.09375 L 16.828125 -35.265625 L 32.171875 -35.265625 C 33.359375 -35.265625 34.25 -35.222656 34.84375 -35.140625 C 35.4375 -35.066406 36.117188 -34.828125 36.890625 -34.421875 C 38.285156 -33.691406 38.984375 -31.675781 38.984375 -28.375 C 38.984375 -24.75 38.003906 -22.628906 36.046875 -22.015625 C 35.171875 -21.703125 33.828125 -21.546875 32.015625 -21.546875 L 16.828125 -21.546875 Z M 16.828125 -13.71875 "/></g></g></g><g fill="#ffffff" fill-opacity="1"><g transform="translate(680.109925, 345.568591)"><g><path d="M 3.953125 -7.984375 C 2.609375 -9.640625 1.9375 -11.125 1.9375 -12.4375 C 1.9375 -13.757812 3.046875 -15.503906 5.265625 -17.671875 C 6.554688 -18.910156 7.925781 -19.53125 9.375 -19.53125 C 10.820312 -19.53125 12.835938 -18.238281 15.421875 -15.65625 C 16.148438 -14.78125 17.1875 -13.941406 18.53125 -13.140625 C 19.875 -12.335938 21.113281 -11.9375 22.25 -11.9375 C 27.050781 -11.9375 29.453125 -13.898438 29.453125 -17.828125 C 29.453125 -19.015625 28.789062 -20.007812 27.46875 -20.8125 C 26.15625 -21.613281 24.515625 -22.191406 22.546875 -22.546875 C 20.585938 -22.910156 18.472656 -23.492188 16.203125 -24.296875 C 13.929688 -25.097656 11.8125 -26.039062 9.84375 -27.125 C 7.882812 -28.21875 6.242188 -29.9375 4.921875 -32.28125 C 3.609375 -34.632812 2.953125 -37.460938 2.953125 -40.765625 C 2.953125 -45.316406 4.640625 -49.285156 8.015625 -52.671875 C 11.398438 -56.054688 16.015625 -57.75 21.859375 -57.75 C 24.960938 -57.75 27.789062 -57.347656 30.34375 -56.546875 C 32.90625 -55.742188 34.675781 -54.929688 35.65625 -54.109375 L 37.59375 -52.640625 C 39.195312 -51.140625 40 -49.867188 40 -48.828125 C 40 -47.796875 39.378906 -46.378906 38.140625 -44.578125 C 36.378906 -41.992188 34.570312 -40.703125 32.71875 -40.703125 C 31.625 -40.703125 30.28125 -41.21875 28.6875 -42.25 C 28.53125 -42.351562 28.226562 -42.609375 27.78125 -43.015625 C 27.34375 -43.429688 26.945312 -43.769531 26.59375 -44.03125 C 25.5 -44.695312 24.113281 -45.03125 22.4375 -45.03125 C 20.757812 -45.03125 19.363281 -44.628906 18.25 -43.828125 C 17.144531 -43.035156 16.59375 -41.925781 16.59375 -40.5 C 16.59375 -39.082031 17.25 -37.929688 18.5625 -37.046875 C 19.882812 -36.171875 21.523438 -35.578125 23.484375 -35.265625 C 25.453125 -34.953125 27.597656 -34.472656 29.921875 -33.828125 C 32.242188 -33.179688 34.382812 -32.394531 36.34375 -31.46875 C 38.3125 -30.539062 39.953125 -28.925781 41.265625 -26.625 C 42.585938 -24.320312 43.25 -21.488281 43.25 -18.125 C 43.25 -14.769531 42.578125 -11.8125 41.234375 -9.25 C 39.890625 -6.695312 38.132812 -4.722656 35.96875 -3.328125 C 31.78125 -0.585938 27.3125 0.78125 22.5625 0.78125 C 20.125 0.78125 17.820312 0.484375 15.65625 -0.109375 C 13.488281 -0.703125 11.734375 -1.441406 10.390625 -2.328125 C 7.648438 -3.984375 5.738281 -5.582031 4.65625 -7.125 Z M 3.953125 -7.984375 "/></g></g></g></svg>