<svg xmlns="http://www.w3.org/2000/svg" xmlns:xlink="http://www.w3.org/1999/xlink" width="1080" zoomAndPan="magnify" viewBox="0 0 810 809.999993" height="1080" preserveAspectRatio="xMidYMid meet" version="1.0"><defs><g/><clipPath id="15439a0248"><path d="M 683.660156 330.820312 L 774.410156 330.820312 L 774.410156 468.070312 L 683.660156 468.070312 Z M 683.660156 330.820312 " clip-rule="nonzero"/></clipPath><clipPath id="70cdeac766"><path d="M 744.460938 331.789062 C 743.636719 331.175781 742.613281 330.820312 741.511719 330.820312 C 738.769531 330.820312 736.523438 333.058594 736.523438 335.796875 L 736.523438 377.582031 L 729.039062 377.582031 C 704.054688 377.582031 683.714844 397.886719 683.714844 422.824219 C 683.714844 447.757812 704.054688 468.070312 729.039062 468.070312 C 754.019531 468.070312 774.363281 447.765625 774.363281 422.824219 L 774.363281 405.390625 L 764.382812 405.390625 L 764.382812 422.824219 C 764.382812 442.265625 748.515625 458.105469 729.039062 458.105469 C 709.566406 458.105469 693.699219 442.265625 693.699219 422.824219 C 693.699219 403.386719 709.566406 387.546875 729.039062 387.546875 L 736.523438 387.546875 L 736.523438 405.398438 L 729.039062 405.398438 C 719.433594 405.398438 711.574219 413.242188 711.574219 422.828125 C 711.574219 432.414062 719.433594 440.265625 729.039062 440.265625 C 738.640625 440.265625 746.5 432.421875 746.5 422.828125 L 746.5 422.136719 C 746.5 401.707031 746.5 381.273438 746.5 360.84375 C 761.257812 359.074219 767.121094 373.046875 764.105469 402.761719 C 773.953125 388.425781 777.242188 368.613281 761.273438 352.730469 C 758.746094 350.210938 756.082031 347.757812 753.652344 345.257812 C 750.015625 341.515625 745.464844 332.53125 744.460938 331.789062 Z M 744.460938 331.789062 " clip-rule="evenodd"/></clipPath><linearGradient x1="209.448537" gradientTransform="matrix(0.60826, 0, 0, 0.607167, 683.709898, 330.818437)" y1="110.562024" x2="-0.492022" gradientUnits="userSpaceOnUse" y2="225.130094" id="ec1ad4c3d2"><stop stop-opacity="1" stop-color="rgb(14.169312%, 24.31488%, 99.992371%)" offset="0"/><stop stop-opacity="1" stop-color="rgb(14.482117%, 24.591064%, 99.987793%)" offset="0.00390625"/><stop stop-opacity="1" stop-color="rgb(14.794922%, 24.868774%, 99.983215%)" offset="0.0078125"/><stop stop-opacity="1" stop-color="rgb(15.107727%, 25.144958%, 99.978638%)" offset="0.0117188"/><stop stop-opacity="1" stop-color="rgb(15.420532%, 25.422668%, 99.97406%)" offset="0.015625"/><stop stop-opacity="1" stop-color="rgb(15.731812%, 25.698853%, 99.969482%)" offset="0.0195313"/><stop stop-opacity="1" stop-color="rgb(16.044617%, 25.976562%, 99.964905%)" offset="0.0234375"/><stop stop-opacity="1" stop-color="rgb(16.357422%, 26.252747%, 99.960327%)" offset="0.0273438"/><stop stop-opacity="1" stop-color="rgb(16.670227%, 26.530457%, 99.95575%)" offset="0.03125"/><stop stop-opacity="1" stop-color="rgb(16.983032%, 26.806641%, 99.951172%)" offset="0.0351563"/><stop stop-opacity="1" stop-color="rgb(17.295837%, 27.084351%, 99.946594%)" offset="0.0390625"/><stop stop-opacity="1" stop-color="rgb(17.608643%, 27.360535%, 99.942017%)" offset="0.0429688"/><stop stop-opacity="1" stop-color="rgb(17.921448%, 27.638245%, 99.937439%)" offset="0.046875"/><stop stop-opacity="1" stop-color="rgb(18.234253%, 27.914429%, 99.932861%)" offset="0.0507812"/><stop stop-opacity="1" stop-color="rgb(18.547058%, 28.192139%, 99.928284%)" offset="0.0546875"/><stop stop-opacity="1" stop-color="rgb(18.859863%, 28.468323%, 99.923706%)" offset="0.0585938"/><stop stop-opacity="1" stop-color="rgb(19.172668%, 28.746033%, 99.919128%)" offset="0.0625"/><stop stop-opacity="1" stop-color="rgb(19.485474%, 29.022217%, 99.914551%)" offset="0.0664063"/><stop stop-opacity="1" stop-color="rgb(19.798279%, 29.298401%, 99.909973%)" offset="0.0703125"/><stop stop-opacity="1" stop-color="rgb(20.111084%, 29.574585%, 99.905396%)" offset="0.0742188"/><stop stop-opacity="1" stop-color="rgb(20.423889%, 29.852295%, 99.900818%)" offset="0.078125"/><stop stop-opacity="1" stop-color="rgb(20.736694%, 30.128479%, 99.89624%)" offset="0.0820312"/><stop stop-opacity="1" stop-color="rgb(21.0495%, 30.406189%, 99.891663%)" offset="0.0859375"/><stop stop-opacity="1" stop-color="rgb(21.362305%, 30.682373%, 99.887085%)" offset="0.0898438"/><stop stop-opacity="1" stop-color="rgb(21.67511%, 30.960083%, 99.882507%)" offset="0.09375"/><stop stop-opacity="1" stop-color="rgb(21.987915%, 31.236267%, 99.87793%)" offset="0.0976563"/><stop stop-opacity="1" stop-color="rgb(22.30072%, 31.513977%, 99.873352%)" offset="0.101563"/><stop stop-opacity="1" stop-color="rgb(22.613525%, 31.790161%, 99.868774%)" offset="0.105469"/><stop stop-opacity="1" stop-color="rgb(22.926331%, 32.067871%, 99.864197%)" offset="0.109375"/><stop stop-opacity="1" stop-color="rgb(23.239136%, 32.344055%, 99.859619%)" offset="0.113281"/><stop stop-opacity="1" stop-color="rgb(23.551941%, 32.621765%, 99.855042%)" offset="0.117188"/><stop stop-opacity="1" stop-color="rgb(23.86322%, 32.897949%, 99.850464%)" offset="0.121094"/><stop stop-opacity="1" stop-color="rgb(24.176025%, 33.175659%, 99.845886%)" offset="0.125"/><stop stop-opacity="1" stop-color="rgb(24.488831%, 33.451843%, 99.841309%)" offset="0.128906"/><stop stop-opacity="1" stop-color="rgb(24.801636%, 33.729553%, 99.836731%)" offset="0.132812"/><stop stop-opacity="1" stop-color="rgb(25.114441%, 34.005737%, 99.832153%)" offset="0.136719"/><stop stop-opacity="1" stop-color="rgb(25.427246%, 34.283447%, 99.827576%)" offset="0.140625"/><stop stop-opacity="1" stop-color="rgb(25.740051%, 34.559631%, 99.822998%)" offset="0.144531"/><stop stop-opacity="1" stop-color="rgb(26.052856%, 34.837341%, 99.81842%)" offset="0.148438"/><stop stop-opacity="1" stop-color="rgb(26.365662%, 35.113525%, 99.813843%)" offset="0.152344"/><stop stop-opacity="1" stop-color="rgb(26.678467%, 35.391235%, 99.809265%)" offset="0.15625"/><stop stop-opacity="1" stop-color="rgb(26.991272%, 35.667419%, 99.804688%)" offset="0.160156"/><stop stop-opacity="1" stop-color="rgb(27.304077%, 35.945129%, 99.80011%)" offset="0.164062"/><stop stop-opacity="1" stop-color="rgb(27.616882%, 36.221313%, 99.795532%)" offset="0.167969"/><stop stop-opacity="1" stop-color="rgb(27.929688%, 36.499023%, 99.790955%)" offset="0.171875"/><stop stop-opacity="1" stop-color="rgb(28.242493%, 36.775208%, 99.786377%)" offset="0.175781"/><stop stop-opacity="1" stop-color="rgb(28.555298%, 37.052917%, 99.781799%)" offset="0.179688"/><stop stop-opacity="1" stop-color="rgb(28.868103%, 37.329102%, 99.777222%)" offset="0.183594"/><stop stop-opacity="1" stop-color="rgb(29.180908%, 37.605286%, 99.772644%)" offset="0.1875"/><stop stop-opacity="1" stop-color="rgb(29.493713%, 37.88147%, 99.768066%)" offset="0.191406"/><stop stop-opacity="1" stop-color="rgb(29.806519%, 38.15918%, 99.763489%)" offset="0.195312"/><stop stop-opacity="1" stop-color="rgb(30.119324%, 38.435364%, 99.758911%)" offset="0.199219"/><stop stop-opacity="1" stop-color="rgb(30.432129%, 38.713074%, 99.754333%)" offset="0.203125"/><stop stop-opacity="1" stop-color="rgb(30.744934%, 38.989258%, 99.749756%)" offset="0.207031"/><stop stop-opacity="1" stop-color="rgb(31.057739%, 39.266968%, 99.745178%)" offset="0.210938"/><stop stop-opacity="1" stop-color="rgb(31.370544%, 39.543152%, 99.740601%)" offset="0.214844"/><stop stop-opacity="1" stop-color="rgb(31.68335%, 39.820862%, 99.736023%)" offset="0.21875"/><stop stop-opacity="1" stop-color="rgb(31.994629%, 40.097046%, 99.731445%)" offset="0.222656"/><stop stop-opacity="1" stop-color="rgb(32.307434%, 40.374756%, 99.726868%)" offset="0.226562"/><stop stop-opacity="1" stop-color="rgb(32.620239%, 40.65094%, 99.72229%)" offset="0.230469"/><stop stop-opacity="1" stop-color="rgb(32.933044%, 40.92865%, 99.717712%)" offset="0.234375"/><stop stop-opacity="1" stop-color="rgb(33.24585%, 41.204834%, 99.713135%)" offset="0.238281"/><stop stop-opacity="1" stop-color="rgb(33.558655%, 41.482544%, 99.708557%)" offset="0.242188"/><stop stop-opacity="1" stop-color="rgb(33.87146%, 41.758728%, 99.703979%)" offset="0.246094"/><stop stop-opacity="1" stop-color="rgb(34.184265%, 42.036438%, 99.699402%)" offset="0.25"/><stop stop-opacity="1" stop-color="rgb(34.49707%, 42.312622%, 99.694824%)" offset="0.253906"/><stop stop-opacity="1" stop-color="rgb(34.809875%, 42.590332%, 99.690247%)" offset="0.257812"/><stop stop-opacity="1" stop-color="rgb(35.122681%, 42.866516%, 99.685669%)" offset="0.261719"/><stop stop-opacity="1" stop-color="rgb(35.435486%, 43.144226%, 99.681091%)" offset="0.265625"/><stop stop-opacity="1" stop-color="rgb(35.748291%, 43.42041%, 99.676514%)" offset="0.269531"/><stop stop-opacity="1" stop-color="rgb(36.061096%, 43.69812%, 99.671936%)" offset="0.273438"/><stop stop-opacity="1" stop-color="rgb(36.373901%, 43.974304%, 99.667358%)" offset="0.277344"/><stop stop-opacity="1" stop-color="rgb(36.686707%, 44.252014%, 99.662781%)" offset="0.28125"/><stop stop-opacity="1" stop-color="rgb(36.999512%, 44.528198%, 99.658203%)" offset="0.285156"/><stop stop-opacity="1" stop-color="rgb(37.312317%, 44.805908%, 99.653625%)" offset="0.289062"/><stop stop-opacity="1" stop-color="rgb(37.625122%, 45.082092%, 99.649048%)" offset="0.292969"/><stop stop-opacity="1" stop-color="rgb(37.937927%, 45.358276%, 99.64447%)" offset="0.296875"/><stop stop-opacity="1" stop-color="rgb(38.250732%, 45.63446%, 99.639893%)" offset="0.300781"/><stop stop-opacity="1" stop-color="rgb(38.563538%, 45.91217%, 99.635315%)" offset="0.304688"/><stop stop-opacity="1" stop-color="rgb(38.876343%, 46.188354%, 99.630737%)" offset="0.308594"/><stop stop-opacity="1" stop-color="rgb(39.189148%, 46.466064%, 99.62616%)" offset="0.3125"/><stop stop-opacity="1" stop-color="rgb(39.501953%, 46.742249%, 99.621582%)" offset="0.316406"/><stop stop-opacity="1" stop-color="rgb(39.814758%, 47.019958%, 99.617004%)" offset="0.320312"/><stop stop-opacity="1" stop-color="rgb(40.126038%, 47.296143%, 99.612427%)" offset="0.324219"/><stop stop-opacity="1" stop-color="rgb(40.438843%, 47.573853%, 99.607849%)" offset="0.328125"/><stop stop-opacity="1" stop-color="rgb(40.751648%, 47.850037%, 99.603271%)" offset="0.332031"/><stop stop-opacity="1" stop-color="rgb(41.064453%, 48.127747%, 99.598694%)" offset="0.335938"/><stop stop-opacity="1" stop-color="rgb(41.377258%, 48.403931%, 99.594116%)" offset="0.339844"/><stop stop-opacity="1" stop-color="rgb(41.690063%, 48.681641%, 99.589539%)" offset="0.34375"/><stop stop-opacity="1" stop-color="rgb(42.002869%, 48.957825%, 99.584961%)" offset="0.347656"/><stop stop-opacity="1" stop-color="rgb(42.315674%, 49.235535%, 99.580383%)" offset="0.351562"/><stop stop-opacity="1" stop-color="rgb(42.628479%, 49.511719%, 99.575806%)" offset="0.355469"/><stop stop-opacity="1" stop-color="rgb(42.941284%, 49.789429%, 99.571228%)" offset="0.359375"/><stop stop-opacity="1" stop-color="rgb(43.254089%, 50.065613%, 99.56665%)" offset="0.363281"/><stop stop-opacity="1" stop-color="rgb(43.566895%, 50.343323%, 99.562073%)" offset="0.367188"/><stop stop-opacity="1" stop-color="rgb(43.8797%, 50.619507%, 99.557495%)" offset="0.371094"/><stop stop-opacity="1" stop-color="rgb(44.192505%, 50.897217%, 99.552917%)" offset="0.375"/><stop stop-opacity="1" stop-color="rgb(44.50531%, 51.173401%, 99.54834%)" offset="0.378906"/><stop stop-opacity="1" stop-color="rgb(44.818115%, 51.451111%, 99.543762%)" offset="0.382812"/><stop stop-opacity="1" stop-color="rgb(45.13092%, 51.727295%, 99.539185%)" offset="0.386719"/><stop stop-opacity="1" stop-color="rgb(45.443726%, 52.005005%, 99.534607%)" offset="0.390625"/><stop stop-opacity="1" stop-color="rgb(45.756531%, 52.281189%, 99.530029%)" offset="0.394531"/><stop stop-opacity="1" stop-color="rgb(46.069336%, 52.558899%, 99.525452%)" offset="0.398438"/><stop stop-opacity="1" stop-color="rgb(46.382141%, 52.835083%, 99.520874%)" offset="0.402344"/><stop stop-opacity="1" stop-color="rgb(46.694946%, 53.112793%, 99.516296%)" offset="0.40625"/><stop stop-opacity="1" stop-color="rgb(47.007751%, 53.388977%, 99.511719%)" offset="0.410156"/><stop stop-opacity="1" stop-color="rgb(47.320557%, 53.665161%, 99.507141%)" offset="0.414062"/><stop stop-opacity="1" stop-color="rgb(47.631836%, 53.941345%, 99.502563%)" offset="0.417969"/><stop stop-opacity="1" stop-color="rgb(47.944641%, 54.219055%, 99.497986%)" offset="0.421875"/><stop stop-opacity="1" stop-color="rgb(48.257446%, 54.495239%, 99.493408%)" offset="0.425781"/><stop stop-opacity="1" stop-color="rgb(48.570251%, 54.772949%, 99.488831%)" offset="0.429688"/><stop stop-opacity="1" stop-color="rgb(48.883057%, 55.049133%, 99.484253%)" offset="0.433594"/><stop stop-opacity="1" stop-color="rgb(49.195862%, 55.326843%, 99.479675%)" offset="0.4375"/><stop stop-opacity="1" stop-color="rgb(49.508667%, 55.603027%, 99.475098%)" offset="0.441406"/><stop stop-opacity="1" stop-color="rgb(49.821472%, 55.880737%, 99.47052%)" offset="0.445312"/><stop stop-opacity="1" stop-color="rgb(50.134277%, 56.156921%, 99.465942%)" offset="0.449219"/><stop stop-opacity="1" stop-color="rgb(50.447083%, 56.434631%, 99.461365%)" offset="0.453125"/><stop stop-opacity="1" stop-color="rgb(50.759888%, 56.710815%, 99.456787%)" offset="0.457031"/><stop stop-opacity="1" stop-color="rgb(51.072693%, 56.988525%, 99.452209%)" offset="0.460938"/><stop stop-opacity="1" stop-color="rgb(51.385498%, 57.264709%, 99.447632%)" offset="0.464844"/><stop stop-opacity="1" stop-color="rgb(51.698303%, 57.542419%, 99.443054%)" offset="0.46875"/><stop stop-opacity="1" stop-color="rgb(52.011108%, 57.818604%, 99.438477%)" offset="0.472656"/><stop stop-opacity="1" stop-color="rgb(52.323914%, 58.096313%, 99.433899%)" offset="0.476562"/><stop stop-opacity="1" stop-color="rgb(52.636719%, 58.372498%, 99.429321%)" offset="0.480469"/><stop stop-opacity="1" stop-color="rgb(52.949524%, 58.650208%, 99.424744%)" offset="0.484375"/><stop stop-opacity="1" stop-color="rgb(53.262329%, 58.926392%, 99.420166%)" offset="0.488281"/><stop stop-opacity="1" stop-color="rgb(53.575134%, 59.204102%, 99.415588%)" offset="0.492188"/><stop stop-opacity="1" stop-color="rgb(53.887939%, 59.480286%, 99.411011%)" offset="0.496094"/><stop stop-opacity="1" stop-color="rgb(54.200745%, 59.757996%, 99.406433%)" offset="0.5"/><stop stop-opacity="1" stop-color="rgb(54.51355%, 60.03418%, 99.401855%)" offset="0.503906"/><stop stop-opacity="1" stop-color="rgb(54.826355%, 60.31189%, 99.397278%)" offset="0.507812"/><stop stop-opacity="1" stop-color="rgb(55.13916%, 60.588074%, 99.3927%)" offset="0.511719"/><stop stop-opacity="1" stop-color="rgb(55.451965%, 60.865784%, 99.388123%)" offset="0.515625"/><stop stop-opacity="1" stop-color="rgb(55.763245%, 61.141968%, 99.383545%)" offset="0.519531"/><stop stop-opacity="1" stop-color="rgb(56.07605%, 61.418152%, 99.378967%)" offset="0.523438"/><stop stop-opacity="1" stop-color="rgb(56.388855%, 61.694336%, 99.37439%)" offset="0.527344"/><stop stop-opacity="1" stop-color="rgb(56.70166%, 61.972046%, 99.369812%)" offset="0.53125"/><stop stop-opacity="1" stop-color="rgb(57.014465%, 62.24823%, 99.365234%)" offset="0.535156"/><stop stop-opacity="1" stop-color="rgb(57.327271%, 62.52594%, 99.360657%)" offset="0.539063"/><stop stop-opacity="1" stop-color="rgb(57.640076%, 62.802124%, 99.356079%)" offset="0.542969"/><stop stop-opacity="1" stop-color="rgb(57.952881%, 63.079834%, 99.351501%)" offset="0.546875"/><stop stop-opacity="1" stop-color="rgb(58.265686%, 63.356018%, 99.346924%)" offset="0.550781"/><stop stop-opacity="1" stop-color="rgb(58.578491%, 63.633728%, 99.342346%)" offset="0.554688"/><stop stop-opacity="1" stop-color="rgb(58.891296%, 63.909912%, 99.337769%)" offset="0.558594"/><stop stop-opacity="1" stop-color="rgb(59.204102%, 64.187622%, 99.333191%)" offset="0.5625"/><stop stop-opacity="1" stop-color="rgb(59.516907%, 64.463806%, 99.328613%)" offset="0.566406"/><stop stop-opacity="1" stop-color="rgb(59.829712%, 64.741516%, 99.324036%)" offset="0.570312"/><stop stop-opacity="1" stop-color="rgb(60.142517%, 65.0177%, 99.319458%)" offset="0.574219"/><stop stop-opacity="1" stop-color="rgb(60.455322%, 65.29541%, 99.31488%)" offset="0.578125"/><stop stop-opacity="1" stop-color="rgb(60.768127%, 65.571594%, 99.310303%)" offset="0.582031"/><stop stop-opacity="1" stop-color="rgb(61.080933%, 65.849304%, 99.305725%)" offset="0.585938"/><stop stop-opacity="1" stop-color="rgb(61.393738%, 66.125488%, 99.301147%)" offset="0.589844"/><stop stop-opacity="1" stop-color="rgb(61.706543%, 66.403198%, 99.29657%)" offset="0.59375"/><stop stop-opacity="1" stop-color="rgb(62.019348%, 66.679382%, 99.291992%)" offset="0.597656"/><stop stop-opacity="1" stop-color="rgb(62.332153%, 66.957092%, 99.287415%)" offset="0.601562"/><stop stop-opacity="1" stop-color="rgb(62.644958%, 67.233276%, 99.282837%)" offset="0.605469"/><stop stop-opacity="1" stop-color="rgb(62.957764%, 67.510986%, 99.278259%)" offset="0.609375"/><stop stop-opacity="1" stop-color="rgb(63.270569%, 67.78717%, 99.273682%)" offset="0.613281"/><stop stop-opacity="1" stop-color="rgb(63.583374%, 68.06488%, 99.269104%)" offset="0.617188"/><stop stop-opacity="1" stop-color="rgb(63.894653%, 68.341064%, 99.264526%)" offset="0.621094"/><stop stop-opacity="1" stop-color="rgb(64.207458%, 68.618774%, 99.259949%)" offset="0.625"/><stop stop-opacity="1" stop-color="rgb(64.520264%, 68.894958%, 99.255371%)" offset="0.628906"/><stop stop-opacity="1" stop-color="rgb(64.833069%, 69.172668%, 99.250793%)" offset="0.632812"/><stop stop-opacity="1" stop-color="rgb(65.145874%, 69.448853%, 99.246216%)" offset="0.636719"/><stop stop-opacity="1" stop-color="rgb(65.458679%, 69.725037%, 99.241638%)" offset="0.640625"/><stop stop-opacity="1" stop-color="rgb(65.771484%, 70.001221%, 99.237061%)" offset="0.644531"/><stop stop-opacity="1" stop-color="rgb(66.08429%, 70.278931%, 99.232483%)" offset="0.648438"/><stop stop-opacity="1" stop-color="rgb(66.397095%, 70.555115%, 99.227905%)" offset="0.652344"/><stop stop-opacity="1" stop-color="rgb(66.7099%, 70.832825%, 99.223328%)" offset="0.65625"/><stop stop-opacity="1" stop-color="rgb(67.022705%, 71.109009%, 99.21875%)" offset="0.660156"/><stop stop-opacity="1" stop-color="rgb(67.33551%, 71.386719%, 99.214172%)" offset="0.664062"/><stop stop-opacity="1" stop-color="rgb(67.648315%, 71.662903%, 99.209595%)" offset="0.667969"/><stop stop-opacity="1" stop-color="rgb(67.961121%, 71.940613%, 99.205017%)" offset="0.671875"/><stop stop-opacity="1" stop-color="rgb(68.273926%, 72.216797%, 99.200439%)" offset="0.675781"/><stop stop-opacity="1" stop-color="rgb(68.586731%, 72.494507%, 99.195862%)" offset="0.679688"/><stop stop-opacity="1" stop-color="rgb(68.899536%, 72.770691%, 99.191284%)" offset="0.683594"/><stop stop-opacity="1" stop-color="rgb(69.212341%, 73.048401%, 99.186707%)" offset="0.6875"/><stop stop-opacity="1" stop-color="rgb(69.525146%, 73.324585%, 99.182129%)" offset="0.691406"/><stop stop-opacity="1" stop-color="rgb(69.837952%, 73.602295%, 99.177551%)" offset="0.695312"/><stop stop-opacity="1" stop-color="rgb(70.150757%, 73.878479%, 99.172974%)" offset="0.699219"/><stop stop-opacity="1" stop-color="rgb(70.463562%, 74.156189%, 99.168396%)" offset="0.703125"/><stop stop-opacity="1" stop-color="rgb(70.776367%, 74.432373%, 99.163818%)" offset="0.707031"/><stop stop-opacity="1" stop-color="rgb(71.089172%, 74.710083%, 99.159241%)" offset="0.710938"/><stop stop-opacity="1" stop-color="rgb(71.401978%, 74.986267%, 99.154663%)" offset="0.714844"/><stop stop-opacity="1" stop-color="rgb(71.714783%, 75.263977%, 99.150085%)" offset="0.71875"/><stop stop-opacity="1" stop-color="rgb(72.026062%, 75.540161%, 99.145508%)" offset="0.722656"/><stop stop-opacity="1" stop-color="rgb(72.338867%, 75.817871%, 99.14093%)" offset="0.726562"/><stop stop-opacity="1" stop-color="rgb(72.651672%, 76.094055%, 99.136353%)" offset="0.730469"/><stop stop-opacity="1" stop-color="rgb(72.964478%, 76.371765%, 99.131775%)" offset="0.734375"/><stop stop-opacity="1" stop-color="rgb(73.277283%, 76.647949%, 99.127197%)" offset="0.738281"/><stop stop-opacity="1" stop-color="rgb(73.590088%, 76.925659%, 99.12262%)" offset="0.742188"/><stop stop-opacity="1" stop-color="rgb(73.902893%, 77.201843%, 99.118042%)" offset="0.746094"/><stop stop-opacity="1" stop-color="rgb(74.215698%, 77.478027%, 99.113464%)" offset="0.75"/><stop stop-opacity="1" stop-color="rgb(74.528503%, 77.754211%, 99.108887%)" offset="0.753906"/><stop stop-opacity="1" stop-color="rgb(74.841309%, 78.031921%, 99.104309%)" offset="0.757812"/><stop stop-opacity="1" stop-color="rgb(75.154114%, 78.308105%, 99.099731%)" offset="0.761719"/><stop stop-opacity="1" stop-color="rgb(75.466919%, 78.585815%, 99.095154%)" offset="0.765625"/><stop stop-opacity="1" stop-color="rgb(75.779724%, 78.862%, 99.090576%)" offset="0.769531"/><stop stop-opacity="1" stop-color="rgb(76.092529%, 79.139709%, 99.085999%)" offset="0.773438"/><stop stop-opacity="1" stop-color="rgb(76.405334%, 79.415894%, 99.081421%)" offset="0.777344"/><stop stop-opacity="1" stop-color="rgb(76.71814%, 79.693604%, 99.076843%)" offset="0.78125"/><stop stop-opacity="1" stop-color="rgb(77.030945%, 79.969788%, 99.072266%)" offset="0.785156"/><stop stop-opacity="1" stop-color="rgb(77.34375%, 80.247498%, 99.067688%)" offset="0.789062"/><stop stop-opacity="1" stop-color="rgb(77.656555%, 80.523682%, 99.06311%)" offset="0.792969"/><stop stop-opacity="1" stop-color="rgb(77.96936%, 80.801392%, 99.058533%)" offset="0.796875"/><stop stop-opacity="1" stop-color="rgb(78.282166%, 81.077576%, 99.053955%)" offset="0.800781"/><stop stop-opacity="1" stop-color="rgb(78.594971%, 81.355286%, 99.049377%)" offset="0.804688"/><stop stop-opacity="1" stop-color="rgb(78.907776%, 81.63147%, 99.0448%)" offset="0.808594"/><stop stop-opacity="1" stop-color="rgb(79.220581%, 81.90918%, 99.040222%)" offset="0.8125"/><stop stop-opacity="1" stop-color="rgb(79.533386%, 82.185364%, 99.035645%)" offset="0.816406"/><stop stop-opacity="1" stop-color="rgb(79.846191%, 82.463074%, 99.031067%)" offset="0.820312"/><stop stop-opacity="1" stop-color="rgb(80.157471%, 82.739258%, 99.026489%)" offset="0.824219"/><stop stop-opacity="1" stop-color="rgb(80.470276%, 83.016968%, 99.021912%)" offset="0.828125"/><stop stop-opacity="1" stop-color="rgb(80.783081%, 83.293152%, 99.017334%)" offset="0.832031"/><stop stop-opacity="1" stop-color="rgb(81.095886%, 83.570862%, 99.012756%)" offset="0.835938"/><stop stop-opacity="1" stop-color="rgb(81.408691%, 83.847046%, 99.008179%)" offset="0.839844"/><stop stop-opacity="1" stop-color="rgb(81.721497%, 84.124756%, 99.003601%)" offset="0.84375"/><stop stop-opacity="1" stop-color="rgb(82.034302%, 84.40094%, 98.999023%)" offset="0.847656"/><stop stop-opacity="1" stop-color="rgb(82.347107%, 84.67865%, 98.994446%)" offset="0.851562"/><stop stop-opacity="1" stop-color="rgb(82.659912%, 84.954834%, 98.989868%)" offset="0.855469"/><stop stop-opacity="1" stop-color="rgb(82.972717%, 85.232544%, 98.985291%)" offset="0.859375"/><stop stop-opacity="1" stop-color="rgb(83.285522%, 85.508728%, 98.980713%)" offset="0.863281"/><stop stop-opacity="1" stop-color="rgb(83.598328%, 85.784912%, 98.976135%)" offset="0.867188"/><stop stop-opacity="1" stop-color="rgb(83.911133%, 86.061096%, 98.971558%)" offset="0.871094"/><stop stop-opacity="1" stop-color="rgb(84.223938%, 86.338806%, 98.96698%)" offset="0.875"/><stop stop-opacity="1" stop-color="rgb(84.536743%, 86.61499%, 98.962402%)" offset="0.878906"/><stop stop-opacity="1" stop-color="rgb(84.849548%, 86.8927%, 98.957825%)" offset="0.882812"/><stop stop-opacity="1" stop-color="rgb(85.162354%, 87.168884%, 98.953247%)" offset="0.886719"/><stop stop-opacity="1" stop-color="rgb(85.475159%, 87.446594%, 98.948669%)" offset="0.890625"/><stop stop-opacity="1" stop-color="rgb(85.787964%, 87.722778%, 98.944092%)" offset="0.894531"/><stop stop-opacity="1" stop-color="rgb(86.100769%, 88.000488%, 98.939514%)" offset="0.898438"/><stop stop-opacity="1" stop-color="rgb(86.413574%, 88.276672%, 98.934937%)" offset="0.902344"/><stop stop-opacity="1" stop-color="rgb(86.726379%, 88.554382%, 98.930359%)" offset="0.90625"/><stop stop-opacity="1" stop-color="rgb(87.039185%, 88.830566%, 98.925781%)" offset="0.910156"/><stop stop-opacity="1" stop-color="rgb(87.35199%, 89.108276%, 98.921204%)" offset="0.914062"/><stop stop-opacity="1" stop-color="rgb(87.664795%, 89.38446%, 98.916626%)" offset="0.917969"/><stop stop-opacity="1" stop-color="rgb(87.9776%, 89.66217%, 98.912048%)" offset="0.921875"/><stop stop-opacity="1" stop-color="rgb(88.288879%, 89.938354%, 98.907471%)" offset="0.925781"/><stop stop-opacity="1" stop-color="rgb(88.601685%, 90.216064%, 98.902893%)" offset="0.929688"/><stop stop-opacity="1" stop-color="rgb(88.91449%, 90.492249%, 98.898315%)" offset="0.933594"/><stop stop-opacity="1" stop-color="rgb(89.227295%, 90.769958%, 98.893738%)" offset="0.9375"/><stop stop-opacity="1" stop-color="rgb(89.5401%, 91.046143%, 98.88916%)" offset="0.941406"/><stop stop-opacity="1" stop-color="rgb(89.852905%, 91.323853%, 98.884583%)" offset="0.945312"/><stop stop-opacity="1" stop-color="rgb(90.16571%, 91.600037%, 98.880005%)" offset="0.949219"/><stop stop-opacity="1" stop-color="rgb(90.478516%, 91.877747%, 98.875427%)" offset="0.953125"/><stop stop-opacity="1" stop-color="rgb(90.791321%, 92.153931%, 98.87085%)" offset="0.957031"/><stop stop-opacity="1" stop-color="rgb(91.104126%, 92.431641%, 98.866272%)" offset="0.960937"/><stop stop-opacity="1" stop-color="rgb(91.416931%, 92.707825%, 98.861694%)" offset="0.964844"/><stop stop-opacity="1" stop-color="rgb(91.729736%, 92.985535%, 98.857117%)" offset="0.96875"/><stop stop-opacity="1" stop-color="rgb(92.042542%, 93.261719%, 98.852539%)" offset="0.972656"/><stop stop-opacity="1" stop-color="rgb(92.355347%, 93.537903%, 98.847961%)" offset="0.976562"/><stop stop-opacity="1" stop-color="rgb(92.668152%, 93.814087%, 98.843384%)" offset="0.980469"/><stop stop-opacity="1" stop-color="rgb(92.980957%, 94.091797%, 98.838806%)" offset="0.984375"/><stop stop-opacity="1" stop-color="rgb(93.293762%, 94.367981%, 98.834229%)" offset="0.988281"/><stop stop-opacity="1" stop-color="rgb(93.606567%, 94.645691%, 98.829651%)" offset="0.992188"/><stop stop-opacity="1" stop-color="rgb(93.919373%, 94.921875%, 98.825073%)" offset="0.996094"/><stop stop-opacity="1" stop-color="rgb(94.232178%, 95.199585%, 98.820496%)" offset="1"/></linearGradient></defs><g clip-path="url(#15439a0248)"><g clip-path="url(#70cdeac766)"><path fill="url(#ec1ad4c3d2)" d="M 683.714844 330.820312 L 683.714844 468.070312 L 774.410156 468.070312 L 774.410156 330.820312 Z M 683.714844 330.820312 " fill-rule="nonzero"/></g></g><g fill="#ffffff" fill-opacity="1"><g transform="translate(37.527416, 450.28403)"><g><path d="M 3.859375 -7.796875 C 2.546875 -9.410156 1.890625 -10.859375 1.890625 -12.140625 C 1.890625 -13.429688 2.972656 -15.140625 5.140625 -17.265625 C 6.410156 -18.472656 7.75 -19.078125 9.15625 -19.078125 C 10.570312 -19.078125 12.539062 -17.816406 15.0625 -15.296875 C 15.769531 -14.429688 16.78125 -13.609375 18.09375 -12.828125 C 19.40625 -12.046875 20.617188 -11.65625 21.734375 -11.65625 C 26.421875 -11.65625 28.765625 -13.570312 28.765625 -17.40625 C 28.765625 -18.570312 28.117188 -19.546875 26.828125 -20.328125 C 25.546875 -21.109375 23.945312 -21.675781 22.03125 -22.03125 C 20.113281 -22.382812 18.039062 -22.953125 15.8125 -23.734375 C 13.59375 -24.515625 11.523438 -25.429688 9.609375 -26.484375 C 7.691406 -27.546875 6.085938 -29.222656 4.796875 -31.515625 C 3.515625 -33.816406 2.875 -36.582031 2.875 -39.8125 C 2.875 -44.257812 4.523438 -48.132812 7.828125 -51.4375 C 11.140625 -54.75 15.644531 -56.40625 21.34375 -56.40625 C 24.375 -56.40625 27.140625 -56.007812 29.640625 -55.21875 C 32.140625 -54.4375 33.867188 -53.644531 34.828125 -52.84375 L 36.71875 -51.40625 C 38.28125 -49.9375 39.0625 -48.695312 39.0625 -47.6875 C 39.0625 -46.675781 38.457031 -45.289062 37.25 -43.53125 C 35.53125 -41.007812 33.765625 -39.75 31.953125 -39.75 C 30.890625 -39.75 29.578125 -40.253906 28.015625 -41.265625 C 27.859375 -41.359375 27.566406 -41.609375 27.140625 -42.015625 C 26.710938 -42.421875 26.320312 -42.75 25.96875 -43 C 24.90625 -43.65625 23.550781 -43.984375 21.90625 -43.984375 C 20.269531 -43.984375 18.910156 -43.59375 17.828125 -42.8125 C 16.742188 -42.03125 16.203125 -40.941406 16.203125 -39.546875 C 16.203125 -38.160156 16.84375 -37.039062 18.125 -36.1875 C 19.414062 -35.332031 21.019531 -34.75 22.9375 -34.4375 C 24.851562 -34.132812 26.945312 -33.664062 29.21875 -33.03125 C 31.488281 -32.40625 33.582031 -31.640625 35.5 -30.734375 C 37.414062 -29.828125 39.019531 -28.25 40.3125 -26 C 41.601562 -23.757812 42.25 -21 42.25 -17.71875 C 42.25 -14.4375 41.59375 -11.546875 40.28125 -9.046875 C 38.96875 -6.546875 37.25 -4.613281 35.125 -3.25 C 31.039062 -0.582031 26.675781 0.75 22.03125 0.75 C 19.65625 0.75 17.40625 0.460938 15.28125 -0.109375 C 13.164062 -0.691406 11.453125 -1.410156 10.140625 -2.265625 C 7.460938 -3.878906 5.597656 -5.445312 4.546875 -6.96875 Z M 3.859375 -7.796875 "/></g></g></g><g fill="#ffffff" fill-opacity="1"><g transform="translate(99.898594, 450.28403)"><g><path d="M 29.0625 -56.171875 C 36.539062 -56.171875 43.03125 -53.46875 48.53125 -48.0625 C 54.03125 -42.664062 56.78125 -35.96875 56.78125 -27.96875 C 56.78125 -19.96875 54.15625 -13.15625 48.90625 -7.53125 C 43.65625 -1.90625 37.191406 0.90625 29.515625 0.90625 C 21.847656 0.90625 15.328125 -1.867188 9.953125 -7.421875 C 4.578125 -12.972656 1.890625 -19.582031 1.890625 -27.25 C 1.890625 -31.4375 2.644531 -35.359375 4.15625 -39.015625 C 5.675781 -42.679688 7.695312 -45.75 10.21875 -48.21875 C 12.738281 -50.695312 15.640625 -52.640625 18.921875 -54.046875 C 22.203125 -55.460938 25.582031 -56.171875 29.0625 -56.171875 Z M 15.296875 -27.625 C 15.296875 -23.132812 16.742188 -19.488281 19.640625 -16.6875 C 22.546875 -13.882812 25.789062 -12.484375 29.375 -12.484375 C 32.957031 -12.484375 36.1875 -13.847656 39.0625 -16.578125 C 41.9375 -19.304688 43.375 -22.960938 43.375 -27.546875 C 43.375 -32.140625 41.921875 -35.820312 39.015625 -38.59375 C 36.117188 -41.375 32.878906 -42.765625 29.296875 -42.765625 C 25.710938 -42.765625 22.484375 -41.363281 19.609375 -38.5625 C 16.734375 -35.769531 15.296875 -32.125 15.296875 -27.625 Z M 15.296875 -27.625 "/></g></g></g><g fill="#ffffff" fill-opacity="1"><g transform="translate(176.802521, 450.28403)"><g><path d="M 39.28125 -53.4375 C 39.789062 -54.25 40.523438 -54.804688 41.484375 -55.109375 C 42.441406 -55.410156 43.640625 -55.5625 45.078125 -55.5625 C 46.515625 -55.5625 47.660156 -55.4375 48.515625 -55.1875 C 49.378906 -54.9375 50.035156 -54.632812 50.484375 -54.28125 C 50.941406 -53.925781 51.273438 -53.394531 51.484375 -52.6875 C 51.785156 -51.832031 51.9375 -50.519531 51.9375 -48.75 L 51.9375 -25.890625 C 51.9375 -19.222656 49.863281 -13.164062 45.71875 -7.71875 C 43.707031 -5.144531 41.109375 -3.0625 37.921875 -1.46875 C 34.742188 0.113281 31.222656 0.90625 27.359375 0.90625 C 23.503906 0.90625 20 0.0976562 16.84375 -1.515625 C 13.6875 -3.128906 11.125 -5.25 9.15625 -7.875 C 5.070312 -13.21875 3.03125 -19.273438 3.03125 -26.046875 L 3.03125 -48.828125 C 3.03125 -50.035156 3.066406 -50.929688 3.140625 -51.515625 C 3.210938 -52.097656 3.453125 -52.765625 3.859375 -53.515625 C 4.265625 -54.273438 4.945312 -54.804688 5.90625 -55.109375 C 6.863281 -55.410156 8.148438 -55.5625 9.765625 -55.5625 C 11.378906 -55.5625 12.664062 -55.410156 13.625 -55.109375 C 14.582031 -54.804688 15.238281 -54.273438 15.59375 -53.515625 C 16.195312 -52.359375 16.5 -50.769531 16.5 -48.75 L 16.5 -26.046875 C 16.5 -22.960938 17.257812 -20.035156 18.78125 -17.265625 C 19.53125 -15.847656 20.660156 -14.707031 22.171875 -13.84375 C 23.691406 -12.988281 25.488281 -12.5625 27.5625 -12.5625 C 31.238281 -12.5625 33.984375 -13.925781 35.796875 -16.65625 C 37.617188 -19.382812 38.53125 -22.539062 38.53125 -26.125 L 38.53125 -49.28125 C 38.53125 -51.25 38.78125 -52.632812 39.28125 -53.4375 Z M 39.28125 -53.4375 "/></g></g></g><g fill="#ffffff" fill-opacity="1"><g transform="translate(249.997566, 450.28403)"><g><path d="M 38.875 -53.171875 C 39.351562 -54.054688 40.070312 -54.648438 41.03125 -54.953125 C 41.988281 -55.265625 43.1875 -55.421875 44.625 -55.421875 C 46.0625 -55.421875 47.222656 -55.289062 48.109375 -55.03125 C 48.992188 -54.78125 49.648438 -54.476562 50.078125 -54.125 C 50.503906 -53.769531 50.820312 -53.238281 51.03125 -52.53125 C 51.332031 -51.726562 51.484375 -50.441406 51.484375 -48.671875 L 51.484375 -6.65625 C 51.484375 -5.445312 51.441406 -4.5625 51.359375 -4 C 51.285156 -3.445312 51.046875 -2.796875 50.640625 -2.046875 C 49.929688 -0.679688 47.960938 0 44.734375 0 C 42.765625 0 41.398438 -0.148438 40.640625 -0.453125 C 39.890625 -0.753906 39.265625 -1.234375 38.765625 -1.890625 C 27.410156 -17.035156 19.941406 -26.925781 16.359375 -31.5625 L 16.359375 -6.65625 C 16.359375 -5.445312 16.316406 -4.5625 16.234375 -4 C 16.160156 -3.445312 15.921875 -2.796875 15.515625 -2.046875 C 14.804688 -0.679688 12.835938 0 9.609375 0 C 6.484375 0 4.566406 -0.679688 3.859375 -2.046875 C 3.453125 -2.796875 3.210938 -3.472656 3.140625 -4.078125 C 3.066406 -4.691406 3.03125 -5.578125 3.03125 -6.734375 L 3.03125 -48.984375 C 3.03125 -50.898438 3.269531 -52.296875 3.75 -53.171875 C 4.226562 -54.054688 4.945312 -54.648438 5.90625 -54.953125 C 6.863281 -55.265625 8.097656 -55.421875 9.609375 -55.421875 C 11.128906 -55.421875 12.328125 -55.28125 13.203125 -55 C 14.085938 -54.71875 14.707031 -54.398438 15.0625 -54.046875 C 15.269531 -53.898438 15.851562 -53.242188 16.8125 -52.078125 C 27.457031 -37.597656 34.570312 -28.035156 38.15625 -23.390625 L 38.15625 -48.984375 C 38.15625 -50.898438 38.394531 -52.296875 38.875 -53.171875 Z M 38.875 -53.171875 "/></g></g></g><g fill="#ffffff" fill-opacity="1"><g transform="translate(322.738476, 450.28403)"><g><path d="M 9.765625 -55.5625 L 23.765625 -55.484375 C 31.085938 -55.484375 37.523438 -52.847656 43.078125 -47.578125 C 48.628906 -42.304688 51.40625 -35.820312 51.40625 -28.125 C 51.40625 -20.425781 48.691406 -13.828125 43.265625 -8.328125 C 37.835938 -2.828125 31.265625 -0.078125 23.546875 -0.078125 L 9.6875 -0.078125 C 6.613281 -0.078125 4.695312 -0.707031 3.9375 -1.96875 C 3.332031 -3.03125 3.03125 -4.644531 3.03125 -6.8125 L 3.03125 -48.90625 C 3.03125 -50.113281 3.066406 -50.992188 3.140625 -51.546875 C 3.210938 -52.109375 3.453125 -52.765625 3.859375 -53.515625 C 4.566406 -54.878906 6.535156 -55.5625 9.765625 -55.5625 Z M 23.765625 -13.46875 C 27.398438 -13.46875 30.679688 -14.816406 33.609375 -17.515625 C 36.535156 -20.222656 38 -23.617188 38 -27.703125 C 38 -31.796875 36.570312 -35.21875 33.71875 -37.96875 C 30.875 -40.71875 27.53125 -42.09375 23.6875 -42.09375 L 16.421875 -42.09375 L 16.421875 -13.46875 Z M 23.765625 -13.46875 "/></g></g></g><g fill="#ffffff" fill-opacity="1"><g transform="translate(394.268304, 450.28403)"><g><path d="M 42.546875 -29.75 C 45.523438 -26.21875 47.015625 -22.253906 47.015625 -17.859375 C 46.910156 -12.816406 45.179688 -8.59375 41.828125 -5.1875 C 38.472656 -1.78125 34.394531 -0.078125 29.59375 -0.078125 L 9.6875 -0.078125 C 6.15625 -0.078125 4.085938 -1.035156 3.484375 -2.953125 C 3.179688 -3.804688 3.03125 -5.117188 3.03125 -6.890625 L 3.03125 -48.90625 C 3.03125 -50.113281 3.066406 -50.992188 3.140625 -51.546875 C 3.210938 -52.109375 3.453125 -52.765625 3.859375 -53.515625 C 4.566406 -54.878906 6.535156 -55.5625 9.765625 -55.5625 L 28.84375 -55.5625 C 33.488281 -55.5625 37.375 -53.945312 40.5 -50.71875 C 43.78125 -47.4375 45.421875 -43.5 45.421875 -38.90625 C 45.421875 -35.582031 44.460938 -32.53125 42.546875 -29.75 Z M 33.609375 -18.625 C 33.609375 -19.832031 33.46875 -20.789062 33.1875 -21.5 C 32.914062 -22.207031 32.453125 -22.710938 31.796875 -23.015625 C 30.785156 -23.421875 29.367188 -23.625 27.546875 -23.625 C 25.734375 -23.625 24.375 -23.972656 23.46875 -24.671875 C 22.5625 -25.378906 22.109375 -26.832031 22.109375 -29.03125 C 22.109375 -31.226562 22.570312 -32.675781 23.5 -33.375 C 24.4375 -34.082031 25.988281 -34.4375 28.15625 -34.4375 C 30.175781 -34.4375 31.390625 -34.96875 31.796875 -36.03125 C 31.941406 -36.59375 32.015625 -37.503906 32.015625 -38.765625 C 32.015625 -40.023438 31.597656 -40.90625 30.765625 -41.40625 C 29.941406 -41.914062 28.695312 -42.171875 27.03125 -42.171875 L 16.421875 -42.171875 L 16.421875 -13.46875 L 28.84375 -13.46875 C 32.019531 -13.46875 33.609375 -15.1875 33.609375 -18.625 Z M 33.609375 -18.625 "/></g></g></g><g fill="#ffffff" fill-opacity="1"><g transform="translate(461.40804, 450.28403)"><g><path d="M 47.09375 -54.4375 C 49.5625 -52.71875 50.796875 -51.050781 50.796875 -49.4375 C 50.796875 -48.476562 50.21875 -47.140625 49.0625 -45.421875 L 32.703125 -20.96875 L 32.703125 -6.515625 C 32.703125 -5.347656 32.664062 -4.472656 32.59375 -3.890625 C 32.519531 -3.316406 32.28125 -2.648438 31.875 -1.890625 C 31.46875 -1.128906 30.785156 -0.597656 29.828125 -0.296875 C 28.867188 0.00390625 27.582031 0.15625 25.96875 0.15625 C 24.351562 0.15625 23.066406 0.00390625 22.109375 -0.296875 C 21.148438 -0.597656 20.46875 -1.140625 20.0625 -1.921875 C 19.65625 -2.710938 19.414062 -3.394531 19.34375 -3.96875 C 19.269531 -4.550781 19.234375 -5.445312 19.234375 -6.65625 L 19.234375 -20.96875 L 2.875 -45.421875 C 1.71875 -47.140625 1.140625 -48.476562 1.140625 -49.4375 C 1.140625 -51.050781 2.25 -52.601562 4.46875 -54.09375 C 6.6875 -55.582031 8.273438 -56.328125 9.234375 -56.328125 C 10.191406 -56.328125 10.945312 -56.125 11.5 -55.71875 C 12.363281 -55.164062 13.273438 -54.128906 14.234375 -52.609375 L 25.96875 -33.84375 L 37.703125 -52.609375 C 38.660156 -54.128906 39.492188 -55.128906 40.203125 -55.609375 C 40.910156 -56.085938 41.726562 -56.328125 42.65625 -56.328125 C 43.59375 -56.328125 45.070312 -55.695312 47.09375 -54.4375 Z M 47.09375 -54.4375 "/></g></g></g><g fill="#ffffff" fill-opacity="1"><g transform="translate(531.575426, 450.28403)"><g><path d="M 6.65625 -55.5625 L 48.75 -55.5625 C 50.363281 -55.5625 51.550781 -55.375 52.3125 -55 C 53.070312 -54.625 53.578125 -54.03125 53.828125 -53.21875 C 54.078125 -52.414062 54.203125 -51.359375 54.203125 -50.046875 C 54.203125 -48.734375 54.078125 -47.679688 53.828125 -46.890625 C 53.578125 -46.109375 53.144531 -45.566406 52.53125 -45.265625 C 51.625 -44.816406 50.335938 -44.59375 48.671875 -44.59375 L 34.21875 -44.59375 L 34.21875 -6.515625 C 34.21875 -5.347656 34.175781 -4.488281 34.09375 -3.9375 C 34.019531 -3.382812 33.796875 -2.738281 33.421875 -2 C 33.046875 -1.269531 32.378906 -0.753906 31.421875 -0.453125 C 30.460938 -0.148438 29.195312 0 27.625 0 C 26.0625 0 24.8125 -0.148438 23.875 -0.453125 C 22.945312 -0.753906 22.289062 -1.269531 21.90625 -2 C 21.53125 -2.738281 21.304688 -3.394531 21.234375 -3.96875 C 21.160156 -4.550781 21.125 -5.425781 21.125 -6.59375 L 21.125 -44.59375 L 6.59375 -44.59375 C 4.96875 -44.59375 3.773438 -44.78125 3.015625 -45.15625 C 2.265625 -45.53125 1.765625 -46.117188 1.515625 -46.921875 C 1.265625 -47.734375 1.140625 -48.796875 1.140625 -50.109375 C 1.140625 -51.421875 1.265625 -52.46875 1.515625 -53.25 C 1.765625 -54.039062 2.191406 -54.585938 2.796875 -54.890625 C 3.703125 -55.335938 4.988281 -55.5625 6.65625 -55.5625 Z M 6.65625 -55.5625 "/></g></g></g><g fill="#ffffff" fill-opacity="1"><g transform="translate(605.148939, 450.28403)"><g><path d="M 16.421875 -13.40625 L 39.75 -13.40625 C 40.90625 -13.40625 41.769531 -13.363281 42.34375 -13.28125 C 42.925781 -13.207031 43.597656 -12.96875 44.359375 -12.5625 C 45.722656 -11.851562 46.40625 -9.882812 46.40625 -6.65625 C 46.40625 -3.125 45.472656 -1.054688 43.609375 -0.453125 C 42.742188 -0.148438 41.429688 0 39.671875 0 L 9.6875 0 C 6.15625 0 4.085938 -0.957031 3.484375 -2.875 C 3.179688 -3.6875 3.03125 -4.972656 3.03125 -6.734375 L 3.03125 -48.828125 C 3.03125 -51.398438 3.507812 -53.148438 4.46875 -54.078125 C 5.425781 -55.015625 7.242188 -55.484375 9.921875 -55.484375 L 39.75 -55.484375 C 40.90625 -55.484375 41.769531 -55.445312 42.34375 -55.375 C 42.925781 -55.300781 43.597656 -55.0625 44.359375 -54.65625 C 45.722656 -53.945312 46.40625 -51.976562 46.40625 -48.75 C 46.40625 -45.21875 45.472656 -43.148438 43.609375 -42.546875 C 42.742188 -42.242188 41.429688 -42.09375 39.671875 -42.09375 L 16.421875 -42.09375 L 16.421875 -34.4375 L 31.421875 -34.4375 C 32.578125 -34.4375 33.445312 -34.398438 34.03125 -34.328125 C 34.613281 -34.253906 35.28125 -34.015625 36.03125 -33.609375 C 37.394531 -32.898438 38.078125 -30.929688 38.078125 -27.703125 C 38.078125 -24.171875 37.117188 -22.101562 35.203125 -21.5 C 34.347656 -21.195312 33.035156 -21.046875 31.265625 -21.046875 L 16.421875 -21.046875 Z M 16.421875 -13.40625 "/></g></g></g></svg>