<svg xmlns="http://www.w3.org/2000/svg" xmlns:xlink="http://www.w3.org/1999/xlink" width="940" zoomAndPan="magnify" viewBox="0 0 705 591.000005" height="788" preserveAspectRatio="xMidYMid meet" version="1.0"><defs><g/><clipPath id="e1ef53be02"><path d="M 609.132812 245.777344 L 681.761719 245.777344 L 681.761719 355.839844 L 609.132812 355.839844 Z M 609.132812 245.777344 " clip-rule="nonzero"/></clipPath><clipPath id="905e3d00be"><path d="M 657.796875 246.554688 C 657.132812 246.0625 656.316406 245.777344 655.433594 245.777344 C 653.238281 245.777344 651.441406 247.574219 651.441406 249.769531 L 651.441406 283.277344 L 645.449219 283.277344 C 625.457031 283.277344 609.179688 299.558594 609.179688 319.558594 C 609.179688 339.554688 625.457031 355.839844 645.449219 355.839844 C 665.441406 355.839844 681.726562 339.558594 681.726562 319.558594 L 681.726562 305.578125 L 673.738281 305.578125 L 673.738281 319.558594 C 673.738281 335.148438 661.039062 347.851562 645.449219 347.851562 C 629.867188 347.851562 617.167969 335.148438 617.167969 319.558594 C 617.167969 303.972656 629.867188 291.269531 645.449219 291.269531 L 651.441406 291.269531 L 651.441406 305.582031 L 645.449219 305.582031 C 637.761719 305.582031 631.472656 311.875 631.472656 319.5625 C 631.472656 327.25 637.761719 333.546875 645.449219 333.546875 C 653.136719 333.546875 659.425781 327.253906 659.425781 319.5625 L 659.425781 319.007812 C 659.425781 302.621094 659.425781 286.238281 659.425781 269.855469 C 671.234375 268.4375 675.929688 279.640625 673.515625 303.46875 C 681.394531 291.972656 684.027344 276.085938 671.25 263.347656 C 669.226562 261.328125 667.09375 259.359375 665.152344 257.355469 C 662.238281 254.355469 658.597656 247.148438 657.796875 246.554688 Z M 657.796875 246.554688 " clip-rule="evenodd"/></clipPath><linearGradient x1="209.447016" gradientTransform="matrix(0.486803, 0, 0, 0.4869, 609.173608, 245.776696)" y1="110.562853" x2="-0.49202" gradientUnits="userSpaceOnUse" y2="225.130093" id="c829a41a37"><stop stop-opacity="1" stop-color="rgb(14.169312%, 24.31488%, 99.992371%)" offset="0"/><stop stop-opacity="1" stop-color="rgb(14.482117%, 24.591064%, 99.987793%)" offset="0.00390625"/><stop stop-opacity="1" stop-color="rgb(14.794922%, 24.868774%, 99.983215%)" offset="0.0078125"/><stop stop-opacity="1" stop-color="rgb(15.107727%, 25.144958%, 99.978638%)" offset="0.0117188"/><stop stop-opacity="1" stop-color="rgb(15.420532%, 25.422668%, 99.97406%)" offset="0.015625"/><stop stop-opacity="1" stop-color="rgb(15.733337%, 25.698853%, 99.969482%)" offset="0.0195312"/><stop stop-opacity="1" stop-color="rgb(16.046143%, 25.976562%, 99.964905%)" offset="0.0234375"/><stop stop-opacity="1" stop-color="rgb(16.358948%, 26.252747%, 99.960327%)" offset="0.0273437"/><stop stop-opacity="1" stop-color="rgb(16.671753%, 26.530457%, 99.95575%)" offset="0.03125"/><stop stop-opacity="1" stop-color="rgb(16.984558%, 26.806641%, 99.951172%)" offset="0.0351562"/><stop stop-opacity="1" stop-color="rgb(17.297363%, 27.084351%, 99.946594%)" offset="0.0390625"/><stop stop-opacity="1" stop-color="rgb(17.610168%, 27.360535%, 99.942017%)" offset="0.0429688"/><stop stop-opacity="1" stop-color="rgb(17.922974%, 27.638245%, 99.937439%)" offset="0.046875"/><stop stop-opacity="1" stop-color="rgb(18.235779%, 27.914429%, 99.932861%)" offset="0.0507812"/><stop stop-opacity="1" stop-color="rgb(18.548584%, 28.192139%, 99.928284%)" offset="0.0546875"/><stop stop-opacity="1" stop-color="rgb(18.859863%, 28.468323%, 99.923706%)" offset="0.0585937"/><stop stop-opacity="1" stop-color="rgb(19.172668%, 28.746033%, 99.919128%)" offset="0.0625"/><stop stop-opacity="1" stop-color="rgb(19.485474%, 29.022217%, 99.914551%)" offset="0.0664062"/><stop stop-opacity="1" stop-color="rgb(19.798279%, 29.299927%, 99.909973%)" offset="0.0703125"/><stop stop-opacity="1" stop-color="rgb(20.111084%, 29.576111%, 99.905396%)" offset="0.0742188"/><stop stop-opacity="1" stop-color="rgb(20.423889%, 29.853821%, 99.900818%)" offset="0.078125"/><stop stop-opacity="1" stop-color="rgb(20.736694%, 30.130005%, 99.89624%)" offset="0.0820312"/><stop stop-opacity="1" stop-color="rgb(21.0495%, 30.407715%, 99.891663%)" offset="0.0859375"/><stop stop-opacity="1" stop-color="rgb(21.362305%, 30.683899%, 99.887085%)" offset="0.0898438"/><stop stop-opacity="1" stop-color="rgb(21.67511%, 30.961609%, 99.882507%)" offset="0.09375"/><stop stop-opacity="1" stop-color="rgb(21.987915%, 31.237793%, 99.87793%)" offset="0.0976562"/><stop stop-opacity="1" stop-color="rgb(22.30072%, 31.515503%, 99.873352%)" offset="0.101562"/><stop stop-opacity="1" stop-color="rgb(22.613525%, 31.791687%, 99.868774%)" offset="0.105469"/><stop stop-opacity="1" stop-color="rgb(22.926331%, 32.067871%, 99.864197%)" offset="0.109375"/><stop stop-opacity="1" stop-color="rgb(23.239136%, 32.344055%, 99.859619%)" offset="0.113281"/><stop stop-opacity="1" stop-color="rgb(23.551941%, 32.621765%, 99.855042%)" offset="0.117187"/><stop stop-opacity="1" stop-color="rgb(23.864746%, 32.897949%, 99.850464%)" offset="0.121094"/><stop stop-opacity="1" stop-color="rgb(24.177551%, 33.175659%, 99.845886%)" offset="0.125"/><stop stop-opacity="1" stop-color="rgb(24.490356%, 33.451843%, 99.841309%)" offset="0.128906"/><stop stop-opacity="1" stop-color="rgb(24.803162%, 33.729553%, 99.836731%)" offset="0.132812"/><stop stop-opacity="1" stop-color="rgb(25.115967%, 34.005737%, 99.832153%)" offset="0.136719"/><stop stop-opacity="1" stop-color="rgb(25.428772%, 34.283447%, 99.827576%)" offset="0.140625"/><stop stop-opacity="1" stop-color="rgb(25.741577%, 34.559631%, 99.822998%)" offset="0.144531"/><stop stop-opacity="1" stop-color="rgb(26.054382%, 34.837341%, 99.81842%)" offset="0.148437"/><stop stop-opacity="1" stop-color="rgb(26.365662%, 35.113525%, 99.813843%)" offset="0.152344"/><stop stop-opacity="1" stop-color="rgb(26.678467%, 35.391235%, 99.809265%)" offset="0.15625"/><stop stop-opacity="1" stop-color="rgb(26.991272%, 35.667419%, 99.804688%)" offset="0.160156"/><stop stop-opacity="1" stop-color="rgb(27.304077%, 35.945129%, 99.80011%)" offset="0.164062"/><stop stop-opacity="1" stop-color="rgb(27.616882%, 36.221313%, 99.795532%)" offset="0.167969"/><stop stop-opacity="1" stop-color="rgb(27.929688%, 36.499023%, 99.790955%)" offset="0.171875"/><stop stop-opacity="1" stop-color="rgb(28.242493%, 36.775208%, 99.786377%)" offset="0.175781"/><stop stop-opacity="1" stop-color="rgb(28.555298%, 37.052917%, 99.781799%)" offset="0.179688"/><stop stop-opacity="1" stop-color="rgb(28.868103%, 37.329102%, 99.777222%)" offset="0.183594"/><stop stop-opacity="1" stop-color="rgb(29.180908%, 37.606812%, 99.772644%)" offset="0.1875"/><stop stop-opacity="1" stop-color="rgb(29.493713%, 37.882996%, 99.768066%)" offset="0.191406"/><stop stop-opacity="1" stop-color="rgb(29.806519%, 38.160706%, 99.763489%)" offset="0.195312"/><stop stop-opacity="1" stop-color="rgb(30.119324%, 38.43689%, 99.758911%)" offset="0.199219"/><stop stop-opacity="1" stop-color="rgb(30.432129%, 38.7146%, 99.754333%)" offset="0.203125"/><stop stop-opacity="1" stop-color="rgb(30.744934%, 38.990784%, 99.749756%)" offset="0.207031"/><stop stop-opacity="1" stop-color="rgb(31.057739%, 39.268494%, 99.745178%)" offset="0.210938"/><stop stop-opacity="1" stop-color="rgb(31.370544%, 39.544678%, 99.740601%)" offset="0.214844"/><stop stop-opacity="1" stop-color="rgb(31.68335%, 39.820862%, 99.736023%)" offset="0.21875"/><stop stop-opacity="1" stop-color="rgb(31.996155%, 40.097046%, 99.731445%)" offset="0.222656"/><stop stop-opacity="1" stop-color="rgb(32.30896%, 40.374756%, 99.726868%)" offset="0.226562"/><stop stop-opacity="1" stop-color="rgb(32.621765%, 40.65094%, 99.72229%)" offset="0.230469"/><stop stop-opacity="1" stop-color="rgb(32.93457%, 40.92865%, 99.717712%)" offset="0.234375"/><stop stop-opacity="1" stop-color="rgb(33.247375%, 41.204834%, 99.713135%)" offset="0.238281"/><stop stop-opacity="1" stop-color="rgb(33.560181%, 41.482544%, 99.708557%)" offset="0.242188"/><stop stop-opacity="1" stop-color="rgb(33.87146%, 41.758728%, 99.703979%)" offset="0.246094"/><stop stop-opacity="1" stop-color="rgb(34.184265%, 42.036438%, 99.699402%)" offset="0.25"/><stop stop-opacity="1" stop-color="rgb(34.49707%, 42.312622%, 99.694824%)" offset="0.253906"/><stop stop-opacity="1" stop-color="rgb(34.809875%, 42.590332%, 99.690247%)" offset="0.257813"/><stop stop-opacity="1" stop-color="rgb(35.122681%, 42.866516%, 99.685669%)" offset="0.261719"/><stop stop-opacity="1" stop-color="rgb(35.435486%, 43.144226%, 99.681091%)" offset="0.265625"/><stop stop-opacity="1" stop-color="rgb(35.748291%, 43.42041%, 99.676514%)" offset="0.269531"/><stop stop-opacity="1" stop-color="rgb(36.061096%, 43.69812%, 99.671936%)" offset="0.273438"/><stop stop-opacity="1" stop-color="rgb(36.373901%, 43.974304%, 99.667358%)" offset="0.277344"/><stop stop-opacity="1" stop-color="rgb(36.686707%, 44.252014%, 99.662781%)" offset="0.28125"/><stop stop-opacity="1" stop-color="rgb(36.999512%, 44.528198%, 99.658203%)" offset="0.285156"/><stop stop-opacity="1" stop-color="rgb(37.312317%, 44.805908%, 99.653625%)" offset="0.289063"/><stop stop-opacity="1" stop-color="rgb(37.625122%, 45.082092%, 99.649048%)" offset="0.292969"/><stop stop-opacity="1" stop-color="rgb(37.937927%, 45.359802%, 99.64447%)" offset="0.296875"/><stop stop-opacity="1" stop-color="rgb(38.250732%, 45.635986%, 99.639893%)" offset="0.300781"/><stop stop-opacity="1" stop-color="rgb(38.563538%, 45.913696%, 99.635315%)" offset="0.304688"/><stop stop-opacity="1" stop-color="rgb(38.876343%, 46.18988%, 99.630737%)" offset="0.308594"/><stop stop-opacity="1" stop-color="rgb(39.189148%, 46.46759%, 99.62616%)" offset="0.3125"/><stop stop-opacity="1" stop-color="rgb(39.501953%, 46.743774%, 99.621582%)" offset="0.316406"/><stop stop-opacity="1" stop-color="rgb(39.814758%, 47.019958%, 99.617004%)" offset="0.320313"/><stop stop-opacity="1" stop-color="rgb(40.127563%, 47.296143%, 99.612427%)" offset="0.324219"/><stop stop-opacity="1" stop-color="rgb(40.440369%, 47.573853%, 99.607849%)" offset="0.328125"/><stop stop-opacity="1" stop-color="rgb(40.753174%, 47.850037%, 99.603271%)" offset="0.332031"/><stop stop-opacity="1" stop-color="rgb(41.065979%, 48.127747%, 99.598694%)" offset="0.335938"/><stop stop-opacity="1" stop-color="rgb(41.378784%, 48.403931%, 99.594116%)" offset="0.339844"/><stop stop-opacity="1" stop-color="rgb(41.691589%, 48.681641%, 99.589539%)" offset="0.34375"/><stop stop-opacity="1" stop-color="rgb(42.002869%, 48.957825%, 99.584961%)" offset="0.347656"/><stop stop-opacity="1" stop-color="rgb(42.315674%, 49.235535%, 99.580383%)" offset="0.351562"/><stop stop-opacity="1" stop-color="rgb(42.628479%, 49.511719%, 99.575806%)" offset="0.355469"/><stop stop-opacity="1" stop-color="rgb(42.941284%, 49.789429%, 99.571228%)" offset="0.359375"/><stop stop-opacity="1" stop-color="rgb(43.254089%, 50.065613%, 99.56665%)" offset="0.363281"/><stop stop-opacity="1" stop-color="rgb(43.566895%, 50.343323%, 99.562073%)" offset="0.367188"/><stop stop-opacity="1" stop-color="rgb(43.8797%, 50.619507%, 99.557495%)" offset="0.371094"/><stop stop-opacity="1" stop-color="rgb(44.192505%, 50.897217%, 99.552917%)" offset="0.375"/><stop stop-opacity="1" stop-color="rgb(44.50531%, 51.173401%, 99.54834%)" offset="0.378906"/><stop stop-opacity="1" stop-color="rgb(44.818115%, 51.451111%, 99.543762%)" offset="0.382812"/><stop stop-opacity="1" stop-color="rgb(45.13092%, 51.727295%, 99.539185%)" offset="0.386719"/><stop stop-opacity="1" stop-color="rgb(45.443726%, 52.005005%, 99.534607%)" offset="0.390625"/><stop stop-opacity="1" stop-color="rgb(45.756531%, 52.281189%, 99.530029%)" offset="0.394531"/><stop stop-opacity="1" stop-color="rgb(46.069336%, 52.558899%, 99.525452%)" offset="0.398438"/><stop stop-opacity="1" stop-color="rgb(46.382141%, 52.835083%, 99.520874%)" offset="0.402344"/><stop stop-opacity="1" stop-color="rgb(46.694946%, 53.112793%, 99.516296%)" offset="0.40625"/><stop stop-opacity="1" stop-color="rgb(47.007751%, 53.388977%, 99.511719%)" offset="0.410156"/><stop stop-opacity="1" stop-color="rgb(47.320557%, 53.666687%, 99.507141%)" offset="0.414062"/><stop stop-opacity="1" stop-color="rgb(47.633362%, 53.942871%, 99.502563%)" offset="0.417969"/><stop stop-opacity="1" stop-color="rgb(47.946167%, 54.220581%, 99.497986%)" offset="0.421875"/><stop stop-opacity="1" stop-color="rgb(48.258972%, 54.496765%, 99.493408%)" offset="0.425781"/><stop stop-opacity="1" stop-color="rgb(48.571777%, 54.772949%, 99.488831%)" offset="0.429688"/><stop stop-opacity="1" stop-color="rgb(48.884583%, 55.049133%, 99.484253%)" offset="0.433594"/><stop stop-opacity="1" stop-color="rgb(49.197388%, 55.326843%, 99.479675%)" offset="0.4375"/><stop stop-opacity="1" stop-color="rgb(49.508667%, 55.603027%, 99.475098%)" offset="0.441406"/><stop stop-opacity="1" stop-color="rgb(49.821472%, 55.880737%, 99.47052%)" offset="0.445312"/><stop stop-opacity="1" stop-color="rgb(50.134277%, 56.156921%, 99.465942%)" offset="0.449219"/><stop stop-opacity="1" stop-color="rgb(50.447083%, 56.434631%, 99.461365%)" offset="0.453125"/><stop stop-opacity="1" stop-color="rgb(50.759888%, 56.710815%, 99.456787%)" offset="0.457031"/><stop stop-opacity="1" stop-color="rgb(51.072693%, 56.988525%, 99.452209%)" offset="0.460938"/><stop stop-opacity="1" stop-color="rgb(51.385498%, 57.264709%, 99.447632%)" offset="0.464844"/><stop stop-opacity="1" stop-color="rgb(51.698303%, 57.542419%, 99.443054%)" offset="0.46875"/><stop stop-opacity="1" stop-color="rgb(52.011108%, 57.818604%, 99.438477%)" offset="0.472656"/><stop stop-opacity="1" stop-color="rgb(52.323914%, 58.096313%, 99.433899%)" offset="0.476563"/><stop stop-opacity="1" stop-color="rgb(52.636719%, 58.372498%, 99.429321%)" offset="0.480469"/><stop stop-opacity="1" stop-color="rgb(52.949524%, 58.650208%, 99.424744%)" offset="0.484375"/><stop stop-opacity="1" stop-color="rgb(53.262329%, 58.926392%, 99.420166%)" offset="0.488281"/><stop stop-opacity="1" stop-color="rgb(53.575134%, 59.204102%, 99.415588%)" offset="0.492188"/><stop stop-opacity="1" stop-color="rgb(53.887939%, 59.480286%, 99.411011%)" offset="0.496094"/><stop stop-opacity="1" stop-color="rgb(54.200745%, 59.757996%, 99.406433%)" offset="0.5"/><stop stop-opacity="1" stop-color="rgb(54.51355%, 60.03418%, 99.401855%)" offset="0.503906"/><stop stop-opacity="1" stop-color="rgb(54.826355%, 60.31189%, 99.397278%)" offset="0.507813"/><stop stop-opacity="1" stop-color="rgb(55.13916%, 60.588074%, 99.3927%)" offset="0.511719"/><stop stop-opacity="1" stop-color="rgb(55.451965%, 60.865784%, 99.388123%)" offset="0.515625"/><stop stop-opacity="1" stop-color="rgb(55.764771%, 61.141968%, 99.383545%)" offset="0.519531"/><stop stop-opacity="1" stop-color="rgb(56.077576%, 61.419678%, 99.378967%)" offset="0.523438"/><stop stop-opacity="1" stop-color="rgb(56.390381%, 61.695862%, 99.37439%)" offset="0.527344"/><stop stop-opacity="1" stop-color="rgb(56.703186%, 61.973572%, 99.369812%)" offset="0.53125"/><stop stop-opacity="1" stop-color="rgb(57.015991%, 62.249756%, 99.365234%)" offset="0.535156"/><stop stop-opacity="1" stop-color="rgb(57.328796%, 62.52594%, 99.360657%)" offset="0.539062"/><stop stop-opacity="1" stop-color="rgb(57.640076%, 62.802124%, 99.356079%)" offset="0.542969"/><stop stop-opacity="1" stop-color="rgb(57.952881%, 63.079834%, 99.351501%)" offset="0.546875"/><stop stop-opacity="1" stop-color="rgb(58.265686%, 63.356018%, 99.346924%)" offset="0.550781"/><stop stop-opacity="1" stop-color="rgb(58.578491%, 63.633728%, 99.342346%)" offset="0.554688"/><stop stop-opacity="1" stop-color="rgb(58.891296%, 63.909912%, 99.337769%)" offset="0.558594"/><stop stop-opacity="1" stop-color="rgb(59.204102%, 64.187622%, 99.333191%)" offset="0.5625"/><stop stop-opacity="1" stop-color="rgb(59.516907%, 64.463806%, 99.328613%)" offset="0.566406"/><stop stop-opacity="1" stop-color="rgb(59.829712%, 64.741516%, 99.324036%)" offset="0.570313"/><stop stop-opacity="1" stop-color="rgb(60.142517%, 65.0177%, 99.319458%)" offset="0.574219"/><stop stop-opacity="1" stop-color="rgb(60.455322%, 65.29541%, 99.31488%)" offset="0.578125"/><stop stop-opacity="1" stop-color="rgb(60.768127%, 65.571594%, 99.310303%)" offset="0.582031"/><stop stop-opacity="1" stop-color="rgb(61.080933%, 65.849304%, 99.305725%)" offset="0.585938"/><stop stop-opacity="1" stop-color="rgb(61.393738%, 66.125488%, 99.301147%)" offset="0.589844"/><stop stop-opacity="1" stop-color="rgb(61.706543%, 66.403198%, 99.29657%)" offset="0.59375"/><stop stop-opacity="1" stop-color="rgb(62.019348%, 66.679382%, 99.291992%)" offset="0.597656"/><stop stop-opacity="1" stop-color="rgb(62.332153%, 66.957092%, 99.287415%)" offset="0.601562"/><stop stop-opacity="1" stop-color="rgb(62.644958%, 67.233276%, 99.282837%)" offset="0.605469"/><stop stop-opacity="1" stop-color="rgb(62.957764%, 67.510986%, 99.278259%)" offset="0.609375"/><stop stop-opacity="1" stop-color="rgb(63.270569%, 67.78717%, 99.273682%)" offset="0.613281"/><stop stop-opacity="1" stop-color="rgb(63.583374%, 68.06488%, 99.269104%)" offset="0.617187"/><stop stop-opacity="1" stop-color="rgb(63.896179%, 68.341064%, 99.264526%)" offset="0.621094"/><stop stop-opacity="1" stop-color="rgb(64.208984%, 68.618774%, 99.259949%)" offset="0.625"/><stop stop-opacity="1" stop-color="rgb(64.52179%, 68.894958%, 99.255371%)" offset="0.628906"/><stop stop-opacity="1" stop-color="rgb(64.834595%, 69.172668%, 99.250793%)" offset="0.632813"/><stop stop-opacity="1" stop-color="rgb(65.145874%, 69.448853%, 99.246216%)" offset="0.636719"/><stop stop-opacity="1" stop-color="rgb(65.458679%, 69.726562%, 99.241638%)" offset="0.640625"/><stop stop-opacity="1" stop-color="rgb(65.771484%, 70.002747%, 99.237061%)" offset="0.644531"/><stop stop-opacity="1" stop-color="rgb(66.08429%, 70.278931%, 99.232483%)" offset="0.648438"/><stop stop-opacity="1" stop-color="rgb(66.397095%, 70.555115%, 99.227905%)" offset="0.652344"/><stop stop-opacity="1" stop-color="rgb(66.7099%, 70.832825%, 99.223328%)" offset="0.65625"/><stop stop-opacity="1" stop-color="rgb(67.022705%, 71.109009%, 99.21875%)" offset="0.660156"/><stop stop-opacity="1" stop-color="rgb(67.33551%, 71.386719%, 99.214172%)" offset="0.664062"/><stop stop-opacity="1" stop-color="rgb(67.648315%, 71.662903%, 99.209595%)" offset="0.667969"/><stop stop-opacity="1" stop-color="rgb(67.961121%, 71.940613%, 99.205017%)" offset="0.671875"/><stop stop-opacity="1" stop-color="rgb(68.273926%, 72.216797%, 99.200439%)" offset="0.675781"/><stop stop-opacity="1" stop-color="rgb(68.586731%, 72.494507%, 99.195862%)" offset="0.679687"/><stop stop-opacity="1" stop-color="rgb(68.899536%, 72.770691%, 99.191284%)" offset="0.683594"/><stop stop-opacity="1" stop-color="rgb(69.212341%, 73.048401%, 99.186707%)" offset="0.6875"/><stop stop-opacity="1" stop-color="rgb(69.525146%, 73.324585%, 99.182129%)" offset="0.691406"/><stop stop-opacity="1" stop-color="rgb(69.837952%, 73.602295%, 99.177551%)" offset="0.695313"/><stop stop-opacity="1" stop-color="rgb(70.150757%, 73.878479%, 99.172974%)" offset="0.699219"/><stop stop-opacity="1" stop-color="rgb(70.463562%, 74.156189%, 99.168396%)" offset="0.703125"/><stop stop-opacity="1" stop-color="rgb(70.776367%, 74.432373%, 99.163818%)" offset="0.707031"/><stop stop-opacity="1" stop-color="rgb(71.089172%, 74.710083%, 99.159241%)" offset="0.710938"/><stop stop-opacity="1" stop-color="rgb(71.401978%, 74.986267%, 99.154663%)" offset="0.714844"/><stop stop-opacity="1" stop-color="rgb(71.714783%, 75.263977%, 99.150085%)" offset="0.71875"/><stop stop-opacity="1" stop-color="rgb(72.027588%, 75.540161%, 99.145508%)" offset="0.722656"/><stop stop-opacity="1" stop-color="rgb(72.340393%, 75.817871%, 99.14093%)" offset="0.726562"/><stop stop-opacity="1" stop-color="rgb(72.651672%, 76.094055%, 99.136353%)" offset="0.730469"/><stop stop-opacity="1" stop-color="rgb(72.964478%, 76.371765%, 99.131775%)" offset="0.734375"/><stop stop-opacity="1" stop-color="rgb(73.277283%, 76.647949%, 99.127197%)" offset="0.738281"/><stop stop-opacity="1" stop-color="rgb(73.590088%, 76.925659%, 99.12262%)" offset="0.742187"/><stop stop-opacity="1" stop-color="rgb(73.902893%, 77.201843%, 99.118042%)" offset="0.746094"/><stop stop-opacity="1" stop-color="rgb(74.215698%, 77.479553%, 99.113464%)" offset="0.75"/><stop stop-opacity="1" stop-color="rgb(74.528503%, 77.755737%, 99.108887%)" offset="0.753906"/><stop stop-opacity="1" stop-color="rgb(74.841309%, 78.031921%, 99.104309%)" offset="0.757812"/><stop stop-opacity="1" stop-color="rgb(75.154114%, 78.308105%, 99.099731%)" offset="0.761719"/><stop stop-opacity="1" stop-color="rgb(75.466919%, 78.585815%, 99.095154%)" offset="0.765625"/><stop stop-opacity="1" stop-color="rgb(75.779724%, 78.862%, 99.090576%)" offset="0.769531"/><stop stop-opacity="1" stop-color="rgb(76.092529%, 79.139709%, 99.085999%)" offset="0.773438"/><stop stop-opacity="1" stop-color="rgb(76.405334%, 79.415894%, 99.081421%)" offset="0.777344"/><stop stop-opacity="1" stop-color="rgb(76.71814%, 79.693604%, 99.076843%)" offset="0.78125"/><stop stop-opacity="1" stop-color="rgb(77.030945%, 79.969788%, 99.072266%)" offset="0.785156"/><stop stop-opacity="1" stop-color="rgb(77.34375%, 80.247498%, 99.067688%)" offset="0.789062"/><stop stop-opacity="1" stop-color="rgb(77.656555%, 80.523682%, 99.06311%)" offset="0.792969"/><stop stop-opacity="1" stop-color="rgb(77.96936%, 80.801392%, 99.058533%)" offset="0.796875"/><stop stop-opacity="1" stop-color="rgb(78.282166%, 81.077576%, 99.053955%)" offset="0.800781"/><stop stop-opacity="1" stop-color="rgb(78.594971%, 81.355286%, 99.049377%)" offset="0.804688"/><stop stop-opacity="1" stop-color="rgb(78.907776%, 81.63147%, 99.0448%)" offset="0.808594"/><stop stop-opacity="1" stop-color="rgb(79.220581%, 81.90918%, 99.040222%)" offset="0.8125"/><stop stop-opacity="1" stop-color="rgb(79.533386%, 82.185364%, 99.035645%)" offset="0.816406"/><stop stop-opacity="1" stop-color="rgb(79.846191%, 82.463074%, 99.031067%)" offset="0.820312"/><stop stop-opacity="1" stop-color="rgb(80.158997%, 82.739258%, 99.026489%)" offset="0.824219"/><stop stop-opacity="1" stop-color="rgb(80.471802%, 83.016968%, 99.021912%)" offset="0.828125"/><stop stop-opacity="1" stop-color="rgb(80.783081%, 83.293152%, 99.017334%)" offset="0.832031"/><stop stop-opacity="1" stop-color="rgb(81.095886%, 83.570862%, 99.012756%)" offset="0.835938"/><stop stop-opacity="1" stop-color="rgb(81.408691%, 83.847046%, 99.008179%)" offset="0.839844"/><stop stop-opacity="1" stop-color="rgb(81.721497%, 84.124756%, 99.003601%)" offset="0.84375"/><stop stop-opacity="1" stop-color="rgb(82.034302%, 84.40094%, 98.999023%)" offset="0.847656"/><stop stop-opacity="1" stop-color="rgb(82.347107%, 84.67865%, 98.994446%)" offset="0.851563"/><stop stop-opacity="1" stop-color="rgb(82.659912%, 84.954834%, 98.989868%)" offset="0.855469"/><stop stop-opacity="1" stop-color="rgb(82.972717%, 85.232544%, 98.985291%)" offset="0.859375"/><stop stop-opacity="1" stop-color="rgb(83.285522%, 85.508728%, 98.980713%)" offset="0.863281"/><stop stop-opacity="1" stop-color="rgb(83.598328%, 85.784912%, 98.976135%)" offset="0.867188"/><stop stop-opacity="1" stop-color="rgb(83.911133%, 86.061096%, 98.971558%)" offset="0.871094"/><stop stop-opacity="1" stop-color="rgb(84.223938%, 86.338806%, 98.96698%)" offset="0.875"/><stop stop-opacity="1" stop-color="rgb(84.536743%, 86.61499%, 98.962402%)" offset="0.878906"/><stop stop-opacity="1" stop-color="rgb(84.849548%, 86.8927%, 98.957825%)" offset="0.882812"/><stop stop-opacity="1" stop-color="rgb(85.162354%, 87.168884%, 98.953247%)" offset="0.886719"/><stop stop-opacity="1" stop-color="rgb(85.475159%, 87.446594%, 98.948669%)" offset="0.890625"/><stop stop-opacity="1" stop-color="rgb(85.787964%, 87.722778%, 98.944092%)" offset="0.894531"/><stop stop-opacity="1" stop-color="rgb(86.100769%, 88.000488%, 98.939514%)" offset="0.898438"/><stop stop-opacity="1" stop-color="rgb(86.413574%, 88.276672%, 98.934937%)" offset="0.902344"/><stop stop-opacity="1" stop-color="rgb(86.726379%, 88.554382%, 98.930359%)" offset="0.90625"/><stop stop-opacity="1" stop-color="rgb(87.039185%, 88.830566%, 98.925781%)" offset="0.910156"/><stop stop-opacity="1" stop-color="rgb(87.35199%, 89.108276%, 98.921204%)" offset="0.914063"/><stop stop-opacity="1" stop-color="rgb(87.664795%, 89.38446%, 98.916626%)" offset="0.917969"/><stop stop-opacity="1" stop-color="rgb(87.9776%, 89.66217%, 98.912048%)" offset="0.921875"/><stop stop-opacity="1" stop-color="rgb(88.288879%, 89.938354%, 98.907471%)" offset="0.925781"/><stop stop-opacity="1" stop-color="rgb(88.601685%, 90.216064%, 98.902893%)" offset="0.929688"/><stop stop-opacity="1" stop-color="rgb(88.91449%, 90.492249%, 98.898315%)" offset="0.933594"/><stop stop-opacity="1" stop-color="rgb(89.227295%, 90.769958%, 98.893738%)" offset="0.9375"/><stop stop-opacity="1" stop-color="rgb(89.5401%, 91.046143%, 98.88916%)" offset="0.941406"/><stop stop-opacity="1" stop-color="rgb(89.852905%, 91.323853%, 98.884583%)" offset="0.945312"/><stop stop-opacity="1" stop-color="rgb(90.16571%, 91.600037%, 98.880005%)" offset="0.949219"/><stop stop-opacity="1" stop-color="rgb(90.478516%, 91.877747%, 98.875427%)" offset="0.953125"/><stop stop-opacity="1" stop-color="rgb(90.791321%, 92.153931%, 98.87085%)" offset="0.957031"/><stop stop-opacity="1" stop-color="rgb(91.104126%, 92.431641%, 98.866272%)" offset="0.960937"/><stop stop-opacity="1" stop-color="rgb(91.416931%, 92.707825%, 98.861694%)" offset="0.964844"/><stop stop-opacity="1" stop-color="rgb(91.729736%, 92.985535%, 98.857117%)" offset="0.96875"/><stop stop-opacity="1" stop-color="rgb(92.042542%, 93.261719%, 98.852539%)" offset="0.972656"/><stop stop-opacity="1" stop-color="rgb(92.355347%, 93.537903%, 98.847961%)" offset="0.976563"/><stop stop-opacity="1" stop-color="rgb(92.668152%, 93.814087%, 98.843384%)" offset="0.980469"/><stop stop-opacity="1" stop-color="rgb(92.980957%, 94.091797%, 98.838806%)" offset="0.984375"/><stop stop-opacity="1" stop-color="rgb(93.293762%, 94.367981%, 98.834229%)" offset="0.988281"/><stop stop-opacity="1" stop-color="rgb(93.606567%, 94.645691%, 98.829651%)" offset="0.992188"/><stop stop-opacity="1" stop-color="rgb(93.919373%, 94.921875%, 98.825073%)" offset="0.996094"/><stop stop-opacity="1" stop-color="rgb(94.232178%, 95.199585%, 98.820496%)" offset="1"/></linearGradient></defs><g clip-path="url(#e1ef53be02)"><g clip-path="url(#905e3d00be)"><path fill="url(#c829a41a37)" d="M 609.179688 245.777344 L 609.179688 355.839844 L 681.761719 355.839844 L 681.761719 245.777344 Z M 609.179688 245.777344 " fill-rule="nonzero"/></g></g><g fill="#ffffff" fill-opacity="1"><g transform="translate(21.959827, 340.619517)"><g><path d="M 3.234375 -6.546875 C 2.140625 -7.898438 1.59375 -9.113281 1.59375 -10.1875 C 1.59375 -11.269531 2.503906 -12.703125 4.328125 -14.484375 C 5.378906 -15.503906 6.5 -16.015625 7.6875 -16.015625 C 8.875 -16.015625 10.523438 -14.957031 12.640625 -12.84375 C 13.234375 -12.113281 14.082031 -11.421875 15.1875 -10.765625 C 16.289062 -10.109375 17.304688 -9.78125 18.234375 -9.78125 C 22.171875 -9.78125 24.140625 -11.390625 24.140625 -14.609375 C 24.140625 -15.585938 23.597656 -16.40625 22.515625 -17.0625 C 21.441406 -17.71875 20.097656 -18.191406 18.484375 -18.484375 C 16.878906 -18.785156 15.144531 -19.265625 13.28125 -19.921875 C 11.414062 -20.578125 9.675781 -21.347656 8.0625 -22.234375 C 6.457031 -23.128906 5.113281 -24.539062 4.03125 -26.46875 C 2.957031 -28.394531 2.421875 -30.710938 2.421875 -33.421875 C 2.421875 -37.148438 3.804688 -40.398438 6.578125 -43.171875 C 9.347656 -45.953125 13.128906 -47.34375 17.921875 -47.34375 C 20.460938 -47.34375 22.78125 -47.015625 24.875 -46.359375 C 26.976562 -45.703125 28.429688 -45.035156 29.234375 -44.359375 L 30.8125 -43.140625 C 32.132812 -41.921875 32.796875 -40.882812 32.796875 -40.03125 C 32.796875 -39.1875 32.285156 -38.023438 31.265625 -36.546875 C 29.828125 -34.421875 28.34375 -33.359375 26.8125 -33.359375 C 25.925781 -33.359375 24.828125 -33.785156 23.515625 -34.640625 C 23.390625 -34.722656 23.144531 -34.929688 22.78125 -35.265625 C 22.414062 -35.609375 22.085938 -35.882812 21.796875 -36.09375 C 20.910156 -36.644531 19.773438 -36.921875 18.390625 -36.921875 C 17.015625 -36.921875 15.867188 -36.59375 14.953125 -35.9375 C 14.046875 -35.28125 13.59375 -34.367188 13.59375 -33.203125 C 13.59375 -32.035156 14.132812 -31.09375 15.21875 -30.375 C 16.300781 -29.65625 17.644531 -29.164062 19.25 -28.90625 C 20.863281 -28.65625 22.625 -28.265625 24.53125 -27.734375 C 26.4375 -27.203125 28.191406 -26.554688 29.796875 -25.796875 C 31.410156 -25.035156 32.753906 -23.710938 33.828125 -21.828125 C 34.910156 -19.941406 35.453125 -17.617188 35.453125 -14.859375 C 35.453125 -12.109375 34.898438 -9.6875 33.796875 -7.59375 C 32.703125 -5.5 31.265625 -3.878906 29.484375 -2.734375 C 26.054688 -0.484375 22.390625 0.640625 18.484375 0.640625 C 16.492188 0.640625 14.609375 0.394531 12.828125 -0.09375 C 11.054688 -0.582031 9.617188 -1.1875 8.515625 -1.90625 C 6.265625 -3.257812 4.695312 -4.570312 3.8125 -5.84375 Z M 3.234375 -6.546875 "/></g></g></g><g fill="#ffffff" fill-opacity="1"><g transform="translate(74.316329, 340.619517)"><g><path d="M 24.40625 -47.15625 C 30.675781 -47.15625 36.117188 -44.882812 40.734375 -40.34375 C 45.347656 -35.8125 47.65625 -30.1875 47.65625 -23.46875 C 47.65625 -16.757812 45.453125 -11.039062 41.046875 -6.3125 C 36.640625 -1.59375 31.21875 0.765625 24.78125 0.765625 C 18.34375 0.765625 12.867188 -1.5625 8.359375 -6.21875 C 3.847656 -10.882812 1.59375 -16.4375 1.59375 -22.875 C 1.59375 -26.394531 2.226562 -29.6875 3.5 -32.75 C 4.769531 -35.820312 6.460938 -38.394531 8.578125 -40.46875 C 10.691406 -42.550781 13.125 -44.1875 15.875 -45.375 C 18.632812 -46.5625 21.476562 -47.15625 24.40625 -47.15625 Z M 12.84375 -23.1875 C 12.84375 -19.414062 14.054688 -16.351562 16.484375 -14 C 18.921875 -11.65625 21.644531 -10.484375 24.65625 -10.484375 C 27.664062 -10.484375 30.375 -11.625 32.78125 -13.90625 C 35.195312 -16.195312 36.40625 -19.269531 36.40625 -23.125 C 36.40625 -26.976562 35.1875 -30.070312 32.75 -32.40625 C 30.320312 -34.738281 27.601562 -35.90625 24.59375 -35.90625 C 21.582031 -35.90625 18.867188 -34.726562 16.453125 -32.375 C 14.046875 -30.019531 12.84375 -26.957031 12.84375 -23.1875 Z M 12.84375 -23.1875 "/></g></g></g><g fill="#ffffff" fill-opacity="1"><g transform="translate(138.87218, 340.619517)"><g><path d="M 32.96875 -44.859375 C 33.394531 -45.535156 34.007812 -46 34.8125 -46.25 C 35.625 -46.507812 36.632812 -46.640625 37.84375 -46.640625 C 39.050781 -46.640625 40.015625 -46.535156 40.734375 -46.328125 C 41.453125 -46.117188 42 -45.863281 42.375 -45.5625 C 42.757812 -45.269531 43.039062 -44.828125 43.21875 -44.234375 C 43.46875 -43.503906 43.59375 -42.398438 43.59375 -40.921875 L 43.59375 -21.734375 C 43.59375 -16.140625 41.851562 -11.054688 38.375 -6.484375 C 36.6875 -4.316406 34.503906 -2.566406 31.828125 -1.234375 C 29.160156 0.0976562 26.207031 0.765625 22.96875 0.765625 C 19.726562 0.765625 16.785156 0.0859375 14.140625 -1.265625 C 11.492188 -2.617188 9.34375 -4.398438 7.6875 -6.609375 C 4.257812 -11.097656 2.546875 -16.179688 2.546875 -21.859375 L 2.546875 -40.984375 C 2.546875 -42.003906 2.578125 -42.753906 2.640625 -43.234375 C 2.703125 -43.722656 2.898438 -44.285156 3.234375 -44.921875 C 3.578125 -45.554688 4.148438 -46 4.953125 -46.25 C 5.753906 -46.507812 6.832031 -46.640625 8.1875 -46.640625 C 9.550781 -46.640625 10.632812 -46.507812 11.4375 -46.25 C 12.238281 -46 12.789062 -45.554688 13.09375 -44.921875 C 13.601562 -43.953125 13.859375 -42.617188 13.859375 -40.921875 L 13.859375 -21.859375 C 13.859375 -19.273438 14.492188 -16.816406 15.765625 -14.484375 C 16.398438 -13.296875 17.351562 -12.34375 18.625 -11.625 C 19.894531 -10.90625 21.394531 -10.546875 23.125 -10.546875 C 26.21875 -10.546875 28.523438 -11.6875 30.046875 -13.96875 C 31.578125 -16.257812 32.34375 -18.910156 32.34375 -21.921875 L 32.34375 -41.375 C 32.34375 -43.019531 32.550781 -44.179688 32.96875 -44.859375 Z M 32.96875 -44.859375 "/></g></g></g><g fill="#ffffff" fill-opacity="1"><g transform="translate(200.314667, 340.619517)"><g><path d="M 32.625 -44.640625 C 33.03125 -45.378906 33.632812 -45.875 34.4375 -46.125 C 35.25 -46.382812 36.253906 -46.515625 37.453125 -46.515625 C 38.660156 -46.515625 39.632812 -46.40625 40.375 -46.1875 C 41.125 -45.976562 41.675781 -45.722656 42.03125 -45.421875 C 42.394531 -45.128906 42.660156 -44.6875 42.828125 -44.09375 C 43.085938 -43.414062 43.21875 -42.335938 43.21875 -40.859375 L 43.21875 -5.59375 C 43.21875 -4.570312 43.179688 -3.828125 43.109375 -3.359375 C 43.046875 -2.898438 42.847656 -2.351562 42.515625 -1.71875 C 41.921875 -0.570312 40.269531 0 37.5625 0 C 35.90625 0 34.757812 -0.125 34.125 -0.375 C 33.488281 -0.632812 32.957031 -1.039062 32.53125 -1.59375 C 23 -14.300781 16.726562 -22.601562 13.71875 -26.5 L 13.71875 -5.59375 C 13.71875 -4.570312 13.6875 -3.828125 13.625 -3.359375 C 13.5625 -2.898438 13.363281 -2.351562 13.03125 -1.71875 C 12.4375 -0.570312 10.785156 0 8.078125 0 C 5.441406 0 3.828125 -0.570312 3.234375 -1.71875 C 2.898438 -2.351562 2.703125 -2.921875 2.640625 -3.421875 C 2.578125 -3.929688 2.546875 -4.675781 2.546875 -5.65625 L 2.546875 -41.109375 C 2.546875 -42.722656 2.742188 -43.898438 3.140625 -44.640625 C 3.546875 -45.378906 4.148438 -45.875 4.953125 -46.125 C 5.753906 -46.382812 6.789062 -46.515625 8.0625 -46.515625 C 9.34375 -46.515625 10.351562 -46.394531 11.09375 -46.15625 C 11.832031 -45.925781 12.347656 -45.664062 12.640625 -45.375 C 12.816406 -45.25 13.304688 -44.695312 14.109375 -43.71875 C 23.046875 -31.5625 29.019531 -23.535156 32.03125 -19.640625 L 32.03125 -41.109375 C 32.03125 -42.722656 32.226562 -43.898438 32.625 -44.640625 Z M 32.625 -44.640625 "/></g></g></g><g fill="#ffffff" fill-opacity="1"><g transform="translate(261.375925, 340.619517)"><g><path d="M 8.203125 -46.640625 L 19.953125 -46.578125 C 26.097656 -46.578125 31.5 -44.363281 36.15625 -39.9375 C 40.8125 -35.507812 43.140625 -30.066406 43.140625 -23.609375 C 43.140625 -17.148438 40.863281 -11.609375 36.3125 -6.984375 C 31.757812 -2.367188 26.242188 -0.0625 19.765625 -0.0625 L 8.140625 -0.0625 C 5.546875 -0.0625 3.929688 -0.59375 3.296875 -1.65625 C 2.796875 -2.539062 2.546875 -3.894531 2.546875 -5.71875 L 2.546875 -41.046875 C 2.546875 -42.066406 2.578125 -42.804688 2.640625 -43.265625 C 2.703125 -43.734375 2.898438 -44.285156 3.234375 -44.921875 C 3.828125 -46.066406 5.484375 -46.640625 8.203125 -46.640625 Z M 19.953125 -11.3125 C 23.003906 -11.3125 25.757812 -12.441406 28.21875 -14.703125 C 30.675781 -16.972656 31.90625 -19.820312 31.90625 -23.25 C 31.90625 -26.6875 30.707031 -29.554688 28.3125 -31.859375 C 25.914062 -34.171875 23.109375 -35.328125 19.890625 -35.328125 L 13.796875 -35.328125 L 13.796875 -11.3125 Z M 19.953125 -11.3125 "/></g></g></g><g fill="#ffffff" fill-opacity="1"><g transform="translate(321.42055, 340.619517)"><g><path d="M 35.71875 -24.96875 C 38.21875 -22.007812 39.46875 -18.6875 39.46875 -15 C 39.375 -10.757812 37.921875 -7.207031 35.109375 -4.34375 C 32.296875 -1.488281 28.875 -0.0625 24.84375 -0.0625 L 8.140625 -0.0625 C 5.171875 -0.0625 3.429688 -0.867188 2.921875 -2.484375 C 2.671875 -3.203125 2.546875 -4.300781 2.546875 -5.78125 L 2.546875 -41.046875 C 2.546875 -42.066406 2.578125 -42.804688 2.640625 -43.265625 C 2.703125 -43.734375 2.898438 -44.285156 3.234375 -44.921875 C 3.828125 -46.066406 5.484375 -46.640625 8.203125 -46.640625 L 24.21875 -46.640625 C 28.113281 -46.640625 31.375 -45.285156 34 -42.578125 C 36.75 -39.828125 38.125 -36.519531 38.125 -32.65625 C 38.125 -29.863281 37.320312 -27.300781 35.71875 -24.96875 Z M 28.21875 -15.625 C 28.21875 -16.644531 28.097656 -17.453125 27.859375 -18.046875 C 27.628906 -18.640625 27.238281 -19.0625 26.6875 -19.3125 C 25.84375 -19.65625 24.65625 -19.828125 23.125 -19.828125 C 21.601562 -19.828125 20.460938 -20.125 19.703125 -20.71875 C 18.941406 -21.3125 18.5625 -22.53125 18.5625 -24.375 C 18.5625 -26.21875 18.953125 -27.429688 19.734375 -28.015625 C 20.515625 -28.609375 21.816406 -28.90625 23.640625 -28.90625 C 25.335938 -28.90625 26.351562 -29.351562 26.6875 -30.25 C 26.8125 -30.71875 26.875 -31.476562 26.875 -32.53125 C 26.875 -33.59375 26.523438 -34.332031 25.828125 -34.75 C 25.128906 -35.175781 24.082031 -35.390625 22.6875 -35.390625 L 13.796875 -35.390625 L 13.796875 -11.3125 L 24.21875 -11.3125 C 26.882812 -11.3125 28.21875 -12.75 28.21875 -15.625 Z M 28.21875 -15.625 "/></g></g></g><g fill="#ffffff" fill-opacity="1"><g transform="translate(377.779982, 340.619517)"><g><path d="M 39.53125 -45.6875 C 41.601562 -44.25 42.640625 -42.851562 42.640625 -41.5 C 42.640625 -40.6875 42.148438 -39.5625 41.171875 -38.125 L 27.453125 -17.609375 L 27.453125 -5.46875 C 27.453125 -4.488281 27.421875 -3.753906 27.359375 -3.265625 C 27.296875 -2.785156 27.09375 -2.226562 26.75 -1.59375 C 26.414062 -0.957031 25.84375 -0.507812 25.03125 -0.25 C 24.226562 0 23.148438 0.125 21.796875 0.125 C 20.441406 0.125 19.359375 0 18.546875 -0.25 C 17.742188 -0.507812 17.171875 -0.96875 16.828125 -1.625 C 16.492188 -2.28125 16.296875 -2.847656 16.234375 -3.328125 C 16.171875 -3.816406 16.140625 -4.570312 16.140625 -5.59375 L 16.140625 -17.609375 L 2.421875 -38.125 C 1.441406 -39.5625 0.953125 -40.6875 0.953125 -41.5 C 0.953125 -42.851562 1.882812 -44.15625 3.75 -45.40625 C 5.613281 -46.65625 6.945312 -47.28125 7.75 -47.28125 C 8.550781 -47.28125 9.1875 -47.109375 9.65625 -46.765625 C 10.375 -46.304688 11.140625 -45.441406 11.953125 -44.171875 L 21.796875 -28.40625 L 31.640625 -44.171875 C 32.453125 -45.441406 33.15625 -46.273438 33.75 -46.671875 C 34.34375 -47.078125 35.03125 -47.28125 35.8125 -47.28125 C 36.59375 -47.28125 37.832031 -46.75 39.53125 -45.6875 Z M 39.53125 -45.6875 "/></g></g></g><g fill="#ffffff" fill-opacity="1"><g transform="translate(436.680921, 340.619517)"><g><path d="M 5.59375 -46.640625 L 40.921875 -46.640625 C 42.273438 -46.640625 43.269531 -46.476562 43.90625 -46.15625 C 44.539062 -45.84375 44.960938 -45.347656 45.171875 -44.671875 C 45.390625 -43.992188 45.5 -43.101562 45.5 -42 C 45.5 -40.90625 45.390625 -40.023438 45.171875 -39.359375 C 44.960938 -38.703125 44.601562 -38.25 44.09375 -38 C 43.332031 -37.613281 42.253906 -37.421875 40.859375 -37.421875 L 28.71875 -37.421875 L 28.71875 -5.46875 C 28.71875 -4.488281 28.6875 -3.765625 28.625 -3.296875 C 28.5625 -2.835938 28.367188 -2.300781 28.046875 -1.6875 C 27.734375 -1.070312 27.175781 -0.632812 26.375 -0.375 C 25.570312 -0.125 24.507812 0 23.1875 0 C 21.875 0 20.828125 -0.125 20.046875 -0.375 C 19.265625 -0.632812 18.710938 -1.070312 18.390625 -1.6875 C 18.078125 -2.300781 17.890625 -2.847656 17.828125 -3.328125 C 17.765625 -3.816406 17.734375 -4.550781 17.734375 -5.53125 L 17.734375 -37.421875 L 5.53125 -37.421875 C 4.175781 -37.421875 3.179688 -37.578125 2.546875 -37.890625 C 1.910156 -38.210938 1.484375 -38.710938 1.265625 -39.390625 C 1.054688 -40.078125 0.953125 -40.96875 0.953125 -42.0625 C 0.953125 -43.164062 1.054688 -44.046875 1.265625 -44.703125 C 1.484375 -45.359375 1.84375 -45.816406 2.34375 -46.078125 C 3.113281 -46.453125 4.195312 -46.640625 5.59375 -46.640625 Z M 5.59375 -46.640625 "/></g></g></g><g fill="#ffffff" fill-opacity="1"><g transform="translate(498.441076, 340.619517)"><g><path d="M 13.796875 -11.25 L 33.359375 -11.25 C 34.335938 -11.25 35.066406 -11.21875 35.546875 -11.15625 C 36.035156 -11.09375 36.597656 -10.890625 37.234375 -10.546875 C 38.378906 -9.953125 38.953125 -8.300781 38.953125 -5.59375 C 38.953125 -2.625 38.171875 -0.882812 36.609375 -0.375 C 35.878906 -0.125 34.773438 0 33.296875 0 L 8.140625 0 C 5.171875 0 3.429688 -0.804688 2.921875 -2.421875 C 2.671875 -3.097656 2.546875 -4.175781 2.546875 -5.65625 L 2.546875 -40.984375 C 2.546875 -43.148438 2.945312 -44.625 3.75 -45.40625 C 4.550781 -46.1875 6.078125 -46.578125 8.328125 -46.578125 L 33.359375 -46.578125 C 34.335938 -46.578125 35.066406 -46.546875 35.546875 -46.484375 C 36.035156 -46.421875 36.597656 -46.21875 37.234375 -45.875 C 38.378906 -45.28125 38.953125 -43.628906 38.953125 -40.921875 C 38.953125 -37.953125 38.171875 -36.21875 36.609375 -35.71875 C 35.878906 -35.457031 34.773438 -35.328125 33.296875 -35.328125 L 13.796875 -35.328125 L 13.796875 -28.90625 L 26.375 -28.90625 C 27.34375 -28.90625 28.070312 -28.875 28.5625 -28.8125 C 29.050781 -28.75 29.613281 -28.550781 30.25 -28.21875 C 31.394531 -27.625 31.96875 -25.972656 31.96875 -23.265625 C 31.96875 -20.296875 31.160156 -18.554688 29.546875 -18.046875 C 28.828125 -17.796875 27.726562 -17.671875 26.25 -17.671875 L 13.796875 -17.671875 Z M 13.796875 -11.25 "/></g></g></g><g fill="#ffffff" fill-opacity="1"><g transform="translate(554.292184, 340.619517)"><g><path d="M 3.234375 -6.546875 C 2.140625 -7.898438 1.59375 -9.113281 1.59375 -10.1875 C 1.59375 -11.269531 2.503906 -12.703125 4.328125 -14.484375 C 5.378906 -15.503906 6.5 -16.015625 7.6875 -16.015625 C 8.875 -16.015625 10.523438 -14.957031 12.640625 -12.84375 C 13.234375 -12.113281 14.082031 -11.421875 15.1875 -10.765625 C 16.289062 -10.109375 17.304688 -9.78125 18.234375 -9.78125 C 22.171875 -9.78125 24.140625 -11.390625 24.140625 -14.609375 C 24.140625 -15.585938 23.597656 -16.40625 22.515625 -17.0625 C 21.441406 -17.71875 20.097656 -18.191406 18.484375 -18.484375 C 16.878906 -18.785156 15.144531 -19.265625 13.28125 -19.921875 C 11.414062 -20.578125 9.675781 -21.347656 8.0625 -22.234375 C 6.457031 -23.128906 5.113281 -24.539062 4.03125 -26.46875 C 2.957031 -28.394531 2.421875 -30.710938 2.421875 -33.421875 C 2.421875 -37.148438 3.804688 -40.398438 6.578125 -43.171875 C 9.347656 -45.953125 13.128906 -47.34375 17.921875 -47.34375 C 20.460938 -47.34375 22.78125 -47.015625 24.875 -46.359375 C 26.976562 -45.703125 28.429688 -45.035156 29.234375 -44.359375 L 30.8125 -43.140625 C 32.132812 -41.921875 32.796875 -40.882812 32.796875 -40.03125 C 32.796875 -39.1875 32.285156 -38.023438 31.265625 -36.546875 C 29.828125 -34.421875 28.34375 -33.359375 26.8125 -33.359375 C 25.925781 -33.359375 24.828125 -33.785156 23.515625 -34.640625 C 23.390625 -34.722656 23.144531 -34.929688 22.78125 -35.265625 C 22.414062 -35.609375 22.085938 -35.882812 21.796875 -36.09375 C 20.910156 -36.644531 19.773438 -36.921875 18.390625 -36.921875 C 17.015625 -36.921875 15.867188 -36.59375 14.953125 -35.9375 C 14.046875 -35.28125 13.59375 -34.367188 13.59375 -33.203125 C 13.59375 -32.035156 14.132812 -31.09375 15.21875 -30.375 C 16.300781 -29.65625 17.644531 -29.164062 19.25 -28.90625 C 20.863281 -28.65625 22.625 -28.265625 24.53125 -27.734375 C 26.4375 -27.203125 28.191406 -26.554688 29.796875 -25.796875 C 31.410156 -25.035156 32.753906 -23.710938 33.828125 -21.828125 C 34.910156 -19.941406 35.453125 -17.617188 35.453125 -14.859375 C 35.453125 -12.109375 34.898438 -9.6875 33.796875 -7.59375 C 32.703125 -5.5 31.265625 -3.878906 29.484375 -2.734375 C 26.054688 -0.484375 22.390625 0.640625 18.484375 0.640625 C 16.492188 0.640625 14.609375 0.394531 12.828125 -0.09375 C 11.054688 -0.582031 9.617188 -1.1875 8.515625 -1.90625 C 6.265625 -3.257812 4.695312 -4.570312 3.8125 -5.84375 Z M 3.234375 -6.546875 "/></g></g></g></svg>