<svg xmlns="http://www.w3.org/2000/svg" xmlns:xlink="http://www.w3.org/1999/xlink" width="500" zoomAndPan="magnify" viewBox="0 0 375 374.999991" height="500" preserveAspectRatio="xMidYMid meet" version="1.0"><defs><g/><clipPath id="b95a3c5251"><path d="M 119.535156 27.179688 L 255.285156 27.179688 L 255.285156 233.429688 L 119.535156 233.429688 Z M 119.535156 27.179688 " clip-rule="nonzero"/></clipPath><clipPath id="3278ea7fc2"><path d="M 210.492188 28.636719 C 209.253906 27.714844 207.726562 27.179688 206.078125 27.179688 C 201.976562 27.179688 198.617188 30.546875 198.617188 34.660156 L 198.617188 97.453125 L 187.417969 97.453125 C 150.046875 97.453125 119.621094 127.960938 119.621094 165.433594 C 119.621094 202.90625 150.046875 233.429688 187.417969 233.429688 C 224.785156 233.429688 255.222656 202.917969 255.222656 165.433594 L 255.222656 139.242188 L 240.289062 139.242188 L 240.289062 165.433594 C 240.289062 194.652344 216.550781 218.457031 187.417969 218.457031 C 158.292969 218.457031 134.550781 194.652344 134.550781 165.433594 C 134.550781 136.230469 158.292969 112.425781 187.417969 112.425781 L 198.617188 112.425781 L 198.617188 139.25 L 187.417969 139.25 C 173.050781 139.25 161.292969 151.039062 161.292969 165.445312 C 161.292969 179.851562 173.050781 191.648438 187.417969 191.648438 C 201.785156 191.648438 213.539062 179.859375 213.539062 165.445312 L 213.539062 164.40625 C 213.539062 133.703125 213.539062 103 213.539062 72.296875 C 235.613281 69.640625 244.382812 90.636719 239.871094 135.289062 C 254.601562 113.746094 259.523438 83.976562 235.640625 60.105469 C 231.855469 56.320312 227.871094 52.632812 224.238281 48.875 C 218.796875 43.253906 211.992188 29.75 210.492188 28.636719 Z M 210.492188 28.636719 " clip-rule="evenodd"/></clipPath><linearGradient x1="209.448176" gradientTransform="matrix(0.909883, 0, 0, 0.912409, 119.612063, 27.178219)" y1="110.56222" x2="-0.491996" gradientUnits="userSpaceOnUse" y2="225.13008" id="acd01e3cb9"><stop stop-opacity="1" stop-color="rgb(14.169312%, 24.31488%, 99.992371%)" offset="0"/><stop stop-opacity="1" stop-color="rgb(14.482117%, 24.591064%, 99.987793%)" offset="0.00390625"/><stop stop-opacity="1" stop-color="rgb(14.794922%, 24.868774%, 99.983215%)" offset="0.0078125"/><stop stop-opacity="1" stop-color="rgb(15.107727%, 25.144958%, 99.978638%)" offset="0.0117187"/><stop stop-opacity="1" stop-color="rgb(15.420532%, 25.422668%, 99.97406%)" offset="0.015625"/><stop stop-opacity="1" stop-color="rgb(15.733337%, 25.698853%, 99.969482%)" offset="0.0195312"/><stop stop-opacity="1" stop-color="rgb(16.046143%, 25.976562%, 99.964905%)" offset="0.0234375"/><stop stop-opacity="1" stop-color="rgb(16.357422%, 26.252747%, 99.960327%)" offset="0.0273438"/><stop stop-opacity="1" stop-color="rgb(16.670227%, 26.530457%, 99.95575%)" offset="0.03125"/><stop stop-opacity="1" stop-color="rgb(16.983032%, 26.806641%, 99.951172%)" offset="0.0351562"/><stop stop-opacity="1" stop-color="rgb(17.295837%, 27.084351%, 99.946594%)" offset="0.0390625"/><stop stop-opacity="1" stop-color="rgb(17.608643%, 27.360535%, 99.942017%)" offset="0.0429687"/><stop stop-opacity="1" stop-color="rgb(17.921448%, 27.638245%, 99.937439%)" offset="0.046875"/><stop stop-opacity="1" stop-color="rgb(18.234253%, 27.914429%, 99.932861%)" offset="0.0507812"/><stop stop-opacity="1" stop-color="rgb(18.547058%, 28.192139%, 99.928284%)" offset="0.0546875"/><stop stop-opacity="1" stop-color="rgb(18.859863%, 28.468323%, 99.923706%)" offset="0.0585937"/><stop stop-opacity="1" stop-color="rgb(19.172668%, 28.746033%, 99.919128%)" offset="0.0625"/><stop stop-opacity="1" stop-color="rgb(19.485474%, 29.022217%, 99.914551%)" offset="0.0664062"/><stop stop-opacity="1" stop-color="rgb(19.798279%, 29.299927%, 99.909973%)" offset="0.0703125"/><stop stop-opacity="1" stop-color="rgb(20.111084%, 29.576111%, 99.905396%)" offset="0.0742187"/><stop stop-opacity="1" stop-color="rgb(20.423889%, 29.852295%, 99.900818%)" offset="0.078125"/><stop stop-opacity="1" stop-color="rgb(20.736694%, 30.128479%, 99.89624%)" offset="0.0820312"/><stop stop-opacity="1" stop-color="rgb(21.0495%, 30.406189%, 99.891663%)" offset="0.0859375"/><stop stop-opacity="1" stop-color="rgb(21.362305%, 30.682373%, 99.887085%)" offset="0.0898437"/><stop stop-opacity="1" stop-color="rgb(21.67511%, 30.960083%, 99.882507%)" offset="0.09375"/><stop stop-opacity="1" stop-color="rgb(21.987915%, 31.236267%, 99.87793%)" offset="0.0976562"/><stop stop-opacity="1" stop-color="rgb(22.30072%, 31.513977%, 99.873352%)" offset="0.101562"/><stop stop-opacity="1" stop-color="rgb(22.613525%, 31.790161%, 99.868774%)" offset="0.105469"/><stop stop-opacity="1" stop-color="rgb(22.926331%, 32.067871%, 99.864197%)" offset="0.109375"/><stop stop-opacity="1" stop-color="rgb(23.239136%, 32.344055%, 99.859619%)" offset="0.113281"/><stop stop-opacity="1" stop-color="rgb(23.551941%, 32.621765%, 99.855042%)" offset="0.117187"/><stop stop-opacity="1" stop-color="rgb(23.864746%, 32.897949%, 99.850464%)" offset="0.121094"/><stop stop-opacity="1" stop-color="rgb(24.177551%, 33.175659%, 99.845886%)" offset="0.125"/><stop stop-opacity="1" stop-color="rgb(24.488831%, 33.451843%, 99.841309%)" offset="0.128906"/><stop stop-opacity="1" stop-color="rgb(24.801636%, 33.729553%, 99.836731%)" offset="0.132812"/><stop stop-opacity="1" stop-color="rgb(25.114441%, 34.005737%, 99.832153%)" offset="0.136719"/><stop stop-opacity="1" stop-color="rgb(25.427246%, 34.283447%, 99.827576%)" offset="0.140625"/><stop stop-opacity="1" stop-color="rgb(25.740051%, 34.559631%, 99.822998%)" offset="0.144531"/><stop stop-opacity="1" stop-color="rgb(26.052856%, 34.837341%, 99.81842%)" offset="0.148438"/><stop stop-opacity="1" stop-color="rgb(26.365662%, 35.113525%, 99.813843%)" offset="0.152344"/><stop stop-opacity="1" stop-color="rgb(26.678467%, 35.391235%, 99.809265%)" offset="0.15625"/><stop stop-opacity="1" stop-color="rgb(26.991272%, 35.667419%, 99.804688%)" offset="0.160156"/><stop stop-opacity="1" stop-color="rgb(27.304077%, 35.945129%, 99.80011%)" offset="0.164062"/><stop stop-opacity="1" stop-color="rgb(27.616882%, 36.221313%, 99.795532%)" offset="0.167969"/><stop stop-opacity="1" stop-color="rgb(27.929688%, 36.499023%, 99.790955%)" offset="0.171875"/><stop stop-opacity="1" stop-color="rgb(28.242493%, 36.775208%, 99.786377%)" offset="0.175781"/><stop stop-opacity="1" stop-color="rgb(28.555298%, 37.052917%, 99.781799%)" offset="0.179688"/><stop stop-opacity="1" stop-color="rgb(28.868103%, 37.329102%, 99.777222%)" offset="0.183594"/><stop stop-opacity="1" stop-color="rgb(29.180908%, 37.606812%, 99.772644%)" offset="0.1875"/><stop stop-opacity="1" stop-color="rgb(29.493713%, 37.882996%, 99.768066%)" offset="0.191406"/><stop stop-opacity="1" stop-color="rgb(29.806519%, 38.15918%, 99.763489%)" offset="0.195312"/><stop stop-opacity="1" stop-color="rgb(30.119324%, 38.435364%, 99.758911%)" offset="0.199219"/><stop stop-opacity="1" stop-color="rgb(30.432129%, 38.713074%, 99.754333%)" offset="0.203125"/><stop stop-opacity="1" stop-color="rgb(30.744934%, 38.989258%, 99.749756%)" offset="0.207031"/><stop stop-opacity="1" stop-color="rgb(31.057739%, 39.266968%, 99.745178%)" offset="0.210938"/><stop stop-opacity="1" stop-color="rgb(31.370544%, 39.543152%, 99.740601%)" offset="0.214844"/><stop stop-opacity="1" stop-color="rgb(31.68335%, 39.820862%, 99.736023%)" offset="0.21875"/><stop stop-opacity="1" stop-color="rgb(31.996155%, 40.097046%, 99.731445%)" offset="0.222656"/><stop stop-opacity="1" stop-color="rgb(32.30896%, 40.374756%, 99.726868%)" offset="0.226562"/><stop stop-opacity="1" stop-color="rgb(32.620239%, 40.65094%, 99.72229%)" offset="0.230469"/><stop stop-opacity="1" stop-color="rgb(32.933044%, 40.92865%, 99.717712%)" offset="0.234375"/><stop stop-opacity="1" stop-color="rgb(33.24585%, 41.204834%, 99.713135%)" offset="0.238281"/><stop stop-opacity="1" stop-color="rgb(33.558655%, 41.482544%, 99.708557%)" offset="0.242188"/><stop stop-opacity="1" stop-color="rgb(33.87146%, 41.758728%, 99.703979%)" offset="0.246094"/><stop stop-opacity="1" stop-color="rgb(34.184265%, 42.036438%, 99.699402%)" offset="0.25"/><stop stop-opacity="1" stop-color="rgb(34.49707%, 42.312622%, 99.694824%)" offset="0.253906"/><stop stop-opacity="1" stop-color="rgb(34.809875%, 42.590332%, 99.690247%)" offset="0.257812"/><stop stop-opacity="1" stop-color="rgb(35.122681%, 42.866516%, 99.685669%)" offset="0.261719"/><stop stop-opacity="1" stop-color="rgb(35.435486%, 43.144226%, 99.681091%)" offset="0.265625"/><stop stop-opacity="1" stop-color="rgb(35.748291%, 43.42041%, 99.676514%)" offset="0.269531"/><stop stop-opacity="1" stop-color="rgb(36.061096%, 43.69812%, 99.671936%)" offset="0.273438"/><stop stop-opacity="1" stop-color="rgb(36.373901%, 43.974304%, 99.667358%)" offset="0.277344"/><stop stop-opacity="1" stop-color="rgb(36.686707%, 44.252014%, 99.662781%)" offset="0.28125"/><stop stop-opacity="1" stop-color="rgb(36.999512%, 44.528198%, 99.658203%)" offset="0.285156"/><stop stop-opacity="1" stop-color="rgb(37.312317%, 44.805908%, 99.653625%)" offset="0.289063"/><stop stop-opacity="1" stop-color="rgb(37.625122%, 45.082092%, 99.649048%)" offset="0.292969"/><stop stop-opacity="1" stop-color="rgb(37.937927%, 45.359802%, 99.64447%)" offset="0.296875"/><stop stop-opacity="1" stop-color="rgb(38.250732%, 45.635986%, 99.639893%)" offset="0.300781"/><stop stop-opacity="1" stop-color="rgb(38.563538%, 45.91217%, 99.635315%)" offset="0.304688"/><stop stop-opacity="1" stop-color="rgb(38.876343%, 46.188354%, 99.630737%)" offset="0.308594"/><stop stop-opacity="1" stop-color="rgb(39.189148%, 46.466064%, 99.62616%)" offset="0.3125"/><stop stop-opacity="1" stop-color="rgb(39.501953%, 46.742249%, 99.621582%)" offset="0.316406"/><stop stop-opacity="1" stop-color="rgb(39.814758%, 47.019958%, 99.617004%)" offset="0.320313"/><stop stop-opacity="1" stop-color="rgb(40.126038%, 47.296143%, 99.612427%)" offset="0.324219"/><stop stop-opacity="1" stop-color="rgb(40.438843%, 47.573853%, 99.607849%)" offset="0.328125"/><stop stop-opacity="1" stop-color="rgb(40.751648%, 47.850037%, 99.603271%)" offset="0.332031"/><stop stop-opacity="1" stop-color="rgb(41.064453%, 48.127747%, 99.598694%)" offset="0.335937"/><stop stop-opacity="1" stop-color="rgb(41.377258%, 48.403931%, 99.594116%)" offset="0.339844"/><stop stop-opacity="1" stop-color="rgb(41.690063%, 48.681641%, 99.589539%)" offset="0.34375"/><stop stop-opacity="1" stop-color="rgb(42.002869%, 48.957825%, 99.584961%)" offset="0.347656"/><stop stop-opacity="1" stop-color="rgb(42.315674%, 49.235535%, 99.580383%)" offset="0.351562"/><stop stop-opacity="1" stop-color="rgb(42.628479%, 49.511719%, 99.575806%)" offset="0.355469"/><stop stop-opacity="1" stop-color="rgb(42.941284%, 49.789429%, 99.571228%)" offset="0.359375"/><stop stop-opacity="1" stop-color="rgb(43.254089%, 50.065613%, 99.56665%)" offset="0.363281"/><stop stop-opacity="1" stop-color="rgb(43.566895%, 50.343323%, 99.562073%)" offset="0.367187"/><stop stop-opacity="1" stop-color="rgb(43.8797%, 50.619507%, 99.557495%)" offset="0.371094"/><stop stop-opacity="1" stop-color="rgb(44.192505%, 50.897217%, 99.552917%)" offset="0.375"/><stop stop-opacity="1" stop-color="rgb(44.50531%, 51.173401%, 99.54834%)" offset="0.378906"/><stop stop-opacity="1" stop-color="rgb(44.818115%, 51.451111%, 99.543762%)" offset="0.382812"/><stop stop-opacity="1" stop-color="rgb(45.13092%, 51.727295%, 99.539185%)" offset="0.386719"/><stop stop-opacity="1" stop-color="rgb(45.443726%, 52.005005%, 99.534607%)" offset="0.390625"/><stop stop-opacity="1" stop-color="rgb(45.756531%, 52.281189%, 99.530029%)" offset="0.394531"/><stop stop-opacity="1" stop-color="rgb(46.069336%, 52.558899%, 99.525452%)" offset="0.398437"/><stop stop-opacity="1" stop-color="rgb(46.382141%, 52.835083%, 99.520874%)" offset="0.402344"/><stop stop-opacity="1" stop-color="rgb(46.694946%, 53.112793%, 99.516296%)" offset="0.40625"/><stop stop-opacity="1" stop-color="rgb(47.007751%, 53.388977%, 99.511719%)" offset="0.410156"/><stop stop-opacity="1" stop-color="rgb(47.320557%, 53.665161%, 99.507141%)" offset="0.414062"/><stop stop-opacity="1" stop-color="rgb(47.633362%, 53.941345%, 99.502563%)" offset="0.417969"/><stop stop-opacity="1" stop-color="rgb(47.946167%, 54.219055%, 99.497986%)" offset="0.421875"/><stop stop-opacity="1" stop-color="rgb(48.257446%, 54.495239%, 99.493408%)" offset="0.425781"/><stop stop-opacity="1" stop-color="rgb(48.570251%, 54.772949%, 99.488831%)" offset="0.429688"/><stop stop-opacity="1" stop-color="rgb(48.883057%, 55.049133%, 99.484253%)" offset="0.433594"/><stop stop-opacity="1" stop-color="rgb(49.195862%, 55.326843%, 99.479675%)" offset="0.4375"/><stop stop-opacity="1" stop-color="rgb(49.508667%, 55.603027%, 99.475098%)" offset="0.441406"/><stop stop-opacity="1" stop-color="rgb(49.821472%, 55.880737%, 99.47052%)" offset="0.445312"/><stop stop-opacity="1" stop-color="rgb(50.134277%, 56.156921%, 99.465942%)" offset="0.449219"/><stop stop-opacity="1" stop-color="rgb(50.447083%, 56.434631%, 99.461365%)" offset="0.453125"/><stop stop-opacity="1" stop-color="rgb(50.759888%, 56.710815%, 99.456787%)" offset="0.457031"/><stop stop-opacity="1" stop-color="rgb(51.072693%, 56.988525%, 99.452209%)" offset="0.460938"/><stop stop-opacity="1" stop-color="rgb(51.385498%, 57.264709%, 99.447632%)" offset="0.464844"/><stop stop-opacity="1" stop-color="rgb(51.698303%, 57.542419%, 99.443054%)" offset="0.46875"/><stop stop-opacity="1" stop-color="rgb(52.011108%, 57.818604%, 99.438477%)" offset="0.472656"/><stop stop-opacity="1" stop-color="rgb(52.323914%, 58.096313%, 99.433899%)" offset="0.476563"/><stop stop-opacity="1" stop-color="rgb(52.636719%, 58.372498%, 99.429321%)" offset="0.480469"/><stop stop-opacity="1" stop-color="rgb(52.949524%, 58.650208%, 99.424744%)" offset="0.484375"/><stop stop-opacity="1" stop-color="rgb(53.262329%, 58.926392%, 99.420166%)" offset="0.488281"/><stop stop-opacity="1" stop-color="rgb(53.575134%, 59.204102%, 99.415588%)" offset="0.492188"/><stop stop-opacity="1" stop-color="rgb(53.887939%, 59.480286%, 99.411011%)" offset="0.496094"/><stop stop-opacity="1" stop-color="rgb(54.200745%, 59.757996%, 99.406433%)" offset="0.5"/><stop stop-opacity="1" stop-color="rgb(54.51355%, 60.03418%, 99.401855%)" offset="0.503906"/><stop stop-opacity="1" stop-color="rgb(54.826355%, 60.31189%, 99.397278%)" offset="0.507812"/><stop stop-opacity="1" stop-color="rgb(55.13916%, 60.588074%, 99.3927%)" offset="0.511719"/><stop stop-opacity="1" stop-color="rgb(55.451965%, 60.865784%, 99.388123%)" offset="0.515625"/><stop stop-opacity="1" stop-color="rgb(55.764771%, 61.141968%, 99.383545%)" offset="0.519531"/><stop stop-opacity="1" stop-color="rgb(56.077576%, 61.419678%, 99.378967%)" offset="0.523438"/><stop stop-opacity="1" stop-color="rgb(56.388855%, 61.695862%, 99.37439%)" offset="0.527344"/><stop stop-opacity="1" stop-color="rgb(56.70166%, 61.972046%, 99.369812%)" offset="0.53125"/><stop stop-opacity="1" stop-color="rgb(57.014465%, 62.24823%, 99.365234%)" offset="0.535156"/><stop stop-opacity="1" stop-color="rgb(57.327271%, 62.52594%, 99.360657%)" offset="0.539062"/><stop stop-opacity="1" stop-color="rgb(57.640076%, 62.802124%, 99.356079%)" offset="0.542969"/><stop stop-opacity="1" stop-color="rgb(57.952881%, 63.079834%, 99.351501%)" offset="0.546875"/><stop stop-opacity="1" stop-color="rgb(58.265686%, 63.356018%, 99.346924%)" offset="0.550781"/><stop stop-opacity="1" stop-color="rgb(58.578491%, 63.633728%, 99.342346%)" offset="0.554688"/><stop stop-opacity="1" stop-color="rgb(58.891296%, 63.909912%, 99.337769%)" offset="0.558594"/><stop stop-opacity="1" stop-color="rgb(59.204102%, 64.187622%, 99.333191%)" offset="0.5625"/><stop stop-opacity="1" stop-color="rgb(59.516907%, 64.463806%, 99.328613%)" offset="0.566406"/><stop stop-opacity="1" stop-color="rgb(59.829712%, 64.741516%, 99.324036%)" offset="0.570313"/><stop stop-opacity="1" stop-color="rgb(60.142517%, 65.0177%, 99.319458%)" offset="0.574219"/><stop stop-opacity="1" stop-color="rgb(60.455322%, 65.29541%, 99.31488%)" offset="0.578125"/><stop stop-opacity="1" stop-color="rgb(60.768127%, 65.571594%, 99.310303%)" offset="0.582031"/><stop stop-opacity="1" stop-color="rgb(61.080933%, 65.849304%, 99.305725%)" offset="0.585938"/><stop stop-opacity="1" stop-color="rgb(61.393738%, 66.125488%, 99.301147%)" offset="0.589844"/><stop stop-opacity="1" stop-color="rgb(61.706543%, 66.403198%, 99.29657%)" offset="0.59375"/><stop stop-opacity="1" stop-color="rgb(62.019348%, 66.679382%, 99.291992%)" offset="0.597656"/><stop stop-opacity="1" stop-color="rgb(62.332153%, 66.957092%, 99.287415%)" offset="0.601562"/><stop stop-opacity="1" stop-color="rgb(62.644958%, 67.233276%, 99.282837%)" offset="0.605469"/><stop stop-opacity="1" stop-color="rgb(62.957764%, 67.510986%, 99.278259%)" offset="0.609375"/><stop stop-opacity="1" stop-color="rgb(63.270569%, 67.78717%, 99.273682%)" offset="0.613281"/><stop stop-opacity="1" stop-color="rgb(63.583374%, 68.06488%, 99.269104%)" offset="0.617188"/><stop stop-opacity="1" stop-color="rgb(63.896179%, 68.341064%, 99.264526%)" offset="0.621094"/><stop stop-opacity="1" stop-color="rgb(64.208984%, 68.618774%, 99.259949%)" offset="0.625"/><stop stop-opacity="1" stop-color="rgb(64.520264%, 68.894958%, 99.255371%)" offset="0.628906"/><stop stop-opacity="1" stop-color="rgb(64.833069%, 69.172668%, 99.250793%)" offset="0.632812"/><stop stop-opacity="1" stop-color="rgb(65.145874%, 69.448853%, 99.246216%)" offset="0.636719"/><stop stop-opacity="1" stop-color="rgb(65.458679%, 69.725037%, 99.241638%)" offset="0.640625"/><stop stop-opacity="1" stop-color="rgb(65.771484%, 70.001221%, 99.237061%)" offset="0.644531"/><stop stop-opacity="1" stop-color="rgb(66.08429%, 70.278931%, 99.232483%)" offset="0.648438"/><stop stop-opacity="1" stop-color="rgb(66.397095%, 70.555115%, 99.227905%)" offset="0.652344"/><stop stop-opacity="1" stop-color="rgb(66.7099%, 70.832825%, 99.223328%)" offset="0.65625"/><stop stop-opacity="1" stop-color="rgb(67.022705%, 71.109009%, 99.21875%)" offset="0.660156"/><stop stop-opacity="1" stop-color="rgb(67.33551%, 71.386719%, 99.214172%)" offset="0.664062"/><stop stop-opacity="1" stop-color="rgb(67.648315%, 71.662903%, 99.209595%)" offset="0.667969"/><stop stop-opacity="1" stop-color="rgb(67.961121%, 71.940613%, 99.205017%)" offset="0.671875"/><stop stop-opacity="1" stop-color="rgb(68.273926%, 72.216797%, 99.200439%)" offset="0.675781"/><stop stop-opacity="1" stop-color="rgb(68.586731%, 72.494507%, 99.195862%)" offset="0.679688"/><stop stop-opacity="1" stop-color="rgb(68.899536%, 72.770691%, 99.191284%)" offset="0.683594"/><stop stop-opacity="1" stop-color="rgb(69.212341%, 73.048401%, 99.186707%)" offset="0.6875"/><stop stop-opacity="1" stop-color="rgb(69.525146%, 73.324585%, 99.182129%)" offset="0.691406"/><stop stop-opacity="1" stop-color="rgb(69.837952%, 73.602295%, 99.177551%)" offset="0.695312"/><stop stop-opacity="1" stop-color="rgb(70.150757%, 73.878479%, 99.172974%)" offset="0.699219"/><stop stop-opacity="1" stop-color="rgb(70.463562%, 74.156189%, 99.168396%)" offset="0.703125"/><stop stop-opacity="1" stop-color="rgb(70.776367%, 74.432373%, 99.163818%)" offset="0.707031"/><stop stop-opacity="1" stop-color="rgb(71.089172%, 74.710083%, 99.159241%)" offset="0.710938"/><stop stop-opacity="1" stop-color="rgb(71.401978%, 74.986267%, 99.154663%)" offset="0.714844"/><stop stop-opacity="1" stop-color="rgb(71.714783%, 75.263977%, 99.150085%)" offset="0.71875"/><stop stop-opacity="1" stop-color="rgb(72.026062%, 75.540161%, 99.145508%)" offset="0.722656"/><stop stop-opacity="1" stop-color="rgb(72.338867%, 75.817871%, 99.14093%)" offset="0.726562"/><stop stop-opacity="1" stop-color="rgb(72.651672%, 76.094055%, 99.136353%)" offset="0.730469"/><stop stop-opacity="1" stop-color="rgb(72.964478%, 76.371765%, 99.131775%)" offset="0.734375"/><stop stop-opacity="1" stop-color="rgb(73.277283%, 76.647949%, 99.127197%)" offset="0.738281"/><stop stop-opacity="1" stop-color="rgb(73.590088%, 76.925659%, 99.12262%)" offset="0.742187"/><stop stop-opacity="1" stop-color="rgb(73.902893%, 77.201843%, 99.118042%)" offset="0.746094"/><stop stop-opacity="1" stop-color="rgb(74.215698%, 77.478027%, 99.113464%)" offset="0.75"/><stop stop-opacity="1" stop-color="rgb(74.528503%, 77.754211%, 99.108887%)" offset="0.753906"/><stop stop-opacity="1" stop-color="rgb(74.841309%, 78.031921%, 99.104309%)" offset="0.757812"/><stop stop-opacity="1" stop-color="rgb(75.154114%, 78.308105%, 99.099731%)" offset="0.761719"/><stop stop-opacity="1" stop-color="rgb(75.466919%, 78.585815%, 99.095154%)" offset="0.765625"/><stop stop-opacity="1" stop-color="rgb(75.779724%, 78.862%, 99.090576%)" offset="0.769531"/><stop stop-opacity="1" stop-color="rgb(76.092529%, 79.139709%, 99.085999%)" offset="0.773438"/><stop stop-opacity="1" stop-color="rgb(76.405334%, 79.415894%, 99.081421%)" offset="0.777344"/><stop stop-opacity="1" stop-color="rgb(76.71814%, 79.693604%, 99.076843%)" offset="0.78125"/><stop stop-opacity="1" stop-color="rgb(77.030945%, 79.969788%, 99.072266%)" offset="0.785156"/><stop stop-opacity="1" stop-color="rgb(77.34375%, 80.247498%, 99.067688%)" offset="0.789062"/><stop stop-opacity="1" stop-color="rgb(77.656555%, 80.523682%, 99.06311%)" offset="0.792969"/><stop stop-opacity="1" stop-color="rgb(77.96936%, 80.801392%, 99.058533%)" offset="0.796875"/><stop stop-opacity="1" stop-color="rgb(78.282166%, 81.077576%, 99.053955%)" offset="0.800781"/><stop stop-opacity="1" stop-color="rgb(78.594971%, 81.355286%, 99.049377%)" offset="0.804687"/><stop stop-opacity="1" stop-color="rgb(78.907776%, 81.63147%, 99.0448%)" offset="0.808594"/><stop stop-opacity="1" stop-color="rgb(79.220581%, 81.90918%, 99.040222%)" offset="0.8125"/><stop stop-opacity="1" stop-color="rgb(79.533386%, 82.185364%, 99.035645%)" offset="0.816406"/><stop stop-opacity="1" stop-color="rgb(79.846191%, 82.463074%, 99.031067%)" offset="0.820312"/><stop stop-opacity="1" stop-color="rgb(80.157471%, 82.739258%, 99.026489%)" offset="0.824219"/><stop stop-opacity="1" stop-color="rgb(80.470276%, 83.016968%, 99.021912%)" offset="0.828125"/><stop stop-opacity="1" stop-color="rgb(80.783081%, 83.293152%, 99.017334%)" offset="0.832031"/><stop stop-opacity="1" stop-color="rgb(81.095886%, 83.570862%, 99.012756%)" offset="0.835938"/><stop stop-opacity="1" stop-color="rgb(81.408691%, 83.847046%, 99.008179%)" offset="0.839844"/><stop stop-opacity="1" stop-color="rgb(81.721497%, 84.124756%, 99.003601%)" offset="0.84375"/><stop stop-opacity="1" stop-color="rgb(82.034302%, 84.40094%, 98.999023%)" offset="0.847656"/><stop stop-opacity="1" stop-color="rgb(82.347107%, 84.67865%, 98.994446%)" offset="0.851562"/><stop stop-opacity="1" stop-color="rgb(82.659912%, 84.954834%, 98.989868%)" offset="0.855469"/><stop stop-opacity="1" stop-color="rgb(82.972717%, 85.232544%, 98.985291%)" offset="0.859375"/><stop stop-opacity="1" stop-color="rgb(83.285522%, 85.508728%, 98.980713%)" offset="0.863281"/><stop stop-opacity="1" stop-color="rgb(83.598328%, 85.784912%, 98.976135%)" offset="0.867188"/><stop stop-opacity="1" stop-color="rgb(83.911133%, 86.061096%, 98.971558%)" offset="0.871094"/><stop stop-opacity="1" stop-color="rgb(84.223938%, 86.338806%, 98.96698%)" offset="0.875"/><stop stop-opacity="1" stop-color="rgb(84.536743%, 86.61499%, 98.962402%)" offset="0.878906"/><stop stop-opacity="1" stop-color="rgb(84.849548%, 86.8927%, 98.957825%)" offset="0.882812"/><stop stop-opacity="1" stop-color="rgb(85.162354%, 87.168884%, 98.953247%)" offset="0.886719"/><stop stop-opacity="1" stop-color="rgb(85.475159%, 87.446594%, 98.948669%)" offset="0.890625"/><stop stop-opacity="1" stop-color="rgb(85.787964%, 87.722778%, 98.944092%)" offset="0.894531"/><stop stop-opacity="1" stop-color="rgb(86.100769%, 88.000488%, 98.939514%)" offset="0.898437"/><stop stop-opacity="1" stop-color="rgb(86.413574%, 88.276672%, 98.934937%)" offset="0.902344"/><stop stop-opacity="1" stop-color="rgb(86.726379%, 88.554382%, 98.930359%)" offset="0.90625"/><stop stop-opacity="1" stop-color="rgb(87.039185%, 88.830566%, 98.925781%)" offset="0.910156"/><stop stop-opacity="1" stop-color="rgb(87.35199%, 89.108276%, 98.921204%)" offset="0.914062"/><stop stop-opacity="1" stop-color="rgb(87.664795%, 89.38446%, 98.916626%)" offset="0.917969"/><stop stop-opacity="1" stop-color="rgb(87.9776%, 89.66217%, 98.912048%)" offset="0.921875"/><stop stop-opacity="1" stop-color="rgb(88.288879%, 89.938354%, 98.907471%)" offset="0.925781"/><stop stop-opacity="1" stop-color="rgb(88.601685%, 90.216064%, 98.902893%)" offset="0.929688"/><stop stop-opacity="1" stop-color="rgb(88.91449%, 90.492249%, 98.898315%)" offset="0.933594"/><stop stop-opacity="1" stop-color="rgb(89.227295%, 90.769958%, 98.893738%)" offset="0.9375"/><stop stop-opacity="1" stop-color="rgb(89.5401%, 91.046143%, 98.88916%)" offset="0.941406"/><stop stop-opacity="1" stop-color="rgb(89.852905%, 91.323853%, 98.884583%)" offset="0.945313"/><stop stop-opacity="1" stop-color="rgb(90.16571%, 91.600037%, 98.880005%)" offset="0.949219"/><stop stop-opacity="1" stop-color="rgb(90.478516%, 91.877747%, 98.875427%)" offset="0.953125"/><stop stop-opacity="1" stop-color="rgb(90.791321%, 92.153931%, 98.87085%)" offset="0.957031"/><stop stop-opacity="1" stop-color="rgb(91.104126%, 92.431641%, 98.866272%)" offset="0.960938"/><stop stop-opacity="1" stop-color="rgb(91.416931%, 92.707825%, 98.861694%)" offset="0.964844"/><stop stop-opacity="1" stop-color="rgb(91.729736%, 92.985535%, 98.857117%)" offset="0.96875"/><stop stop-opacity="1" stop-color="rgb(92.042542%, 93.261719%, 98.852539%)" offset="0.972656"/><stop stop-opacity="1" stop-color="rgb(92.355347%, 93.537903%, 98.847961%)" offset="0.976562"/><stop stop-opacity="1" stop-color="rgb(92.668152%, 93.814087%, 98.843384%)" offset="0.980469"/><stop stop-opacity="1" stop-color="rgb(92.980957%, 94.091797%, 98.838806%)" offset="0.984375"/><stop stop-opacity="1" stop-color="rgb(93.293762%, 94.367981%, 98.834229%)" offset="0.988281"/><stop stop-opacity="1" stop-color="rgb(93.606567%, 94.645691%, 98.829651%)" offset="0.992188"/><stop stop-opacity="1" stop-color="rgb(93.919373%, 94.921875%, 98.825073%)" offset="0.996094"/><stop stop-opacity="1" stop-color="rgb(94.232178%, 95.199585%, 98.820496%)" offset="1"/></linearGradient></defs><g clip-path="url(#b95a3c5251)"><g clip-path="url(#3278ea7fc2)"><path fill="url(#acd01e3cb9)" d="M 119.621094 27.179688 L 119.621094 233.429688 L 255.285156 233.429688 L 255.285156 27.179688 Z M 119.621094 27.179688 " fill-rule="nonzero"/></g></g><g fill="#ffffff" fill-opacity="1"><g transform="translate(42.6175, 280.841211)"><g><path d="M 1.65625 -3.328125 C 1.09375 -4.015625 0.8125 -4.632812 0.8125 -5.1875 C 0.8125 -5.738281 1.273438 -6.46875 2.203125 -7.375 C 2.742188 -7.894531 3.3125 -8.15625 3.90625 -8.15625 C 4.507812 -8.15625 5.351562 -7.613281 6.4375 -6.53125 C 6.738281 -6.164062 7.171875 -5.816406 7.734375 -5.484375 C 8.296875 -5.148438 8.8125 -4.984375 9.28125 -4.984375 C 11.289062 -4.984375 12.296875 -5.800781 12.296875 -7.4375 C 12.296875 -7.9375 12.019531 -8.351562 11.46875 -8.6875 C 10.914062 -9.019531 10.226562 -9.257812 9.40625 -9.40625 C 8.59375 -9.5625 7.710938 -9.804688 6.765625 -10.140625 C 5.816406 -10.472656 4.929688 -10.863281 4.109375 -11.3125 C 3.285156 -11.769531 2.597656 -12.488281 2.046875 -13.46875 C 1.503906 -14.445312 1.234375 -15.628906 1.234375 -17.015625 C 1.234375 -18.910156 1.9375 -20.5625 3.34375 -21.96875 C 4.757812 -23.382812 6.6875 -24.09375 9.125 -24.09375 C 10.414062 -24.09375 11.59375 -23.925781 12.65625 -23.59375 C 13.726562 -23.257812 14.46875 -22.921875 14.875 -22.578125 L 15.6875 -21.96875 C 16.351562 -21.34375 16.6875 -20.8125 16.6875 -20.375 C 16.6875 -19.945312 16.425781 -19.351562 15.90625 -18.59375 C 15.175781 -17.519531 14.425781 -16.984375 13.65625 -16.984375 C 13.195312 -16.984375 12.632812 -17.195312 11.96875 -17.625 C 11.90625 -17.664062 11.78125 -17.769531 11.59375 -17.9375 C 11.414062 -18.113281 11.25 -18.257812 11.09375 -18.375 C 10.644531 -18.65625 10.066406 -18.796875 9.359375 -18.796875 C 8.660156 -18.796875 8.078125 -18.628906 7.609375 -18.296875 C 7.148438 -17.960938 6.921875 -17.5 6.921875 -16.90625 C 6.921875 -16.3125 7.195312 -15.828125 7.75 -15.453125 C 8.300781 -15.085938 8.984375 -14.835938 9.796875 -14.703125 C 10.617188 -14.578125 11.515625 -14.378906 12.484375 -14.109375 C 13.453125 -13.847656 14.34375 -13.519531 15.15625 -13.125 C 15.976562 -12.738281 16.664062 -12.066406 17.21875 -11.109375 C 17.769531 -10.148438 18.046875 -8.96875 18.046875 -7.5625 C 18.046875 -6.164062 17.765625 -4.929688 17.203125 -3.859375 C 16.640625 -2.796875 15.90625 -1.972656 15 -1.390625 C 13.257812 -0.242188 11.394531 0.328125 9.40625 0.328125 C 8.394531 0.328125 7.4375 0.203125 6.53125 -0.046875 C 5.625 -0.296875 4.890625 -0.601562 4.328125 -0.96875 C 3.191406 -1.65625 2.394531 -2.320312 1.9375 -2.96875 Z M 1.65625 -3.328125 "/></g></g></g><g fill="#ffffff" fill-opacity="1"><g transform="translate(69.262524, 280.841211)"><g><path d="M 12.421875 -24 C 15.609375 -24 18.378906 -22.84375 20.734375 -20.53125 C 23.085938 -18.226562 24.265625 -15.367188 24.265625 -11.953125 C 24.265625 -8.535156 23.140625 -5.625 20.890625 -3.21875 C 18.648438 -0.8125 15.890625 0.390625 12.609375 0.390625 C 9.335938 0.390625 6.550781 -0.796875 4.25 -3.171875 C 1.957031 -5.546875 0.8125 -8.367188 0.8125 -11.640625 C 0.8125 -13.429688 1.132812 -15.109375 1.78125 -16.671875 C 2.425781 -18.234375 3.285156 -19.539062 4.359375 -20.59375 C 5.441406 -21.65625 6.679688 -22.488281 8.078125 -23.09375 C 9.484375 -23.695312 10.929688 -24 12.421875 -24 Z M 6.53125 -11.796875 C 6.53125 -9.878906 7.148438 -8.320312 8.390625 -7.125 C 9.628906 -5.9375 11.015625 -5.34375 12.546875 -5.34375 C 14.078125 -5.34375 15.457031 -5.921875 16.6875 -7.078125 C 17.914062 -8.242188 18.53125 -9.804688 18.53125 -11.765625 C 18.53125 -13.734375 17.910156 -15.3125 16.671875 -16.5 C 15.429688 -17.6875 14.046875 -18.28125 12.515625 -18.28125 C 10.984375 -18.28125 9.601562 -17.679688 8.375 -16.484375 C 7.144531 -15.285156 6.53125 -13.722656 6.53125 -11.796875 Z M 6.53125 -11.796875 "/></g></g></g><g fill="#ffffff" fill-opacity="1"><g transform="translate(102.115687, 280.841211)"><g><path d="M 16.78125 -22.828125 C 17 -23.179688 17.3125 -23.421875 17.71875 -23.546875 C 18.132812 -23.671875 18.648438 -23.734375 19.265625 -23.734375 C 19.878906 -23.734375 20.367188 -23.679688 20.734375 -23.578125 C 21.097656 -23.472656 21.375 -23.34375 21.5625 -23.1875 C 21.757812 -23.039062 21.90625 -22.816406 22 -22.515625 C 22.125 -22.148438 22.1875 -21.585938 22.1875 -20.828125 L 22.1875 -11.0625 C 22.1875 -8.21875 21.300781 -5.628906 19.53125 -3.296875 C 18.664062 -2.203125 17.554688 -1.3125 16.203125 -0.625 C 14.847656 0.0507812 13.34375 0.390625 11.6875 0.390625 C 10.039062 0.390625 8.539062 0.046875 7.1875 -0.640625 C 5.84375 -1.335938 4.75 -2.242188 3.90625 -3.359375 C 2.164062 -5.648438 1.296875 -8.238281 1.296875 -11.125 L 1.296875 -20.859375 C 1.296875 -21.378906 1.3125 -21.757812 1.34375 -22 C 1.375 -22.25 1.472656 -22.535156 1.640625 -22.859375 C 1.816406 -23.191406 2.109375 -23.421875 2.515625 -23.546875 C 2.929688 -23.671875 3.484375 -23.734375 4.171875 -23.734375 C 4.859375 -23.734375 5.40625 -23.671875 5.8125 -23.546875 C 6.226562 -23.421875 6.507812 -23.191406 6.65625 -22.859375 C 6.914062 -22.367188 7.046875 -21.691406 7.046875 -20.828125 L 7.046875 -11.125 C 7.046875 -9.8125 7.367188 -8.5625 8.015625 -7.375 C 8.335938 -6.769531 8.820312 -6.285156 9.46875 -5.921875 C 10.125 -5.554688 10.890625 -5.375 11.765625 -5.375 C 13.347656 -5.375 14.523438 -5.953125 15.296875 -7.109375 C 16.078125 -8.273438 16.46875 -9.625 16.46875 -11.15625 L 16.46875 -21.0625 C 16.46875 -21.894531 16.570312 -22.484375 16.78125 -22.828125 Z M 16.78125 -22.828125 "/></g></g></g><g fill="#ffffff" fill-opacity="1"><g transform="translate(133.38449, 280.841211)"><g><path d="M 16.609375 -22.71875 C 16.816406 -23.09375 17.125 -23.34375 17.53125 -23.46875 C 17.9375 -23.601562 18.445312 -23.671875 19.0625 -23.671875 C 19.675781 -23.671875 20.171875 -23.617188 20.546875 -23.515625 C 20.929688 -23.410156 21.210938 -23.28125 21.390625 -23.125 C 21.578125 -22.976562 21.710938 -22.753906 21.796875 -22.453125 C 21.929688 -22.097656 22 -21.546875 22 -20.796875 L 22 -2.84375 C 22 -2.320312 21.976562 -1.941406 21.9375 -1.703125 C 21.90625 -1.472656 21.804688 -1.195312 21.640625 -0.875 C 21.335938 -0.289062 20.492188 0 19.109375 0 C 18.273438 0 17.695312 -0.0625 17.375 -0.1875 C 17.050781 -0.320312 16.78125 -0.53125 16.5625 -0.8125 C 11.707031 -7.28125 8.515625 -11.503906 6.984375 -13.484375 L 6.984375 -2.84375 C 6.984375 -2.320312 6.96875 -1.941406 6.9375 -1.703125 C 6.90625 -1.472656 6.800781 -1.195312 6.625 -0.875 C 6.320312 -0.289062 5.484375 0 4.109375 0 C 2.773438 0 1.957031 -0.289062 1.65625 -0.875 C 1.476562 -1.195312 1.375 -1.488281 1.34375 -1.75 C 1.3125 -2.007812 1.296875 -2.382812 1.296875 -2.875 L 1.296875 -20.921875 C 1.296875 -21.742188 1.394531 -22.34375 1.59375 -22.71875 C 1.800781 -23.09375 2.109375 -23.34375 2.515625 -23.46875 C 2.929688 -23.601562 3.460938 -23.671875 4.109375 -23.671875 C 4.753906 -23.671875 5.265625 -23.609375 5.640625 -23.484375 C 6.015625 -23.367188 6.28125 -23.238281 6.4375 -23.09375 C 6.519531 -23.03125 6.769531 -22.75 7.1875 -22.25 C 11.726562 -16.0625 14.765625 -11.976562 16.296875 -10 L 16.296875 -20.921875 C 16.296875 -21.742188 16.398438 -22.34375 16.609375 -22.71875 Z M 16.609375 -22.71875 "/></g></g></g><g fill="#ffffff" fill-opacity="1"><g transform="translate(164.459285, 280.841211)"><g><path d="M 4.171875 -23.734375 L 10.15625 -23.703125 C 13.28125 -23.703125 16.03125 -22.578125 18.40625 -20.328125 C 20.78125 -18.078125 21.96875 -15.304688 21.96875 -12.015625 C 21.96875 -8.722656 20.804688 -5.898438 18.484375 -3.546875 C 16.160156 -1.203125 13.351562 -0.03125 10.0625 -0.03125 L 4.140625 -0.03125 C 2.828125 -0.03125 2.007812 -0.300781 1.6875 -0.84375 C 1.425781 -1.289062 1.296875 -1.976562 1.296875 -2.90625 L 1.296875 -20.890625 C 1.296875 -21.410156 1.3125 -21.785156 1.34375 -22.015625 C 1.375 -22.253906 1.476562 -22.535156 1.65625 -22.859375 C 1.957031 -23.441406 2.796875 -23.734375 4.171875 -23.734375 Z M 10.15625 -5.75 C 11.707031 -5.75 13.109375 -6.328125 14.359375 -7.484375 C 15.609375 -8.640625 16.234375 -10.085938 16.234375 -11.828125 C 16.234375 -13.578125 15.625 -15.039062 14.40625 -16.21875 C 13.1875 -17.394531 11.757812 -17.984375 10.125 -17.984375 L 7.015625 -17.984375 L 7.015625 -5.75 Z M 10.15625 -5.75 "/></g></g></g><g fill="#ffffff" fill-opacity="1"><g transform="translate(195.016728, 280.841211)"><g><path d="M 18.171875 -12.71875 C 19.441406 -11.207031 20.078125 -9.515625 20.078125 -7.640625 C 20.035156 -5.484375 19.296875 -3.675781 17.859375 -2.21875 C 16.429688 -0.757812 14.691406 -0.03125 12.640625 -0.03125 L 4.140625 -0.03125 C 2.628906 -0.03125 1.742188 -0.441406 1.484375 -1.265625 C 1.359375 -1.628906 1.296875 -2.1875 1.296875 -2.9375 L 1.296875 -20.890625 C 1.296875 -21.410156 1.3125 -21.785156 1.34375 -22.015625 C 1.375 -22.253906 1.476562 -22.535156 1.65625 -22.859375 C 1.957031 -23.441406 2.796875 -23.734375 4.171875 -23.734375 L 12.328125 -23.734375 C 14.304688 -23.734375 15.960938 -23.046875 17.296875 -21.671875 C 18.703125 -20.265625 19.40625 -18.582031 19.40625 -16.625 C 19.40625 -15.195312 18.992188 -13.894531 18.171875 -12.71875 Z M 14.359375 -7.953125 C 14.359375 -8.472656 14.296875 -8.882812 14.171875 -9.1875 C 14.054688 -9.488281 13.859375 -9.703125 13.578125 -9.828125 C 13.148438 -10.003906 12.546875 -10.09375 11.765625 -10.09375 C 10.992188 -10.09375 10.410156 -10.242188 10.015625 -10.546875 C 9.628906 -10.847656 9.4375 -11.46875 9.4375 -12.40625 C 9.4375 -13.34375 9.632812 -13.960938 10.03125 -14.265625 C 10.4375 -14.566406 11.101562 -14.71875 12.03125 -14.71875 C 12.894531 -14.71875 13.410156 -14.941406 13.578125 -15.390625 C 13.648438 -15.628906 13.6875 -16.019531 13.6875 -16.5625 C 13.6875 -17.101562 13.503906 -17.476562 13.140625 -17.6875 C 12.785156 -17.90625 12.253906 -18.015625 11.546875 -18.015625 L 7.015625 -18.015625 L 7.015625 -5.75 L 12.328125 -5.75 C 13.679688 -5.75 14.359375 -6.484375 14.359375 -7.953125 Z M 14.359375 -7.953125 "/></g></g></g><g fill="#ffffff" fill-opacity="1"><g transform="translate(223.698799, 280.841211)"><g><path d="M 20.125 -23.25 C 21.175781 -22.519531 21.703125 -21.8125 21.703125 -21.125 C 21.703125 -20.707031 21.453125 -20.132812 20.953125 -19.40625 L 13.96875 -8.953125 L 13.96875 -2.78125 C 13.96875 -2.28125 13.953125 -1.90625 13.921875 -1.65625 C 13.890625 -1.414062 13.785156 -1.132812 13.609375 -0.8125 C 13.441406 -0.488281 13.148438 -0.257812 12.734375 -0.125 C 12.328125 0 11.78125 0.0625 11.09375 0.0625 C 10.40625 0.0625 9.851562 0 9.4375 -0.125 C 9.03125 -0.257812 8.738281 -0.492188 8.5625 -0.828125 C 8.394531 -1.160156 8.296875 -1.445312 8.265625 -1.6875 C 8.234375 -1.9375 8.21875 -2.320312 8.21875 -2.84375 L 8.21875 -8.953125 L 1.234375 -19.40625 C 0.734375 -20.132812 0.484375 -20.707031 0.484375 -21.125 C 0.484375 -21.8125 0.957031 -22.472656 1.90625 -23.109375 C 2.851562 -23.742188 3.53125 -24.0625 3.9375 -24.0625 C 4.351562 -24.0625 4.679688 -23.976562 4.921875 -23.8125 C 5.285156 -23.570312 5.671875 -23.128906 6.078125 -22.484375 L 11.09375 -14.453125 L 16.109375 -22.484375 C 16.515625 -23.128906 16.867188 -23.550781 17.171875 -23.75 C 17.472656 -23.957031 17.820312 -24.0625 18.21875 -24.0625 C 18.625 -24.0625 19.257812 -23.789062 20.125 -23.25 Z M 20.125 -23.25 "/></g></g></g><g fill="#ffffff" fill-opacity="1"><g transform="translate(253.674247, 280.841211)"><g><path d="M 2.84375 -23.734375 L 20.828125 -23.734375 C 21.515625 -23.734375 22.019531 -23.648438 22.34375 -23.484375 C 22.664062 -23.328125 22.878906 -23.078125 22.984375 -22.734375 C 23.097656 -22.390625 23.15625 -21.9375 23.15625 -21.375 C 23.15625 -20.8125 23.097656 -20.363281 22.984375 -20.03125 C 22.878906 -19.695312 22.703125 -19.46875 22.453125 -19.34375 C 22.054688 -19.144531 21.503906 -19.046875 20.796875 -19.046875 L 14.625 -19.046875 L 14.625 -2.78125 C 14.625 -2.28125 14.601562 -1.910156 14.5625 -1.671875 C 14.53125 -1.441406 14.429688 -1.171875 14.265625 -0.859375 C 14.109375 -0.546875 13.828125 -0.320312 13.421875 -0.1875 C 13.015625 -0.0625 12.472656 0 11.796875 0 C 11.128906 0 10.597656 -0.0625 10.203125 -0.1875 C 9.804688 -0.320312 9.523438 -0.546875 9.359375 -0.859375 C 9.203125 -1.171875 9.109375 -1.445312 9.078125 -1.6875 C 9.046875 -1.9375 9.03125 -2.3125 9.03125 -2.8125 L 9.03125 -19.046875 L 2.8125 -19.046875 C 2.125 -19.046875 1.617188 -19.125 1.296875 -19.28125 C 0.972656 -19.445312 0.753906 -19.703125 0.640625 -20.046875 C 0.535156 -20.398438 0.484375 -20.851562 0.484375 -21.40625 C 0.484375 -21.96875 0.535156 -22.414062 0.640625 -22.75 C 0.753906 -23.082031 0.941406 -23.316406 1.203125 -23.453125 C 1.585938 -23.640625 2.132812 -23.734375 2.84375 -23.734375 Z M 2.84375 -23.734375 "/></g></g></g><g fill="#ffffff" fill-opacity="1"><g transform="translate(285.104712, 280.841211)"><g><path d="M 7.015625 -5.71875 L 16.984375 -5.71875 C 17.472656 -5.71875 17.84375 -5.703125 18.09375 -5.671875 C 18.34375 -5.640625 18.628906 -5.539062 18.953125 -5.375 C 19.535156 -5.070312 19.828125 -4.226562 19.828125 -2.84375 C 19.828125 -1.332031 19.425781 -0.445312 18.625 -0.1875 C 18.257812 -0.0625 17.703125 0 16.953125 0 L 4.140625 0 C 2.628906 0 1.742188 -0.410156 1.484375 -1.234375 C 1.359375 -1.578125 1.296875 -2.125 1.296875 -2.875 L 1.296875 -20.859375 C 1.296875 -21.960938 1.5 -22.710938 1.90625 -23.109375 C 2.3125 -23.503906 3.085938 -23.703125 4.234375 -23.703125 L 16.984375 -23.703125 C 17.472656 -23.703125 17.84375 -23.6875 18.09375 -23.65625 C 18.34375 -23.625 18.628906 -23.523438 18.953125 -23.359375 C 19.535156 -23.054688 19.828125 -22.210938 19.828125 -20.828125 C 19.828125 -19.316406 19.425781 -18.429688 18.625 -18.171875 C 18.257812 -18.046875 17.703125 -17.984375 16.953125 -17.984375 L 7.015625 -17.984375 L 7.015625 -14.71875 L 13.421875 -14.71875 C 13.921875 -14.71875 14.289062 -14.703125 14.53125 -14.671875 C 14.78125 -14.640625 15.066406 -14.535156 15.390625 -14.359375 C 15.972656 -14.054688 16.265625 -13.21875 16.265625 -11.84375 C 16.265625 -10.332031 15.859375 -9.445312 15.046875 -9.1875 C 14.671875 -9.050781 14.109375 -8.984375 13.359375 -8.984375 L 7.015625 -8.984375 Z M 7.015625 -5.71875 "/></g></g></g><g fill="#ffffff" fill-opacity="1"><g transform="translate(313.528125, 280.841211)"><g><path d="M 1.65625 -3.328125 C 1.09375 -4.015625 0.8125 -4.632812 0.8125 -5.1875 C 0.8125 -5.738281 1.273438 -6.46875 2.203125 -7.375 C 2.742188 -7.894531 3.3125 -8.15625 3.90625 -8.15625 C 4.507812 -8.15625 5.351562 -7.613281 6.4375 -6.53125 C 6.738281 -6.164062 7.171875 -5.816406 7.734375 -5.484375 C 8.296875 -5.148438 8.8125 -4.984375 9.28125 -4.984375 C 11.289062 -4.984375 12.296875 -5.800781 12.296875 -7.4375 C 12.296875 -7.9375 12.019531 -8.351562 11.46875 -8.6875 C 10.914062 -9.019531 10.226562 -9.257812 9.40625 -9.40625 C 8.59375 -9.5625 7.710938 -9.804688 6.765625 -10.140625 C 5.816406 -10.472656 4.929688 -10.863281 4.109375 -11.3125 C 3.285156 -11.769531 2.597656 -12.488281 2.046875 -13.46875 C 1.503906 -14.445312 1.234375 -15.628906 1.234375 -17.015625 C 1.234375 -18.910156 1.9375 -20.5625 3.34375 -21.96875 C 4.757812 -23.382812 6.6875 -24.09375 9.125 -24.09375 C 10.414062 -24.09375 11.59375 -23.925781 12.65625 -23.59375 C 13.726562 -23.257812 14.46875 -22.921875 14.875 -22.578125 L 15.6875 -21.96875 C 16.351562 -21.34375 16.6875 -20.8125 16.6875 -20.375 C 16.6875 -19.945312 16.425781 -19.351562 15.90625 -18.59375 C 15.175781 -17.519531 14.425781 -16.984375 13.65625 -16.984375 C 13.195312 -16.984375 12.632812 -17.195312 11.96875 -17.625 C 11.90625 -17.664062 11.78125 -17.769531 11.59375 -17.9375 C 11.414062 -18.113281 11.25 -18.257812 11.09375 -18.375 C 10.644531 -18.65625 10.066406 -18.796875 9.359375 -18.796875 C 8.660156 -18.796875 8.078125 -18.628906 7.609375 -18.296875 C 7.148438 -17.960938 6.921875 -17.5 6.921875 -16.90625 C 6.921875 -16.3125 7.195312 -15.828125 7.75 -15.453125 C 8.300781 -15.085938 8.984375 -14.835938 9.796875 -14.703125 C 10.617188 -14.578125 11.515625 -14.378906 12.484375 -14.109375 C 13.453125 -13.847656 14.34375 -13.519531 15.15625 -13.125 C 15.976562 -12.738281 16.664062 -12.066406 17.21875 -11.109375 C 17.769531 -10.148438 18.046875 -8.96875 18.046875 -7.5625 C 18.046875 -6.164062 17.765625 -4.929688 17.203125 -3.859375 C 16.640625 -2.796875 15.90625 -1.972656 15 -1.390625 C 13.257812 -0.242188 11.394531 0.328125 9.40625 0.328125 C 8.394531 0.328125 7.4375 0.203125 6.53125 -0.046875 C 5.625 -0.296875 4.890625 -0.601562 4.328125 -0.96875 C 3.191406 -1.65625 2.394531 -2.320312 1.9375 -2.96875 Z M 1.65625 -3.328125 "/></g></g></g></svg>