<svg xmlns="http://www.w3.org/2000/svg" xmlns:xlink="http://www.w3.org/1999/xlink" width="500" zoomAndPan="magnify" viewBox="0 0 375 374.999991" height="500" preserveAspectRatio="xMidYMid meet" version="1.0"><defs><g/><clipPath id="010f1d7655"><path d="M 140.90625 74.429688 L 233.90625 74.429688 L 233.90625 215.429688 L 140.90625 215.429688 Z M 140.90625 74.429688 " clip-rule="nonzero"/></clipPath><clipPath id="f9e0d5d094"><path d="M 203.21875 75.429688 C 202.371094 74.796875 201.324219 74.429688 200.195312 74.429688 C 197.386719 74.429688 195.085938 76.730469 195.085938 79.546875 L 195.085938 122.472656 L 187.410156 122.472656 C 161.808594 122.472656 140.960938 143.332031 140.960938 168.949219 C 140.960938 194.566406 161.808594 215.429688 187.410156 215.429688 C 213.011719 215.429688 233.867188 194.570312 233.867188 168.949219 L 233.867188 151.039062 L 223.636719 151.039062 L 223.636719 168.949219 C 223.636719 188.921875 207.371094 205.195312 187.410156 205.195312 C 167.453125 205.195312 151.191406 188.921875 151.191406 168.949219 C 151.191406 148.980469 167.453125 132.707031 187.410156 132.707031 L 195.085938 132.707031 L 195.085938 151.046875 L 187.410156 151.046875 C 177.566406 151.046875 169.511719 159.105469 169.511719 168.953125 C 169.511719 178.804688 177.566406 186.867188 187.410156 186.867188 C 197.253906 186.867188 205.308594 178.808594 205.308594 168.953125 L 205.308594 168.242188 C 205.308594 147.253906 205.308594 126.265625 205.308594 105.273438 C 220.433594 103.460938 226.441406 117.8125 223.351562 148.339844 C 233.441406 133.613281 236.816406 113.257812 220.449219 96.941406 C 217.859375 94.351562 215.125 91.832031 212.640625 89.261719 C 208.910156 85.421875 204.25 76.1875 203.21875 75.429688 Z M 203.21875 75.429688 " clip-rule="evenodd"/></clipPath><linearGradient x1="209.442473" gradientTransform="matrix(0.623407, 0, 0, 0.623756, 140.95398, 74.430238)" y1="110.565333" x2="-0.491997" gradientUnits="userSpaceOnUse" y2="225.130081" id="65b132ae53"><stop stop-opacity="1" stop-color="rgb(14.170837%, 24.316406%, 99.992371%)" offset="0"/><stop stop-opacity="1" stop-color="rgb(14.483643%, 24.59259%, 99.987793%)" offset="0.00390625"/><stop stop-opacity="1" stop-color="rgb(14.796448%, 24.8703%, 99.983215%)" offset="0.0078125"/><stop stop-opacity="1" stop-color="rgb(15.109253%, 25.146484%, 99.978638%)" offset="0.0117187"/><stop stop-opacity="1" stop-color="rgb(15.422058%, 25.424194%, 99.97406%)" offset="0.015625"/><stop stop-opacity="1" stop-color="rgb(15.734863%, 25.700378%, 99.969482%)" offset="0.0195313"/><stop stop-opacity="1" stop-color="rgb(16.047668%, 25.978088%, 99.964905%)" offset="0.0234375"/><stop stop-opacity="1" stop-color="rgb(16.360474%, 26.254272%, 99.960327%)" offset="0.0273437"/><stop stop-opacity="1" stop-color="rgb(16.673279%, 26.531982%, 99.95575%)" offset="0.03125"/><stop stop-opacity="1" stop-color="rgb(16.986084%, 26.808167%, 99.951172%)" offset="0.0351562"/><stop stop-opacity="1" stop-color="rgb(17.298889%, 27.085876%, 99.946594%)" offset="0.0390625"/><stop stop-opacity="1" stop-color="rgb(17.611694%, 27.362061%, 99.942017%)" offset="0.0429688"/><stop stop-opacity="1" stop-color="rgb(17.9245%, 27.639771%, 99.937439%)" offset="0.046875"/><stop stop-opacity="1" stop-color="rgb(18.237305%, 27.915955%, 99.932861%)" offset="0.0507812"/><stop stop-opacity="1" stop-color="rgb(18.55011%, 28.193665%, 99.928284%)" offset="0.0546875"/><stop stop-opacity="1" stop-color="rgb(18.862915%, 28.469849%, 99.923706%)" offset="0.0585937"/><stop stop-opacity="1" stop-color="rgb(19.17572%, 28.747559%, 99.919128%)" offset="0.0625"/><stop stop-opacity="1" stop-color="rgb(19.487%, 29.023743%, 99.914551%)" offset="0.0664062"/><stop stop-opacity="1" stop-color="rgb(19.799805%, 29.301453%, 99.909973%)" offset="0.0703125"/><stop stop-opacity="1" stop-color="rgb(20.11261%, 29.577637%, 99.905396%)" offset="0.0742187"/><stop stop-opacity="1" stop-color="rgb(20.425415%, 29.855347%, 99.900818%)" offset="0.078125"/><stop stop-opacity="1" stop-color="rgb(20.73822%, 30.131531%, 99.89624%)" offset="0.0820312"/><stop stop-opacity="1" stop-color="rgb(21.051025%, 30.409241%, 99.891663%)" offset="0.0859375"/><stop stop-opacity="1" stop-color="rgb(21.363831%, 30.685425%, 99.887085%)" offset="0.0898438"/><stop stop-opacity="1" stop-color="rgb(21.676636%, 30.961609%, 99.882507%)" offset="0.09375"/><stop stop-opacity="1" stop-color="rgb(21.989441%, 31.237793%, 99.87793%)" offset="0.0976562"/><stop stop-opacity="1" stop-color="rgb(22.302246%, 31.515503%, 99.873352%)" offset="0.101562"/><stop stop-opacity="1" stop-color="rgb(22.615051%, 31.791687%, 99.868774%)" offset="0.105469"/><stop stop-opacity="1" stop-color="rgb(22.927856%, 32.069397%, 99.864197%)" offset="0.109375"/><stop stop-opacity="1" stop-color="rgb(23.240662%, 32.345581%, 99.859619%)" offset="0.113281"/><stop stop-opacity="1" stop-color="rgb(23.553467%, 32.623291%, 99.855042%)" offset="0.117187"/><stop stop-opacity="1" stop-color="rgb(23.866272%, 32.899475%, 99.850464%)" offset="0.121094"/><stop stop-opacity="1" stop-color="rgb(24.179077%, 33.177185%, 99.845886%)" offset="0.125"/><stop stop-opacity="1" stop-color="rgb(24.491882%, 33.453369%, 99.841309%)" offset="0.128906"/><stop stop-opacity="1" stop-color="rgb(24.804688%, 33.731079%, 99.836731%)" offset="0.132812"/><stop stop-opacity="1" stop-color="rgb(25.117493%, 34.007263%, 99.832153%)" offset="0.136719"/><stop stop-opacity="1" stop-color="rgb(25.430298%, 34.284973%, 99.827576%)" offset="0.140625"/><stop stop-opacity="1" stop-color="rgb(25.743103%, 34.561157%, 99.822998%)" offset="0.144531"/><stop stop-opacity="1" stop-color="rgb(26.055908%, 34.838867%, 99.81842%)" offset="0.148438"/><stop stop-opacity="1" stop-color="rgb(26.367188%, 35.115051%, 99.813843%)" offset="0.152344"/><stop stop-opacity="1" stop-color="rgb(26.679993%, 35.392761%, 99.809265%)" offset="0.15625"/><stop stop-opacity="1" stop-color="rgb(26.992798%, 35.668945%, 99.804688%)" offset="0.160156"/><stop stop-opacity="1" stop-color="rgb(27.305603%, 35.946655%, 99.80011%)" offset="0.164063"/><stop stop-opacity="1" stop-color="rgb(27.618408%, 36.222839%, 99.795532%)" offset="0.167969"/><stop stop-opacity="1" stop-color="rgb(27.931213%, 36.500549%, 99.790955%)" offset="0.171875"/><stop stop-opacity="1" stop-color="rgb(28.244019%, 36.776733%, 99.786377%)" offset="0.175781"/><stop stop-opacity="1" stop-color="rgb(28.556824%, 37.054443%, 99.781799%)" offset="0.179688"/><stop stop-opacity="1" stop-color="rgb(28.869629%, 37.330627%, 99.777222%)" offset="0.183594"/><stop stop-opacity="1" stop-color="rgb(29.182434%, 37.608337%, 99.772644%)" offset="0.1875"/><stop stop-opacity="1" stop-color="rgb(29.495239%, 37.884521%, 99.768066%)" offset="0.191406"/><stop stop-opacity="1" stop-color="rgb(29.808044%, 38.160706%, 99.763489%)" offset="0.195312"/><stop stop-opacity="1" stop-color="rgb(30.12085%, 38.43689%, 99.758911%)" offset="0.199219"/><stop stop-opacity="1" stop-color="rgb(30.433655%, 38.7146%, 99.754333%)" offset="0.203125"/><stop stop-opacity="1" stop-color="rgb(30.74646%, 38.990784%, 99.749756%)" offset="0.207031"/><stop stop-opacity="1" stop-color="rgb(31.059265%, 39.268494%, 99.745178%)" offset="0.210937"/><stop stop-opacity="1" stop-color="rgb(31.37207%, 39.544678%, 99.740601%)" offset="0.214844"/><stop stop-opacity="1" stop-color="rgb(31.684875%, 39.822388%, 99.736023%)" offset="0.21875"/><stop stop-opacity="1" stop-color="rgb(31.997681%, 40.098572%, 99.731445%)" offset="0.222656"/><stop stop-opacity="1" stop-color="rgb(32.310486%, 40.376282%, 99.726868%)" offset="0.226562"/><stop stop-opacity="1" stop-color="rgb(32.623291%, 40.652466%, 99.72229%)" offset="0.230469"/><stop stop-opacity="1" stop-color="rgb(32.936096%, 40.930176%, 99.717712%)" offset="0.234375"/><stop stop-opacity="1" stop-color="rgb(33.247375%, 41.20636%, 99.713135%)" offset="0.238281"/><stop stop-opacity="1" stop-color="rgb(33.560181%, 41.48407%, 99.708557%)" offset="0.242188"/><stop stop-opacity="1" stop-color="rgb(33.872986%, 41.760254%, 99.703979%)" offset="0.246094"/><stop stop-opacity="1" stop-color="rgb(34.185791%, 42.037964%, 99.699402%)" offset="0.25"/><stop stop-opacity="1" stop-color="rgb(34.498596%, 42.314148%, 99.694824%)" offset="0.253906"/><stop stop-opacity="1" stop-color="rgb(34.811401%, 42.591858%, 99.690247%)" offset="0.257812"/><stop stop-opacity="1" stop-color="rgb(35.124207%, 42.868042%, 99.685669%)" offset="0.261719"/><stop stop-opacity="1" stop-color="rgb(35.437012%, 43.145752%, 99.681091%)" offset="0.265625"/><stop stop-opacity="1" stop-color="rgb(35.749817%, 43.421936%, 99.676514%)" offset="0.269531"/><stop stop-opacity="1" stop-color="rgb(36.062622%, 43.699646%, 99.671936%)" offset="0.273438"/><stop stop-opacity="1" stop-color="rgb(36.375427%, 43.97583%, 99.667358%)" offset="0.277344"/><stop stop-opacity="1" stop-color="rgb(36.688232%, 44.25354%, 99.662781%)" offset="0.28125"/><stop stop-opacity="1" stop-color="rgb(37.001038%, 44.529724%, 99.658203%)" offset="0.285156"/><stop stop-opacity="1" stop-color="rgb(37.313843%, 44.805908%, 99.653625%)" offset="0.289062"/><stop stop-opacity="1" stop-color="rgb(37.626648%, 45.082092%, 99.649048%)" offset="0.292969"/><stop stop-opacity="1" stop-color="rgb(37.939453%, 45.359802%, 99.64447%)" offset="0.296875"/><stop stop-opacity="1" stop-color="rgb(38.252258%, 45.635986%, 99.639893%)" offset="0.300781"/><stop stop-opacity="1" stop-color="rgb(38.565063%, 45.913696%, 99.635315%)" offset="0.304688"/><stop stop-opacity="1" stop-color="rgb(38.877869%, 46.18988%, 99.630737%)" offset="0.308594"/><stop stop-opacity="1" stop-color="rgb(39.190674%, 46.46759%, 99.62616%)" offset="0.3125"/><stop stop-opacity="1" stop-color="rgb(39.503479%, 46.743774%, 99.621582%)" offset="0.316406"/><stop stop-opacity="1" stop-color="rgb(39.816284%, 47.021484%, 99.617004%)" offset="0.320313"/><stop stop-opacity="1" stop-color="rgb(40.127563%, 47.297668%, 99.612427%)" offset="0.324219"/><stop stop-opacity="1" stop-color="rgb(40.440369%, 47.575378%, 99.607849%)" offset="0.328125"/><stop stop-opacity="1" stop-color="rgb(40.753174%, 47.851562%, 99.603271%)" offset="0.332031"/><stop stop-opacity="1" stop-color="rgb(41.065979%, 48.129272%, 99.598694%)" offset="0.335938"/><stop stop-opacity="1" stop-color="rgb(41.378784%, 48.405457%, 99.594116%)" offset="0.339844"/><stop stop-opacity="1" stop-color="rgb(41.691589%, 48.683167%, 99.589539%)" offset="0.34375"/><stop stop-opacity="1" stop-color="rgb(42.004395%, 48.959351%, 99.584961%)" offset="0.347656"/><stop stop-opacity="1" stop-color="rgb(42.3172%, 49.237061%, 99.580383%)" offset="0.351563"/><stop stop-opacity="1" stop-color="rgb(42.630005%, 49.513245%, 99.575806%)" offset="0.355469"/><stop stop-opacity="1" stop-color="rgb(42.94281%, 49.790955%, 99.571228%)" offset="0.359375"/><stop stop-opacity="1" stop-color="rgb(43.255615%, 50.067139%, 99.56665%)" offset="0.363281"/><stop stop-opacity="1" stop-color="rgb(43.56842%, 50.344849%, 99.562073%)" offset="0.367188"/><stop stop-opacity="1" stop-color="rgb(43.881226%, 50.621033%, 99.557495%)" offset="0.371094"/><stop stop-opacity="1" stop-color="rgb(44.194031%, 50.898743%, 99.552917%)" offset="0.375"/><stop stop-opacity="1" stop-color="rgb(44.506836%, 51.174927%, 99.54834%)" offset="0.378906"/><stop stop-opacity="1" stop-color="rgb(44.819641%, 51.452637%, 99.543762%)" offset="0.382812"/><stop stop-opacity="1" stop-color="rgb(45.132446%, 51.728821%, 99.539185%)" offset="0.386719"/><stop stop-opacity="1" stop-color="rgb(45.445251%, 52.005005%, 99.534607%)" offset="0.390625"/><stop stop-opacity="1" stop-color="rgb(45.758057%, 52.281189%, 99.530029%)" offset="0.394531"/><stop stop-opacity="1" stop-color="rgb(46.070862%, 52.558899%, 99.525452%)" offset="0.398437"/><stop stop-opacity="1" stop-color="rgb(46.383667%, 52.835083%, 99.520874%)" offset="0.402344"/><stop stop-opacity="1" stop-color="rgb(46.696472%, 53.112793%, 99.516296%)" offset="0.40625"/><stop stop-opacity="1" stop-color="rgb(47.007751%, 53.388977%, 99.511719%)" offset="0.410156"/><stop stop-opacity="1" stop-color="rgb(47.320557%, 53.666687%, 99.507141%)" offset="0.414062"/><stop stop-opacity="1" stop-color="rgb(47.633362%, 53.942871%, 99.502563%)" offset="0.417969"/><stop stop-opacity="1" stop-color="rgb(47.946167%, 54.220581%, 99.497986%)" offset="0.421875"/><stop stop-opacity="1" stop-color="rgb(48.258972%, 54.496765%, 99.493408%)" offset="0.425781"/><stop stop-opacity="1" stop-color="rgb(48.571777%, 54.774475%, 99.488831%)" offset="0.429687"/><stop stop-opacity="1" stop-color="rgb(48.884583%, 55.050659%, 99.484253%)" offset="0.433594"/><stop stop-opacity="1" stop-color="rgb(49.197388%, 55.328369%, 99.479675%)" offset="0.4375"/><stop stop-opacity="1" stop-color="rgb(49.510193%, 55.604553%, 99.475098%)" offset="0.441406"/><stop stop-opacity="1" stop-color="rgb(49.822998%, 55.882263%, 99.47052%)" offset="0.445312"/><stop stop-opacity="1" stop-color="rgb(50.135803%, 56.158447%, 99.465942%)" offset="0.449219"/><stop stop-opacity="1" stop-color="rgb(50.448608%, 56.436157%, 99.461365%)" offset="0.453125"/><stop stop-opacity="1" stop-color="rgb(50.761414%, 56.712341%, 99.456787%)" offset="0.457031"/><stop stop-opacity="1" stop-color="rgb(51.074219%, 56.990051%, 99.452209%)" offset="0.460938"/><stop stop-opacity="1" stop-color="rgb(51.387024%, 57.266235%, 99.447632%)" offset="0.464844"/><stop stop-opacity="1" stop-color="rgb(51.699829%, 57.543945%, 99.443054%)" offset="0.46875"/><stop stop-opacity="1" stop-color="rgb(52.012634%, 57.820129%, 99.438477%)" offset="0.472656"/><stop stop-opacity="1" stop-color="rgb(52.325439%, 58.097839%, 99.433899%)" offset="0.476562"/><stop stop-opacity="1" stop-color="rgb(52.638245%, 58.374023%, 99.429321%)" offset="0.480469"/><stop stop-opacity="1" stop-color="rgb(52.95105%, 58.651733%, 99.424744%)" offset="0.484375"/><stop stop-opacity="1" stop-color="rgb(53.263855%, 58.927917%, 99.420166%)" offset="0.488281"/><stop stop-opacity="1" stop-color="rgb(53.57666%, 59.204102%, 99.415588%)" offset="0.492188"/><stop stop-opacity="1" stop-color="rgb(53.887939%, 59.480286%, 99.411011%)" offset="0.496094"/><stop stop-opacity="1" stop-color="rgb(54.200745%, 59.757996%, 99.406433%)" offset="0.5"/><stop stop-opacity="1" stop-color="rgb(54.51355%, 60.03418%, 99.401855%)" offset="0.503906"/><stop stop-opacity="1" stop-color="rgb(54.826355%, 60.31189%, 99.397278%)" offset="0.507812"/><stop stop-opacity="1" stop-color="rgb(55.13916%, 60.588074%, 99.3927%)" offset="0.511719"/><stop stop-opacity="1" stop-color="rgb(55.451965%, 60.865784%, 99.388123%)" offset="0.515625"/><stop stop-opacity="1" stop-color="rgb(55.764771%, 61.141968%, 99.383545%)" offset="0.519531"/><stop stop-opacity="1" stop-color="rgb(56.077576%, 61.419678%, 99.378967%)" offset="0.523437"/><stop stop-opacity="1" stop-color="rgb(56.390381%, 61.695862%, 99.37439%)" offset="0.527344"/><stop stop-opacity="1" stop-color="rgb(56.703186%, 61.973572%, 99.369812%)" offset="0.53125"/><stop stop-opacity="1" stop-color="rgb(57.015991%, 62.249756%, 99.365234%)" offset="0.535156"/><stop stop-opacity="1" stop-color="rgb(57.328796%, 62.527466%, 99.360657%)" offset="0.539062"/><stop stop-opacity="1" stop-color="rgb(57.641602%, 62.80365%, 99.356079%)" offset="0.542969"/><stop stop-opacity="1" stop-color="rgb(57.954407%, 63.08136%, 99.351501%)" offset="0.546875"/><stop stop-opacity="1" stop-color="rgb(58.267212%, 63.357544%, 99.346924%)" offset="0.550781"/><stop stop-opacity="1" stop-color="rgb(58.580017%, 63.635254%, 99.342346%)" offset="0.554687"/><stop stop-opacity="1" stop-color="rgb(58.892822%, 63.911438%, 99.337769%)" offset="0.558594"/><stop stop-opacity="1" stop-color="rgb(59.205627%, 64.189148%, 99.333191%)" offset="0.5625"/><stop stop-opacity="1" stop-color="rgb(59.518433%, 64.465332%, 99.328613%)" offset="0.566406"/><stop stop-opacity="1" stop-color="rgb(59.831238%, 64.743042%, 99.324036%)" offset="0.570312"/><stop stop-opacity="1" stop-color="rgb(60.144043%, 65.019226%, 99.319458%)" offset="0.574219"/><stop stop-opacity="1" stop-color="rgb(60.456848%, 65.296936%, 99.31488%)" offset="0.578125"/><stop stop-opacity="1" stop-color="rgb(60.768127%, 65.57312%, 99.310303%)" offset="0.582031"/><stop stop-opacity="1" stop-color="rgb(61.080933%, 65.849304%, 99.305725%)" offset="0.585937"/><stop stop-opacity="1" stop-color="rgb(61.393738%, 66.125488%, 99.301147%)" offset="0.589844"/><stop stop-opacity="1" stop-color="rgb(61.706543%, 66.403198%, 99.29657%)" offset="0.59375"/><stop stop-opacity="1" stop-color="rgb(62.019348%, 66.679382%, 99.291992%)" offset="0.597656"/><stop stop-opacity="1" stop-color="rgb(62.332153%, 66.957092%, 99.287415%)" offset="0.601562"/><stop stop-opacity="1" stop-color="rgb(62.644958%, 67.233276%, 99.282837%)" offset="0.605469"/><stop stop-opacity="1" stop-color="rgb(62.957764%, 67.510986%, 99.278259%)" offset="0.609375"/><stop stop-opacity="1" stop-color="rgb(63.270569%, 67.78717%, 99.273682%)" offset="0.613281"/><stop stop-opacity="1" stop-color="rgb(63.583374%, 68.06488%, 99.269104%)" offset="0.617187"/><stop stop-opacity="1" stop-color="rgb(63.896179%, 68.341064%, 99.264526%)" offset="0.621094"/><stop stop-opacity="1" stop-color="rgb(64.208984%, 68.618774%, 99.259949%)" offset="0.625"/><stop stop-opacity="1" stop-color="rgb(64.52179%, 68.894958%, 99.255371%)" offset="0.628906"/><stop stop-opacity="1" stop-color="rgb(64.834595%, 69.172668%, 99.250793%)" offset="0.632812"/><stop stop-opacity="1" stop-color="rgb(65.1474%, 69.448853%, 99.246216%)" offset="0.636719"/><stop stop-opacity="1" stop-color="rgb(65.460205%, 69.726562%, 99.241638%)" offset="0.640625"/><stop stop-opacity="1" stop-color="rgb(65.77301%, 70.002747%, 99.237061%)" offset="0.644531"/><stop stop-opacity="1" stop-color="rgb(66.085815%, 70.280457%, 99.232483%)" offset="0.648438"/><stop stop-opacity="1" stop-color="rgb(66.398621%, 70.556641%, 99.227905%)" offset="0.652344"/><stop stop-opacity="1" stop-color="rgb(66.711426%, 70.834351%, 99.223328%)" offset="0.65625"/><stop stop-opacity="1" stop-color="rgb(67.024231%, 71.110535%, 99.21875%)" offset="0.660156"/><stop stop-opacity="1" stop-color="rgb(67.337036%, 71.388245%, 99.214172%)" offset="0.664062"/><stop stop-opacity="1" stop-color="rgb(67.648315%, 71.664429%, 99.209595%)" offset="0.667969"/><stop stop-opacity="1" stop-color="rgb(67.961121%, 71.942139%, 99.205017%)" offset="0.671875"/><stop stop-opacity="1" stop-color="rgb(68.273926%, 72.218323%, 99.200439%)" offset="0.675781"/><stop stop-opacity="1" stop-color="rgb(68.586731%, 72.496033%, 99.195862%)" offset="0.679688"/><stop stop-opacity="1" stop-color="rgb(68.899536%, 72.772217%, 99.191284%)" offset="0.683594"/><stop stop-opacity="1" stop-color="rgb(69.212341%, 73.048401%, 99.186707%)" offset="0.6875"/><stop stop-opacity="1" stop-color="rgb(69.525146%, 73.324585%, 99.182129%)" offset="0.691406"/><stop stop-opacity="1" stop-color="rgb(69.837952%, 73.602295%, 99.177551%)" offset="0.695312"/><stop stop-opacity="1" stop-color="rgb(70.150757%, 73.878479%, 99.172974%)" offset="0.699219"/><stop stop-opacity="1" stop-color="rgb(70.463562%, 74.156189%, 99.168396%)" offset="0.703125"/><stop stop-opacity="1" stop-color="rgb(70.776367%, 74.432373%, 99.163818%)" offset="0.707031"/><stop stop-opacity="1" stop-color="rgb(71.089172%, 74.710083%, 99.159241%)" offset="0.710938"/><stop stop-opacity="1" stop-color="rgb(71.401978%, 74.986267%, 99.154663%)" offset="0.714844"/><stop stop-opacity="1" stop-color="rgb(71.714783%, 75.263977%, 99.150085%)" offset="0.71875"/><stop stop-opacity="1" stop-color="rgb(72.027588%, 75.540161%, 99.145508%)" offset="0.722656"/><stop stop-opacity="1" stop-color="rgb(72.340393%, 75.817871%, 99.14093%)" offset="0.726562"/><stop stop-opacity="1" stop-color="rgb(72.653198%, 76.094055%, 99.136353%)" offset="0.730469"/><stop stop-opacity="1" stop-color="rgb(72.966003%, 76.371765%, 99.131775%)" offset="0.734375"/><stop stop-opacity="1" stop-color="rgb(73.278809%, 76.647949%, 99.127197%)" offset="0.738281"/><stop stop-opacity="1" stop-color="rgb(73.591614%, 76.925659%, 99.12262%)" offset="0.742188"/><stop stop-opacity="1" stop-color="rgb(73.904419%, 77.201843%, 99.118042%)" offset="0.746094"/><stop stop-opacity="1" stop-color="rgb(74.217224%, 77.479553%, 99.113464%)" offset="0.75"/><stop stop-opacity="1" stop-color="rgb(74.530029%, 77.755737%, 99.108887%)" offset="0.753906"/><stop stop-opacity="1" stop-color="rgb(74.842834%, 78.033447%, 99.104309%)" offset="0.757812"/><stop stop-opacity="1" stop-color="rgb(75.154114%, 78.309631%, 99.099731%)" offset="0.761719"/><stop stop-opacity="1" stop-color="rgb(75.466919%, 78.587341%, 99.095154%)" offset="0.765625"/><stop stop-opacity="1" stop-color="rgb(75.779724%, 78.863525%, 99.090576%)" offset="0.769531"/><stop stop-opacity="1" stop-color="rgb(76.092529%, 79.141235%, 99.085999%)" offset="0.773438"/><stop stop-opacity="1" stop-color="rgb(76.405334%, 79.417419%, 99.081421%)" offset="0.777344"/><stop stop-opacity="1" stop-color="rgb(76.71814%, 79.693604%, 99.076843%)" offset="0.78125"/><stop stop-opacity="1" stop-color="rgb(77.030945%, 79.969788%, 99.072266%)" offset="0.785156"/><stop stop-opacity="1" stop-color="rgb(77.34375%, 80.247498%, 99.067688%)" offset="0.789062"/><stop stop-opacity="1" stop-color="rgb(77.656555%, 80.523682%, 99.06311%)" offset="0.792969"/><stop stop-opacity="1" stop-color="rgb(77.96936%, 80.801392%, 99.058533%)" offset="0.796875"/><stop stop-opacity="1" stop-color="rgb(78.282166%, 81.077576%, 99.053955%)" offset="0.800781"/><stop stop-opacity="1" stop-color="rgb(78.594971%, 81.355286%, 99.049377%)" offset="0.804688"/><stop stop-opacity="1" stop-color="rgb(78.907776%, 81.63147%, 99.0448%)" offset="0.808594"/><stop stop-opacity="1" stop-color="rgb(79.220581%, 81.90918%, 99.040222%)" offset="0.8125"/><stop stop-opacity="1" stop-color="rgb(79.533386%, 82.185364%, 99.035645%)" offset="0.816406"/><stop stop-opacity="1" stop-color="rgb(79.846191%, 82.463074%, 99.031067%)" offset="0.820312"/><stop stop-opacity="1" stop-color="rgb(80.158997%, 82.739258%, 99.026489%)" offset="0.824219"/><stop stop-opacity="1" stop-color="rgb(80.471802%, 83.016968%, 99.021912%)" offset="0.828125"/><stop stop-opacity="1" stop-color="rgb(80.784607%, 83.293152%, 99.017334%)" offset="0.832031"/><stop stop-opacity="1" stop-color="rgb(81.097412%, 83.570862%, 99.012756%)" offset="0.835938"/><stop stop-opacity="1" stop-color="rgb(81.410217%, 83.847046%, 99.008179%)" offset="0.839844"/><stop stop-opacity="1" stop-color="rgb(81.723022%, 84.124756%, 99.003601%)" offset="0.84375"/><stop stop-opacity="1" stop-color="rgb(82.034302%, 84.40094%, 98.999023%)" offset="0.847656"/><stop stop-opacity="1" stop-color="rgb(82.347107%, 84.67865%, 98.994446%)" offset="0.851562"/><stop stop-opacity="1" stop-color="rgb(82.659912%, 84.954834%, 98.989868%)" offset="0.855469"/><stop stop-opacity="1" stop-color="rgb(82.972717%, 85.232544%, 98.985291%)" offset="0.859375"/><stop stop-opacity="1" stop-color="rgb(83.285522%, 85.508728%, 98.980713%)" offset="0.863281"/><stop stop-opacity="1" stop-color="rgb(83.598328%, 85.786438%, 98.976135%)" offset="0.867188"/><stop stop-opacity="1" stop-color="rgb(83.911133%, 86.062622%, 98.971558%)" offset="0.871094"/><stop stop-opacity="1" stop-color="rgb(84.223938%, 86.340332%, 98.96698%)" offset="0.875"/><stop stop-opacity="1" stop-color="rgb(84.536743%, 86.616516%, 98.962402%)" offset="0.878906"/><stop stop-opacity="1" stop-color="rgb(84.849548%, 86.8927%, 98.957825%)" offset="0.882813"/><stop stop-opacity="1" stop-color="rgb(85.162354%, 87.168884%, 98.953247%)" offset="0.886719"/><stop stop-opacity="1" stop-color="rgb(85.475159%, 87.446594%, 98.948669%)" offset="0.890625"/><stop stop-opacity="1" stop-color="rgb(85.787964%, 87.722778%, 98.944092%)" offset="0.894531"/><stop stop-opacity="1" stop-color="rgb(86.100769%, 88.000488%, 98.939514%)" offset="0.898438"/><stop stop-opacity="1" stop-color="rgb(86.413574%, 88.276672%, 98.934937%)" offset="0.902344"/><stop stop-opacity="1" stop-color="rgb(86.726379%, 88.554382%, 98.930359%)" offset="0.90625"/><stop stop-opacity="1" stop-color="rgb(87.039185%, 88.830566%, 98.925781%)" offset="0.910156"/><stop stop-opacity="1" stop-color="rgb(87.35199%, 89.108276%, 98.921204%)" offset="0.914063"/><stop stop-opacity="1" stop-color="rgb(87.664795%, 89.38446%, 98.916626%)" offset="0.917969"/><stop stop-opacity="1" stop-color="rgb(87.9776%, 89.66217%, 98.912048%)" offset="0.921875"/><stop stop-opacity="1" stop-color="rgb(88.290405%, 89.938354%, 98.907471%)" offset="0.925781"/><stop stop-opacity="1" stop-color="rgb(88.60321%, 90.216064%, 98.902893%)" offset="0.929688"/><stop stop-opacity="1" stop-color="rgb(88.91449%, 90.492249%, 98.898315%)" offset="0.933594"/><stop stop-opacity="1" stop-color="rgb(89.227295%, 90.769958%, 98.893738%)" offset="0.9375"/><stop stop-opacity="1" stop-color="rgb(89.5401%, 91.046143%, 98.88916%)" offset="0.941406"/><stop stop-opacity="1" stop-color="rgb(89.852905%, 91.323853%, 98.884583%)" offset="0.945313"/><stop stop-opacity="1" stop-color="rgb(90.16571%, 91.600037%, 98.880005%)" offset="0.949219"/><stop stop-opacity="1" stop-color="rgb(90.478516%, 91.877747%, 98.875427%)" offset="0.953125"/><stop stop-opacity="1" stop-color="rgb(90.791321%, 92.153931%, 98.87085%)" offset="0.957031"/><stop stop-opacity="1" stop-color="rgb(91.104126%, 92.431641%, 98.866272%)" offset="0.960938"/><stop stop-opacity="1" stop-color="rgb(91.416931%, 92.707825%, 98.861694%)" offset="0.964844"/><stop stop-opacity="1" stop-color="rgb(91.729736%, 92.985535%, 98.857117%)" offset="0.96875"/><stop stop-opacity="1" stop-color="rgb(92.042542%, 93.261719%, 98.852539%)" offset="0.972656"/><stop stop-opacity="1" stop-color="rgb(92.355347%, 93.539429%, 98.847961%)" offset="0.976563"/><stop stop-opacity="1" stop-color="rgb(92.668152%, 93.815613%, 98.843384%)" offset="0.980469"/><stop stop-opacity="1" stop-color="rgb(92.980957%, 94.091797%, 98.838806%)" offset="0.984375"/><stop stop-opacity="1" stop-color="rgb(93.293762%, 94.367981%, 98.834229%)" offset="0.988281"/><stop stop-opacity="1" stop-color="rgb(93.606567%, 94.645691%, 98.829651%)" offset="0.992188"/><stop stop-opacity="1" stop-color="rgb(93.919373%, 94.921875%, 98.825073%)" offset="0.996094"/><stop stop-opacity="1" stop-color="rgb(94.232178%, 95.199585%, 98.820496%)" offset="1"/></linearGradient></defs><g clip-path="url(#010f1d7655)"><g clip-path="url(#f9e0d5d094)"><path fill="url(#65b132ae53)" d="M 140.960938 74.429688 L 140.960938 215.429688 L 233.90625 215.429688 L 233.90625 74.429688 Z M 140.960938 74.429688 " fill-rule="nonzero"/></g></g><g fill="#ffffff" fill-opacity="1"><g transform="translate(72.347256, 259.064323)"><g><path d="M 1.3125 -2.640625 C 0.863281 -3.191406 0.640625 -3.6875 0.640625 -4.125 C 0.640625 -4.5625 1.007812 -5.140625 1.75 -5.859375 C 2.175781 -6.273438 2.628906 -6.484375 3.109375 -6.484375 C 3.585938 -6.484375 4.253906 -6.050781 5.109375 -5.1875 C 5.347656 -4.894531 5.691406 -4.613281 6.140625 -4.34375 C 6.585938 -4.082031 7 -3.953125 7.375 -3.953125 C 8.96875 -3.953125 9.765625 -4.601562 9.765625 -5.90625 C 9.765625 -6.300781 9.546875 -6.628906 9.109375 -6.890625 C 8.671875 -7.160156 8.125 -7.351562 7.46875 -7.46875 C 6.820312 -7.59375 6.117188 -7.785156 5.359375 -8.046875 C 4.609375 -8.316406 3.90625 -8.628906 3.25 -8.984375 C 2.601562 -9.347656 2.0625 -9.921875 1.625 -10.703125 C 1.195312 -11.484375 0.984375 -12.421875 0.984375 -13.515625 C 0.984375 -15.023438 1.539062 -16.34375 2.65625 -17.46875 C 3.78125 -18.59375 5.3125 -19.15625 7.25 -19.15625 C 8.28125 -19.15625 9.21875 -19.019531 10.0625 -18.75 C 10.90625 -18.488281 11.492188 -18.21875 11.828125 -17.9375 L 12.46875 -17.453125 C 13 -16.953125 13.265625 -16.53125 13.265625 -16.1875 C 13.265625 -15.84375 13.054688 -15.375 12.640625 -14.78125 C 12.054688 -13.925781 11.457031 -13.5 10.84375 -13.5 C 10.488281 -13.5 10.046875 -13.671875 9.515625 -14.015625 C 9.460938 -14.046875 9.363281 -14.128906 9.21875 -14.265625 C 9.070312 -14.398438 8.9375 -14.507812 8.8125 -14.59375 C 8.457031 -14.820312 8 -14.9375 7.4375 -14.9375 C 6.882812 -14.9375 6.421875 -14.800781 6.046875 -14.53125 C 5.679688 -14.269531 5.5 -13.898438 5.5 -13.421875 C 5.5 -12.953125 5.71875 -12.570312 6.15625 -12.28125 C 6.59375 -11.988281 7.132812 -11.789062 7.78125 -11.6875 C 8.4375 -11.59375 9.148438 -11.4375 9.921875 -11.21875 C 10.691406 -11 11.398438 -10.734375 12.046875 -10.421875 C 12.703125 -10.117188 13.25 -9.585938 13.6875 -8.828125 C 14.125 -8.066406 14.34375 -7.128906 14.34375 -6.015625 C 14.34375 -4.898438 14.117188 -3.914062 13.671875 -3.0625 C 13.222656 -2.21875 12.640625 -1.566406 11.921875 -1.109375 C 10.535156 -0.203125 9.054688 0.25 7.484375 0.25 C 6.671875 0.25 5.90625 0.15625 5.1875 -0.03125 C 4.46875 -0.226562 3.882812 -0.472656 3.4375 -0.765625 C 2.53125 -1.316406 1.898438 -1.847656 1.546875 -2.359375 Z M 1.3125 -2.640625 "/></g></g></g><g fill="#ffffff" fill-opacity="1"><g transform="translate(93.524746, 259.064323)"><g><path d="M 9.875 -19.078125 C 12.40625 -19.078125 14.601562 -18.160156 16.46875 -16.328125 C 18.34375 -14.492188 19.28125 -12.21875 19.28125 -9.5 C 19.28125 -6.78125 18.390625 -4.460938 16.609375 -2.546875 C 14.828125 -0.640625 12.632812 0.3125 10.03125 0.3125 C 7.425781 0.3125 5.207031 -0.628906 3.375 -2.515625 C 1.550781 -4.398438 0.640625 -6.644531 0.640625 -9.25 C 0.640625 -10.675781 0.894531 -12.007812 1.40625 -13.25 C 1.925781 -14.488281 2.613281 -15.523438 3.46875 -16.359375 C 4.320312 -17.203125 5.304688 -17.863281 6.421875 -18.34375 C 7.535156 -18.832031 8.6875 -19.078125 9.875 -19.078125 Z M 5.1875 -9.375 C 5.1875 -7.851562 5.675781 -6.613281 6.65625 -5.65625 C 7.644531 -4.707031 8.75 -4.234375 9.96875 -4.234375 C 11.1875 -4.234375 12.285156 -4.695312 13.265625 -5.625 C 14.242188 -6.550781 14.734375 -7.789062 14.734375 -9.34375 C 14.734375 -10.90625 14.238281 -12.15625 13.25 -13.09375 C 12.257812 -14.039062 11.15625 -14.515625 9.9375 -14.515625 C 8.726562 -14.515625 7.632812 -14.039062 6.65625 -13.09375 C 5.675781 -12.144531 5.1875 -10.90625 5.1875 -9.375 Z M 5.1875 -9.375 "/></g></g></g><g fill="#ffffff" fill-opacity="1"><g transform="translate(119.636471, 259.064323)"><g><path d="M 13.328125 -18.140625 C 13.503906 -18.421875 13.753906 -18.609375 14.078125 -18.703125 C 14.410156 -18.804688 14.816406 -18.859375 15.296875 -18.859375 C 15.785156 -18.859375 16.175781 -18.816406 16.46875 -18.734375 C 16.757812 -18.648438 16.984375 -18.546875 17.140625 -18.421875 C 17.296875 -18.304688 17.410156 -18.128906 17.484375 -17.890625 C 17.578125 -17.597656 17.625 -17.148438 17.625 -16.546875 L 17.625 -8.796875 C 17.625 -6.523438 16.925781 -4.46875 15.53125 -2.625 C 14.84375 -1.75 13.957031 -1.039062 12.875 -0.5 C 11.800781 0.0390625 10.609375 0.3125 9.296875 0.3125 C 7.984375 0.3125 6.789062 0.0351562 5.71875 -0.515625 C 4.644531 -1.066406 3.773438 -1.785156 3.109375 -2.671875 C 1.722656 -4.484375 1.03125 -6.539062 1.03125 -8.84375 L 1.03125 -16.578125 C 1.03125 -16.992188 1.039062 -17.296875 1.0625 -17.484375 C 1.09375 -17.679688 1.175781 -17.910156 1.3125 -18.171875 C 1.445312 -18.429688 1.675781 -18.609375 2 -18.703125 C 2.332031 -18.804688 2.769531 -18.859375 3.3125 -18.859375 C 3.863281 -18.859375 4.300781 -18.804688 4.625 -18.703125 C 4.945312 -18.609375 5.171875 -18.429688 5.296875 -18.171875 C 5.503906 -17.773438 5.609375 -17.234375 5.609375 -16.546875 L 5.609375 -8.84375 C 5.609375 -7.800781 5.863281 -6.804688 6.375 -5.859375 C 6.632812 -5.378906 7.019531 -4.992188 7.53125 -4.703125 C 8.039062 -4.410156 8.648438 -4.265625 9.359375 -4.265625 C 10.609375 -4.265625 11.539062 -4.726562 12.15625 -5.65625 C 12.769531 -6.582031 13.078125 -7.65625 13.078125 -8.875 L 13.078125 -16.734375 C 13.078125 -17.398438 13.160156 -17.867188 13.328125 -18.140625 Z M 13.328125 -18.140625 "/></g></g></g><g fill="#ffffff" fill-opacity="1"><g transform="translate(144.488946, 259.064323)"><g><path d="M 13.1875 -18.046875 C 13.351562 -18.347656 13.597656 -18.550781 13.921875 -18.65625 C 14.253906 -18.757812 14.664062 -18.8125 15.15625 -18.8125 C 15.644531 -18.8125 16.035156 -18.769531 16.328125 -18.6875 C 16.628906 -18.601562 16.851562 -18.5 17 -18.375 C 17.144531 -18.257812 17.253906 -18.082031 17.328125 -17.84375 C 17.429688 -17.5625 17.484375 -17.125 17.484375 -16.53125 L 17.484375 -2.265625 C 17.484375 -1.847656 17.46875 -1.546875 17.4375 -1.359375 C 17.414062 -1.171875 17.335938 -0.945312 17.203125 -0.6875 C 16.953125 -0.226562 16.28125 0 15.1875 0 C 14.519531 0 14.054688 -0.0507812 13.796875 -0.15625 C 13.546875 -0.257812 13.332031 -0.421875 13.15625 -0.640625 C 9.300781 -5.785156 6.765625 -9.144531 5.546875 -10.71875 L 5.546875 -2.265625 C 5.546875 -1.847656 5.53125 -1.546875 5.5 -1.359375 C 5.476562 -1.171875 5.398438 -0.945312 5.265625 -0.6875 C 5.023438 -0.226562 4.359375 0 3.265625 0 C 2.203125 0 1.550781 -0.226562 1.3125 -0.6875 C 1.175781 -0.945312 1.09375 -1.179688 1.0625 -1.390625 C 1.039062 -1.597656 1.03125 -1.894531 1.03125 -2.28125 L 1.03125 -16.625 C 1.03125 -17.28125 1.109375 -17.753906 1.265625 -18.046875 C 1.429688 -18.347656 1.675781 -18.550781 2 -18.65625 C 2.332031 -18.757812 2.753906 -18.8125 3.265625 -18.8125 C 3.773438 -18.8125 4.179688 -18.765625 4.484375 -18.671875 C 4.785156 -18.578125 4.992188 -18.472656 5.109375 -18.359375 C 5.179688 -18.304688 5.378906 -18.082031 5.703125 -17.6875 C 9.316406 -12.769531 11.734375 -9.519531 12.953125 -7.9375 L 12.953125 -16.625 C 12.953125 -17.28125 13.03125 -17.753906 13.1875 -18.046875 Z M 13.1875 -18.046875 "/></g></g></g><g fill="#ffffff" fill-opacity="1"><g transform="translate(169.187223, 259.064323)"><g><path d="M 3.3125 -18.859375 L 8.078125 -18.84375 C 10.554688 -18.84375 12.738281 -17.945312 14.625 -16.15625 C 16.507812 -14.363281 17.453125 -12.160156 17.453125 -9.546875 C 17.453125 -6.929688 16.53125 -4.691406 14.6875 -2.828125 C 12.84375 -0.960938 10.613281 -0.03125 8 -0.03125 L 3.296875 -0.03125 C 2.242188 -0.03125 1.59375 -0.242188 1.34375 -0.671875 C 1.132812 -1.023438 1.03125 -1.570312 1.03125 -2.3125 L 1.03125 -16.609375 C 1.03125 -17.015625 1.039062 -17.3125 1.0625 -17.5 C 1.09375 -17.6875 1.175781 -17.910156 1.3125 -18.171875 C 1.550781 -18.628906 2.21875 -18.859375 3.3125 -18.859375 Z M 8.078125 -4.578125 C 9.304688 -4.578125 10.414062 -5.035156 11.40625 -5.953125 C 12.40625 -6.867188 12.90625 -8.019531 12.90625 -9.40625 C 12.90625 -10.789062 12.421875 -11.953125 11.453125 -12.890625 C 10.484375 -13.828125 9.347656 -14.296875 8.046875 -14.296875 L 5.578125 -14.296875 L 5.578125 -4.578125 Z M 8.078125 -4.578125 "/></g></g></g><g fill="#ffffff" fill-opacity="1"><g transform="translate(193.474308, 259.064323)"><g><path d="M 14.4375 -10.09375 C 15.457031 -8.894531 15.96875 -7.550781 15.96875 -6.0625 C 15.925781 -4.351562 15.332031 -2.921875 14.1875 -1.765625 C 13.050781 -0.609375 11.671875 -0.03125 10.046875 -0.03125 L 3.296875 -0.03125 C 2.085938 -0.03125 1.382812 -0.351562 1.1875 -1 C 1.082031 -1.289062 1.03125 -1.738281 1.03125 -2.34375 L 1.03125 -16.609375 C 1.03125 -17.015625 1.039062 -17.3125 1.0625 -17.5 C 1.09375 -17.6875 1.175781 -17.910156 1.3125 -18.171875 C 1.550781 -18.628906 2.21875 -18.859375 3.3125 -18.859375 L 9.796875 -18.859375 C 11.367188 -18.859375 12.6875 -18.3125 13.75 -17.21875 C 14.863281 -16.101562 15.421875 -14.769531 15.421875 -13.21875 C 15.421875 -12.082031 15.09375 -11.039062 14.4375 -10.09375 Z M 11.40625 -6.328125 C 11.40625 -6.734375 11.359375 -7.054688 11.265625 -7.296875 C 11.171875 -7.535156 11.015625 -7.707031 10.796875 -7.8125 C 10.453125 -7.945312 9.972656 -8.015625 9.359375 -8.015625 C 8.742188 -8.015625 8.28125 -8.132812 7.96875 -8.375 C 7.65625 -8.613281 7.5 -9.101562 7.5 -9.84375 C 7.5 -10.59375 7.65625 -11.085938 7.96875 -11.328125 C 8.289062 -11.566406 8.820312 -11.6875 9.5625 -11.6875 C 10.25 -11.6875 10.660156 -11.867188 10.796875 -12.234375 C 10.847656 -12.421875 10.875 -12.726562 10.875 -13.15625 C 10.875 -13.582031 10.734375 -13.878906 10.453125 -14.046875 C 10.171875 -14.222656 9.742188 -14.3125 9.171875 -14.3125 L 5.578125 -14.3125 L 5.578125 -4.578125 L 9.796875 -4.578125 C 10.867188 -4.578125 11.40625 -5.160156 11.40625 -6.328125 Z M 11.40625 -6.328125 "/></g></g></g><g fill="#ffffff" fill-opacity="1"><g transform="translate(216.270846, 259.064323)"><g><path d="M 15.984375 -18.484375 C 16.828125 -17.898438 17.25 -17.332031 17.25 -16.78125 C 17.25 -16.457031 17.050781 -16.003906 16.65625 -15.421875 L 11.109375 -7.125 L 11.109375 -2.203125 C 11.109375 -1.816406 11.09375 -1.523438 11.0625 -1.328125 C 11.039062 -1.128906 10.957031 -0.898438 10.8125 -0.640625 C 10.675781 -0.378906 10.445312 -0.195312 10.125 -0.09375 C 9.800781 0 9.363281 0.046875 8.8125 0.046875 C 8.269531 0.046875 7.832031 0 7.5 -0.09375 C 7.175781 -0.195312 6.945312 -0.378906 6.8125 -0.640625 C 6.675781 -0.910156 6.59375 -1.144531 6.5625 -1.34375 C 6.539062 -1.539062 6.53125 -1.847656 6.53125 -2.265625 L 6.53125 -7.125 L 0.984375 -15.421875 C 0.585938 -16.003906 0.390625 -16.457031 0.390625 -16.78125 C 0.390625 -17.332031 0.765625 -17.859375 1.515625 -18.359375 C 2.265625 -18.867188 2.800781 -19.125 3.125 -19.125 C 3.457031 -19.125 3.71875 -19.054688 3.90625 -18.921875 C 4.195312 -18.734375 4.503906 -18.378906 4.828125 -17.859375 L 8.8125 -11.484375 L 12.796875 -17.859375 C 13.117188 -18.378906 13.398438 -18.71875 13.640625 -18.875 C 13.890625 -19.039062 14.171875 -19.125 14.484375 -19.125 C 14.796875 -19.125 15.296875 -18.910156 15.984375 -18.484375 Z M 15.984375 -18.484375 "/></g></g></g><g fill="#ffffff" fill-opacity="1"><g transform="translate(240.095361, 259.064323)"><g><path d="M 2.265625 -18.859375 L 16.546875 -18.859375 C 17.097656 -18.859375 17.5 -18.796875 17.75 -18.671875 C 18.007812 -18.546875 18.179688 -18.34375 18.265625 -18.0625 C 18.359375 -17.789062 18.40625 -17.429688 18.40625 -16.984375 C 18.40625 -16.546875 18.359375 -16.191406 18.265625 -15.921875 C 18.179688 -15.660156 18.039062 -15.476562 17.84375 -15.375 C 17.53125 -15.21875 17.09375 -15.140625 16.53125 -15.140625 L 11.625 -15.140625 L 11.625 -2.203125 C 11.625 -1.816406 11.609375 -1.523438 11.578125 -1.328125 C 11.554688 -1.140625 11.476562 -0.921875 11.34375 -0.671875 C 11.21875 -0.429688 10.988281 -0.257812 10.65625 -0.15625 C 10.332031 -0.0507812 9.90625 0 9.375 0 C 8.84375 0 8.421875 -0.0507812 8.109375 -0.15625 C 7.796875 -0.257812 7.570312 -0.429688 7.4375 -0.671875 C 7.3125 -0.921875 7.234375 -1.144531 7.203125 -1.34375 C 7.179688 -1.539062 7.171875 -1.835938 7.171875 -2.234375 L 7.171875 -15.140625 L 2.234375 -15.140625 C 1.679688 -15.140625 1.273438 -15.203125 1.015625 -15.328125 C 0.765625 -15.460938 0.597656 -15.664062 0.515625 -15.9375 C 0.429688 -16.207031 0.390625 -16.566406 0.390625 -17.015625 C 0.390625 -17.460938 0.429688 -17.816406 0.515625 -18.078125 C 0.597656 -18.347656 0.742188 -18.535156 0.953125 -18.640625 C 1.253906 -18.785156 1.691406 -18.859375 2.265625 -18.859375 Z M 2.265625 -18.859375 "/></g></g></g><g fill="#ffffff" fill-opacity="1"><g transform="translate(265.076324, 259.064323)"><g><path d="M 5.578125 -4.546875 L 13.5 -4.546875 C 13.882812 -4.546875 14.175781 -4.53125 14.375 -4.5 C 14.570312 -4.476562 14.800781 -4.398438 15.0625 -4.265625 C 15.519531 -4.023438 15.75 -3.359375 15.75 -2.265625 C 15.75 -1.066406 15.4375 -0.363281 14.8125 -0.15625 C 14.519531 -0.0507812 14.070312 0 13.46875 0 L 3.296875 0 C 2.085938 0 1.382812 -0.328125 1.1875 -0.984375 C 1.082031 -1.253906 1.03125 -1.6875 1.03125 -2.28125 L 1.03125 -16.578125 C 1.03125 -17.453125 1.191406 -18.046875 1.515625 -18.359375 C 1.835938 -18.679688 2.453125 -18.84375 3.359375 -18.84375 L 13.5 -18.84375 C 13.882812 -18.84375 14.175781 -18.828125 14.375 -18.796875 C 14.570312 -18.773438 14.800781 -18.695312 15.0625 -18.5625 C 15.519531 -18.320312 15.75 -17.648438 15.75 -16.546875 C 15.75 -15.347656 15.4375 -14.644531 14.8125 -14.4375 C 14.519531 -14.34375 14.070312 -14.296875 13.46875 -14.296875 L 5.578125 -14.296875 L 5.578125 -11.6875 L 10.671875 -11.6875 C 11.066406 -11.6875 11.359375 -11.675781 11.546875 -11.65625 C 11.742188 -11.632812 11.972656 -11.550781 12.234375 -11.40625 C 12.691406 -11.164062 12.921875 -10.5 12.921875 -9.40625 C 12.921875 -8.207031 12.597656 -7.503906 11.953125 -7.296875 C 11.660156 -7.191406 11.210938 -7.140625 10.609375 -7.140625 L 5.578125 -7.140625 Z M 5.578125 -4.546875 "/></g></g></g><g fill="#ffffff" fill-opacity="1"><g transform="translate(287.66728, 259.064323)"><g><path d="M 1.3125 -2.640625 C 0.863281 -3.191406 0.640625 -3.6875 0.640625 -4.125 C 0.640625 -4.5625 1.007812 -5.140625 1.75 -5.859375 C 2.175781 -6.273438 2.628906 -6.484375 3.109375 -6.484375 C 3.585938 -6.484375 4.253906 -6.050781 5.109375 -5.1875 C 5.347656 -4.894531 5.691406 -4.613281 6.140625 -4.34375 C 6.585938 -4.082031 7 -3.953125 7.375 -3.953125 C 8.96875 -3.953125 9.765625 -4.601562 9.765625 -5.90625 C 9.765625 -6.300781 9.546875 -6.628906 9.109375 -6.890625 C 8.671875 -7.160156 8.125 -7.351562 7.46875 -7.46875 C 6.820312 -7.59375 6.117188 -7.785156 5.359375 -8.046875 C 4.609375 -8.316406 3.90625 -8.628906 3.25 -8.984375 C 2.601562 -9.347656 2.0625 -9.921875 1.625 -10.703125 C 1.195312 -11.484375 0.984375 -12.421875 0.984375 -13.515625 C 0.984375 -15.023438 1.539062 -16.34375 2.65625 -17.46875 C 3.78125 -18.59375 5.3125 -19.15625 7.25 -19.15625 C 8.28125 -19.15625 9.21875 -19.019531 10.0625 -18.75 C 10.90625 -18.488281 11.492188 -18.21875 11.828125 -17.9375 L 12.46875 -17.453125 C 13 -16.953125 13.265625 -16.53125 13.265625 -16.1875 C 13.265625 -15.84375 13.054688 -15.375 12.640625 -14.78125 C 12.054688 -13.925781 11.457031 -13.5 10.84375 -13.5 C 10.488281 -13.5 10.046875 -13.671875 9.515625 -14.015625 C 9.460938 -14.046875 9.363281 -14.128906 9.21875 -14.265625 C 9.070312 -14.398438 8.9375 -14.507812 8.8125 -14.59375 C 8.457031 -14.820312 8 -14.9375 7.4375 -14.9375 C 6.882812 -14.9375 6.421875 -14.800781 6.046875 -14.53125 C 5.679688 -14.269531 5.5 -13.898438 5.5 -13.421875 C 5.5 -12.953125 5.71875 -12.570312 6.15625 -12.28125 C 6.59375 -11.988281 7.132812 -11.789062 7.78125 -11.6875 C 8.4375 -11.59375 9.148438 -11.4375 9.921875 -11.21875 C 10.691406 -11 11.398438 -10.734375 12.046875 -10.421875 C 12.703125 -10.117188 13.25 -9.585938 13.6875 -8.828125 C 14.125 -8.066406 14.34375 -7.128906 14.34375 -6.015625 C 14.34375 -4.898438 14.117188 -3.914062 13.671875 -3.0625 C 13.222656 -2.21875 12.640625 -1.566406 11.921875 -1.109375 C 10.535156 -0.203125 9.054688 0.25 7.484375 0.25 C 6.671875 0.25 5.90625 0.15625 5.1875 -0.03125 C 4.46875 -0.226562 3.882812 -0.472656 3.4375 -0.765625 C 2.53125 -1.316406 1.898438 -1.847656 1.546875 -2.359375 Z M 1.3125 -2.640625 "/></g></g></g></svg>